<svg preserveAspectRatio="none" width="100%" height="100%" overflow="visible" style="display: block;" viewBox="0 0 375 812" fill="none" xmlns="http://www.w3.org/2000/svg">
<g id="BG" clip-path="url(#clip0_0_11)">
<rect width="375" height="812" fill="#111E32"/>
<path id="Subtract" d="M393 819H-48V581.909C-45.1276 581.797 -42.2593 581.687 -39.4141 581.575C-39.0096 581.044 -38.6023 580.513 -38.1914 579.981C-37.2214 580.628 -36.5004 581.317 -36.1006 580.332C-37.7556 579.623 -31.8361 580.373 -35.5146 580.897C-35.5455 581.43 -34.1953 581.966 -35.0459 581.359C-34.715 580.1 -27.0285 579.553 -30 581.422C-29.9757 581.885 -27.7569 581.374 -27.877 581.034C-29.2729 580.883 -27.9994 580.476 -28.2324 579.892C-27.9037 579.056 -22.3022 579.839 -25.1602 580.015C-21.7791 580.34 -26.309 580.652 -23.208 580.598C-22.6658 580.727 -20.2536 577.666 -19.3232 579.758C-19.8211 580.104 -19.8965 580.939 -19.1504 580.223C-17.3273 579.224 -11.0605 578.037 -15.8574 579.989C-14.0104 581.323 -9.66539 579.117 -9.28809 580.37C-9.36145 581.202 -6.69538 581.371 -5.99023 581.174C-7.80844 581.134 -6.34997 580.576 -6.34668 580.521C-6.5177 580.251 -7.52823 580.79 -7.5332 580.272C-3.39674 579.76 -6.34759 582.487 -4.12598 581.39C-3.83994 581.442 -3.60433 581.455 -3.40234 581.439C-3.4356 581.44 -3.46812 581.439 -3.48535 581.399C-3.62123 581.264 -3.35373 581.167 -3.20117 581.247C-3.13334 581.342 -3.26624 581.424 -3.38379 581.439C-1.21208 581.297 -2.80888 577.816 0.473633 579.55C1.91523 580.03 2.294 581.05 3.61816 580.562C4.37837 581.92 4.34995 579.688 6.38574 580.296C6.38759 580.299 6.40781 580.302 6.40918 580.305C6.68984 580.391 7.01124 580.526 7.37793 580.736C7.4307 581.037 7.66832 580.914 7.96875 580.682C7.94791 580.69 7.92391 580.701 7.89551 580.706C7.2951 580.861 7.47322 580.274 7.70703 580.271C7.88987 580.269 8.13426 580.488 8.05078 580.62C8.64133 580.145 9.41095 579.365 9.4834 580.406C10.6924 580.588 8.81962 581.095 9.17578 581.706C9.67862 581.675 9.93947 580.648 11.1846 580.911C11.5837 580.512 9.71798 580.116 10.791 580.135C11.7838 580.373 13.088 579.273 13.2617 580.35C14.6142 579.943 14.095 579.685 15.0879 580.306C16.4246 581.988 16.9745 577.207 17.9746 580.749C19.5726 581.419 16.8656 578.313 19.8262 579.464C18.48 581.058 21.0147 579.102 21.9434 579.887C23.0324 579.769 22.8769 579.086 24.3682 579.115C22.0806 580.088 25.8526 580.198 27.3418 580.446C25.4459 580.051 29.9244 579.784 27.8271 580.004C29.4003 583.596 29.7967 580.278 31.877 580.835C31.881 581.34 32.7645 580.87 33.1318 580.826C31.3122 580.785 32.7722 580.228 32.7754 580.172C32.5044 580.133 30.6524 580.025 32.1709 579.837C34.4701 579.948 34.0897 580.576 34.0391 580.951C33.9673 580.97 33.8877 580.985 33.7969 580.985C33.8929 581.122 34.0588 581.196 34.2383 581.214C34.4371 581.25 34.8189 581.225 35.5146 581.096C35.3789 580.96 35.6466 580.864 35.7988 580.944C35.8325 580.985 35.8154 581.011 35.7988 581.038C35.9334 581.01 36.0352 580.996 36.1865 580.968C36.8649 581.209 40.0674 581.799 40.71 581.249C41.4725 580.985 40.9067 580.512 40.8359 580.104C41.0333 579.775 41.4477 579.77 41.6152 579.904C41.6646 579.85 41.7651 579.835 41.8506 579.902C41.8516 579.998 41.7646 579.988 41.666 579.975C41.6992 580.07 41.6335 580.192 41.3691 580.316C41.6191 580.396 41.7187 580.451 41.9385 580.286C43.9384 578.867 42.4868 580.842 44.7412 580.949C45.9229 579.754 45.7124 580.326 47.4463 580.588C47.7098 580.191 48.1075 580.011 48.5371 579.913C48.5205 579.9 48.5043 579.885 48.5371 579.857C48.5704 579.857 48.6362 579.858 48.6855 579.871C49.5309 579.715 50.5317 579.831 51.1846 579.444C52.2585 579.247 52.1457 580.038 51.5752 579.96C51.5785 579.96 51.593 579.957 51.6074 579.934C51.5984 579.934 51.5186 579.932 51.4238 579.92C51.3565 579.893 51.3047 579.88 51.2373 579.84C50.9091 580.497 53.4158 579.895 52.8594 579.284C53.9457 579.659 53.5601 578.992 54.458 579.382C53.6815 579.796 53.8319 579.946 54.2969 579.998C54.2474 579.971 54.2296 579.943 54.2617 579.902C54.3776 579.888 54.4457 579.983 54.5449 579.982C54.6101 579.995 54.6442 580.009 54.6611 580.022C54.8876 580.021 55.1142 580.02 55.3398 580.019C54.1258 579.385 56.3813 578.416 56.501 579.234C56.4008 579.536 56.1868 580.422 56.7607 580.174C58.8094 580.461 55.7085 579.267 57.665 578.627C59.3063 578.658 61.6996 580.744 62.166 579.487C62.1287 579.201 63.2743 579.791 63.0215 579.767C62.6069 580.001 61.5549 579.64 61.8584 580.198C61.769 581.795 61.5309 580.5 61.0361 580.666C61.138 581.129 59.8093 580.497 60.8682 580.245C60.3722 580.193 59.3183 579.504 58.8652 579.574C58.8684 580.12 58.4655 579.961 58.2666 580.439C58.9402 580.258 60.4414 580.971 59.458 581.004C62.2604 581.465 63.0783 580.819 64.0195 579.395C67.2655 580.701 65.454 579.572 65.9902 579.303C65.9616 579.319 65.9499 579.339 65.9629 579.369C66.1663 579.758 66.8866 579.447 66.8242 579.291C67.0184 579.321 67.2502 579.363 67.5254 579.428C65.8004 580.025 68.5635 582.015 71.4561 580.895C70.784 580.748 70.6983 580.49 69.9033 580.985C69.1699 580.539 70.1595 580.439 70.7803 580.04C68.5912 579.192 71.5949 579.473 72.4668 579.715C71.7828 578.996 72.2679 579.484 72.7129 579.113C73.194 579.657 72.8855 579.825 73.8223 580.229C70.8469 578.934 70.7957 580.761 73.415 581.172C73.6613 581.157 73.8916 581.143 74.1035 581.128C73.8423 581.075 73.4966 580.954 73.1172 580.86C73.0353 580.383 74.1141 580.418 74.627 580.442C74.7151 580.824 74.6808 581.017 74.543 581.1C79.0885 580.86 80.2237 581.427 83.3691 580.528C84.7367 580.728 84.189 579.652 84.8379 579.513C85.291 580.535 86.8038 579.97 88.0332 580.335C89.583 581.286 92.2757 581.199 94.292 580.815C94.2615 580.815 94.2454 580.818 94.2148 580.805C94.0922 580.669 94.3298 580.571 94.4873 580.651C94.4802 580.659 94.3821 580.788 94.3086 580.815C94.8291 580.72 95.3741 580.61 95.8418 580.487C95.7914 580.487 95.7404 580.488 95.6729 580.461C95.6729 580.451 95.6748 580.201 95.7744 580.147C96.0281 580.202 96.0442 580.393 95.9268 580.461C96.4657 580.325 96.9361 580.175 97.3164 580.025C97.2689 580.025 97.2046 580.012 97.1729 580.025C97.0338 579.616 97.9295 579.615 97.7402 579.888C97.7402 579.915 97.741 579.931 97.7256 579.958C98.7456 580.028 99.4756 580.52 100.327 579.486C100.327 579.567 100.326 579.649 100.326 579.729C100.328 579.649 100.422 579.662 100.499 579.689C100.498 579.771 100.42 579.744 100.326 579.744C100.362 580.27 100.735 579.97 101.198 579.737C101.524 579.59 101.907 579.47 102.294 579.604C103.616 578.599 101.65 580.501 105.208 580.218C105.043 580.176 104.929 580.038 105.078 579.875C105.089 579.882 105.331 580.028 105.56 580.056C105.559 580.069 105.544 580.069 105.527 580.082C105.744 579.988 105.929 579.908 106.064 579.867C106.031 579.867 105.981 579.853 105.964 579.826C106.037 579.827 106.111 579.827 106.185 579.827C106.777 579.694 106.794 580.116 106.875 580.853C106.413 581.164 107.422 580.994 107.08 580.965C107.031 580.051 108.345 581.31 109.025 581.001C112.166 580.866 106.583 579.923 108.263 579.822C107.821 580.38 110.477 580.093 109 579.677C109.1 579.227 111.218 579.115 110.558 579.535C110.434 580.202 109.315 580.415 110.998 580.451C111.177 581.066 111.839 581.207 112.615 581.143C112.262 580.963 111.393 580.481 112.466 580.582C111.443 580.713 112.866 580.802 112.666 581.128C112.767 581.128 112.885 581.115 112.986 581.088C113.293 580.695 113.599 580.819 113.548 580.982C114.228 580.822 114.86 580.567 115.316 580.351C113.473 579.877 115.494 577.894 115.187 579.884C115.717 580.514 116.746 580.246 115.642 579.285C118.525 580.146 116.029 580.408 114.93 581.181C116.428 581.406 118.022 579.613 118.035 581.088C116.797 580.891 118.162 581.402 118.733 581.146C126.202 580.994 116.637 578.827 123.102 579.503C126.147 581.075 123.522 579.683 124.1 578.881C124.473 579.403 127.158 580.822 125.662 581.21C126.97 580.896 130.506 581.751 131.482 580.972C131.753 581.133 132.185 581.093 132.42 580.862C132.124 580.506 131.954 580.678 131.649 580.776C131.77 580.566 131.769 580.277 131.604 579.888C133.497 580.567 136.469 581.774 138.639 580.967C138.639 580.871 138.706 580.776 138.907 580.845C139.008 580.791 139.126 580.763 139.227 580.709C141.752 580.436 138.176 579.079 140.898 579.749C140.913 580.076 141.029 580.284 141.179 580.421C141.179 580.394 141.162 580.364 141.179 580.351C141.512 580.284 141.497 580.311 141.729 580.585C141.728 580.612 141.694 580.601 141.678 580.614C142.859 580.771 145.099 579.635 145.938 580.5C145.485 580.645 145.724 580.71 146.1 580.794C146.066 580.782 146.041 580.757 146.037 580.721C146.045 580.716 146.175 580.637 146.321 580.611C146.394 580.753 146.211 580.827 146.104 580.794C146.492 580.88 147.023 580.989 147.09 581.23C150.043 581.056 144.666 579.454 148.188 579.856C148.288 579.898 148.389 579.94 148.473 579.981C148.359 579.682 148.961 579.781 148.827 579.916C148.823 579.917 148.523 579.969 148.473 579.996C148.634 580.067 148.794 580.128 148.95 580.181C149.597 579.956 148.799 579.779 149.064 579.646C149.819 579.53 149.702 580.191 148.97 580.187C149.262 580.282 149.538 580.339 149.796 580.306C149.88 580.211 150.147 580.102 150.132 580.196C150.383 580.075 150.603 579.844 150.789 579.436C152.513 579.691 151.081 580.926 151.196 581.269C151.33 581.269 151.416 581.241 151.533 581.215C151.567 581.161 151.618 581.107 151.685 581.107C151.684 581.135 151.684 581.162 151.684 581.189C153.011 580.869 153.041 579.462 154.261 579.537C155.382 579.571 154.862 579.815 156.018 579.972C155.973 578.975 156.589 579.961 157.009 579.978C157.274 580.551 157.58 580.2 158.618 579.987C158.322 579.044 160.164 578.985 158.722 579.522C158.366 580.326 161.678 580.972 160.109 579.926C160.109 579.944 160.109 579.963 160.108 579.981C160.1 579.977 159.997 579.926 160.076 579.926C160.076 579.917 160.077 579.908 160.077 579.899C160.077 579.899 160.06 579.886 160.043 579.872C160.054 579.872 160.066 579.873 160.077 579.873C160.077 579.882 160.077 579.891 160.077 579.899C160.094 579.9 160.111 579.912 160.127 579.926C160.127 579.908 160.127 579.891 160.127 579.873C161.367 579.908 161.168 579.877 162.359 579.625C162.474 580.035 159.937 580.799 162.217 580.826C162.78 581.989 164.979 581.484 166.509 580.77C165.807 580.342 165.072 580.025 164.435 580.104C164 580.074 165.983 581.749 163.823 581.327C162.539 580.46 164.948 580.964 162.49 580.145C164.302 579.678 164.019 579.582 166.15 578.994C166.096 579.347 165.462 579.387 165.06 579.507C165.477 580.04 167.254 579.629 166.695 580.513C169.092 580.827 166.884 580.007 167.438 579.86C169.472 581.729 171.571 581.689 174.137 581.05C176.803 581.121 176.804 581.407 179.448 581.601C182.17 581.74 182.648 581.811 183.228 579.986C183.036 581.009 190.861 582.666 190.4 580.999C189.851 580.413 190.199 580.257 190.763 580.222C190.748 580.225 190.735 580.227 190.724 580.236C190.757 580.345 190.972 580.389 190.974 580.294C190.974 580.253 190.924 580.225 190.874 580.211C191.403 580.201 192.081 580.258 192.417 580.206C192.627 581.532 193.676 581.24 195.044 580.648C193.699 579.37 196.631 581.683 197.265 580.514C199.021 578.751 197.41 582.001 200.399 580.068C200.262 581.542 201.836 581.745 204.327 581.762C204.456 580.684 205.832 582.481 207.273 581.208C206.72 580.876 204.425 581.134 205.848 580.079C206.629 580.126 209.421 581.603 207.483 580.348C208.069 579.874 209.974 579.549 208.797 580.592C209.439 581.933 210.423 582.308 213.275 581.66C212.429 581.408 212.898 581.372 211.736 581.623C211.296 581.877 211.628 580.886 212.515 580.905C211.216 579.858 213.354 580.335 214.331 580.52C213.747 579.82 213.956 580.257 214.625 579.921C214.994 580.429 214.827 580.632 215.714 581.048C213.239 580.034 212.432 580.889 214.712 581.984C216.291 581.3 222.032 583.225 221.862 580.975C222.499 581.103 222.543 581.921 221.82 582.011C222.116 581.991 223.057 582.049 223.716 581.985C224.299 581.932 224.683 581.795 224.347 581.457C226.355 581.801 226.093 580.924 226.737 580.465C229.525 582.248 236.314 583.138 239.476 581.696C239.426 581.682 239.282 581.028 239.332 581.015C239.364 581.018 239.335 581.317 239.803 581.497C239.861 581.21 240.161 581.292 239.482 581.017C242.325 581.878 241.698 579.88 242.438 581.185C243.937 580.682 245.014 579.862 245.121 581.555C246.408 580.601 249.2 581.851 248.895 580.332C249.009 580.429 249.189 580.553 249.396 580.679C249.407 580.681 249.679 580.714 249.679 580.794C249.678 580.82 249.661 580.82 249.628 580.819C250.477 581.267 251.558 581.598 251.127 580.65C252.689 580.017 252.794 580.893 251.87 581.575C253.432 581.571 253.02 582.575 254.947 582.32C255.572 582.425 257.51 581.571 256.765 581.435C256.264 580.717 255.522 581.467 257.005 580.088C256.99 580.989 256.971 581.793 258.205 581.311C258.017 581.02 256.685 580.3 258.147 580.735C260.141 581.74 257.535 581.656 256.781 582.434C259.401 582.196 258.832 581.381 260.586 582.444C260.572 582.444 260.557 582.444 260.543 582.443C260.534 582.445 260.401 582.47 260.351 582.496C260.461 582.498 260.573 582.5 260.685 582.502C261.031 582.71 262.504 582.485 263.343 582.184C263.854 581.996 264.144 581.78 263.759 581.624C263.811 581.137 263.591 581.193 263.353 581.277C263.048 581.379 262.719 581.523 262.774 580.808C262.96 580.705 263.155 580.648 263.359 580.625C264.65 580.476 266.125 581.797 267.192 581.448C265.824 581.412 265.473 579.416 266.87 580.641C267.204 582.458 270.929 583.324 273.998 582.181C273.135 580.391 276.172 582.088 277.377 582.552C281.248 583.504 280.378 580.555 282.28 580.96C282.994 581.531 283.54 581.735 284.083 581.774C283.894 581.72 283.727 581.569 283.811 581.392C284.081 581.377 284.186 581.432 284.391 581.703C284.374 581.744 284.322 581.76 284.271 581.773C285.102 581.784 285.957 581.521 287.392 581.758C288.816 579.851 288.844 581.45 290.891 580.693C290.665 580.778 289.05 580.913 290.057 580.235C290.654 580.46 291.077 580.66 291.477 580.709C291.653 580.73 291.824 580.724 292.003 580.682C291.934 580.642 292.067 580.257 292.169 580.24C292.274 580.225 292.365 580.279 292.365 580.334C293.779 579.975 294.418 579.253 294.236 582.165C295.463 582.268 296.864 578.733 298.812 578.964C300.13 578.844 303.297 579.872 301.51 580.374C301.536 580.491 301.564 580.585 301.596 580.662C301.581 580.681 301.568 580.701 301.562 580.701C301.499 580.757 301.184 580.575 301.12 580.658C301.122 580.663 301.157 580.742 301.158 580.795C301.158 580.848 301.063 580.879 301.063 580.933C301.067 580.987 301.245 581.038 301.198 581.107C301.035 581.112 300.888 581.17 300.721 581.121C300.586 581.098 300.715 580.945 300.432 581.021C300.431 581.003 300.431 580.984 300.431 580.966C300.366 581.077 300.268 581.176 300.185 581.233C300.187 581.233 300.404 581.171 300.538 581.194C300.605 581.192 300.673 581.245 300.756 581.243C300.922 581.238 301.001 581.1 301.202 581.23C301.268 581.256 301.207 581.366 301.304 581.336C301.432 581.278 301.395 581.128 301.474 581.017C301.538 580.941 301.64 580.915 301.749 580.892C301.908 581.011 302.105 580.91 302.34 580.802C302.246 580.804 302.114 580.738 302.16 580.669C302.161 580.669 302.416 580.691 302.434 580.759C302.717 580.628 303.043 580.523 303.394 580.787C304.105 579.76 304.951 580.807 305.265 580.665C305.387 580.822 306.006 580.46 306.72 580.111C307.546 579.54 309.233 579.014 309.02 580.895C312.091 582.138 305.791 578.527 314.306 580.272C314.243 579.986 314.29 579.82 314.386 579.711C314.291 579.615 314.259 579.479 314.434 579.438C314.609 579.398 314.756 579.508 314.821 579.617C316.246 579.77 319.724 582.428 318.125 580.417C314.241 578.509 319.393 578.06 319.931 580.451C318.061 580.923 320.492 580.985 319.861 581.966C318.613 582.344 320.833 582.062 320.967 582.145C323.742 581.989 319.657 579.713 323.373 580.339C325.548 579.746 327.212 582.575 331.983 582.143C333.335 577.126 333.881 582.397 336.317 581.506C337.437 580.2 336.798 580.851 338.84 581.46C339.155 580.233 343.338 580.265 342.33 581.135C343.983 582.643 344.8 578.743 345.505 580.708C347.096 580.332 351.993 577.106 352.45 580.48C352.129 580.884 351.809 581.288 351.488 581.691C351.807 581.693 352.126 581.695 352.445 581.696C352.445 581.859 352.427 582.009 352.393 582.199C352.512 582.077 375.976 581.798 376.227 581.594C376.184 576.063 376.141 570.531 376.098 565H393V819ZM298.184 581.208C297.539 581.088 297.976 581.5 297.891 581.611C297.72 581.766 297.037 581.577 297.08 581.944C297.558 581.933 298.065 582.029 298.458 582.25C298.494 582.276 298.569 582.331 298.641 582.397C298.82 582.393 299.006 582.387 299.184 582.382C299.37 582.145 299.571 581.947 299.858 581.762C299.425 581.597 298.898 581.555 298.418 581.404C298.273 581.354 298.271 581.259 298.218 581.233C298.207 581.234 298.196 581.234 298.185 581.234C298.184 581.226 298.184 581.217 298.184 581.208ZM319.159 581.65C319.149 581.758 318.298 581.728 318.217 581.823C318.218 581.828 318.249 581.931 318.217 581.932C318.193 581.935 317.582 582.038 317.485 582.012C317.485 582.093 317.615 582.123 317.665 582.19C317.952 582.191 318.244 582.193 318.539 582.193C318.549 582.185 318.678 582.083 318.761 582.057C318.89 582.03 319.371 581.976 319.726 581.95C319.726 581.933 319.726 581.915 319.726 581.897C319.666 581.897 319.607 581.898 319.548 581.897C319.554 581.888 319.559 581.878 319.564 581.868C319.555 581.862 319.281 581.733 319.244 581.732C319.175 581.678 319.246 581.595 319.315 581.527C319.252 581.509 319.188 581.49 319.124 581.472C319.126 581.481 319.159 581.624 319.159 581.65ZM254.016 581.88C253.958 581.184 255.172 581.749 254.735 582.179C254.306 582.185 254.664 581.686 254.016 581.88ZM260.938 581.999C260.824 581.534 261.362 581.678 261.307 581.978C261.271 581.95 261.024 582.041 260.938 581.999ZM208.383 581.395C208.375 581.502 207.543 581.47 207.453 581.563C207.455 581.569 207.484 581.671 207.452 581.672C207.448 581.673 207.229 581.726 206.992 581.751C206.992 581.769 206.992 581.788 206.992 581.807C206.991 581.888 206.958 581.917 206.893 581.943C207.159 581.945 207.435 581.947 207.704 581.949C207.711 581.944 207.842 581.839 207.925 581.812C208.061 581.786 208.499 581.736 208.884 581.711C208.884 581.693 208.884 581.674 208.884 581.655C208.822 581.655 208.761 581.655 208.699 581.654C208.727 581.641 208.755 581.628 208.782 581.614C208.759 581.603 208.502 581.479 208.467 581.477C208.4 581.422 208.468 581.34 208.535 581.272C208.473 581.253 208.411 581.234 208.35 581.215C208.351 581.221 208.383 581.368 208.383 581.395ZM270.736 581.9C272.488 581.032 269.077 580.557 272.1 580.812C272.301 581.399 272.098 582.109 270.736 581.9ZM278.937 580.992C279.767 581.442 278.482 582.139 278.039 581.881C279.513 581.579 277.784 581.157 278.937 580.992ZM215.189 581.495C215.385 580.856 216.967 580.91 216.875 581.742C215.995 582.05 215.93 581.528 215.189 581.495ZM326.683 581.604C326.301 581.139 326.146 581.576 325.607 581.574C325.835 581.889 326.397 581.89 326.683 581.604ZM202.886 580.917C201.157 579.95 205.322 580.469 203.945 580.924C203.596 582.846 203.567 580.652 202.98 581.645C201.923 580.969 203.099 581.164 202.886 580.917ZM300.516 581.59C300.551 581.643 300.586 581.699 300.555 581.741C300.584 581.716 300.644 581.663 300.668 581.642C300.601 581.643 300.533 581.617 300.516 581.59ZM236.34 581.669C236.212 581.531 236.468 581.439 236.627 581.521C236.62 581.533 236.429 581.775 236.34 581.669ZM330.064 579.666C331.194 580.353 331.481 581.828 329.547 581.562C331.697 581.037 327.233 579.806 330.064 579.666ZM232.188 581.508C231.325 581.623 231.375 581.052 232.223 581.25C232.495 581.293 232.41 581.401 232.188 581.508ZM261.017 581.399C260.939 580.799 262.098 581.387 261.419 581.514C261.409 581.512 261.152 581.455 261.017 581.399ZM335.422 581.065C335.607 581.012 336.063 581.149 336.029 581.326C335.96 581.585 335.288 581.351 335.422 581.065ZM118.427 581.362C118.414 581.365 118.293 581.391 118.245 581.417C118.372 581.418 118.5 581.418 118.627 581.419C118.623 581.416 118.592 581.389 118.561 581.363C118.516 581.363 118.471 581.363 118.427 581.362ZM234.806 580.796C235.059 580.854 235.239 581.331 234.953 581.397C234.854 581.151 234.584 580.944 234.806 580.796ZM270.023 581.134C270.243 581.135 270.483 581.27 270.415 581.393C270.313 581.31 270.091 581.256 270.023 581.134ZM237.862 581.029C238.221 581.115 238.104 581.494 237.76 581.342C237.76 581.33 237.765 581.082 237.862 581.029ZM218.314 580.06C217.729 579.236 221.687 581.134 219.598 581.241C217.873 581.733 220.612 580.664 218.314 580.06ZM177.558 581.246C177.425 581.109 177.693 581.016 177.843 581.099C177.941 581.235 177.658 581.355 177.558 581.246ZM328.416 581.256C328.162 580.532 329.492 580.796 329.236 581.109C329.217 581.113 328.55 581.243 328.416 581.256ZM224.471 581.048C224.673 581.199 224.857 581.255 224.435 581.252C224.435 581.184 224.47 581.116 224.471 581.048ZM224.657 580.873C224.845 580.82 225.295 580.959 225.26 581.136C225.192 581.394 224.523 581.158 224.657 580.873ZM253.042 580.828C254.043 581.266 253.228 579.698 254.248 580.615C255.478 580.336 254.294 581.98 253.042 580.828ZM233.07 581.026C233.135 581.095 233.118 581.188 233.002 581.228C233.011 581.211 233.1 581.042 233.07 581.026ZM320.091 581.135C320.059 580.739 320.436 580.738 320.686 581.024C320.618 581.311 320.336 581.176 320.091 581.135ZM315.579 580.574C315.293 580.519 315.477 580.71 315.443 580.724C315.375 580.805 315.093 580.724 315.093 580.86C315.274 580.861 315.509 580.915 315.661 581.011C315.729 581.038 315.798 581.188 315.884 581.161C316.021 581.025 316.107 580.904 316.28 580.822C316.257 580.822 316.234 580.822 316.211 580.822C315.964 580.822 315.678 580.819 315.605 580.703C315.597 580.679 315.588 580.654 315.579 580.63C315.579 580.611 315.579 580.593 315.579 580.574ZM187.852 580.9C187.656 580.123 188.991 581.346 187.145 581.13C187.045 580.897 187.716 580.872 187.852 580.9ZM235.938 580.889C235.942 580.89 236.102 580.944 236.103 581.024C236.035 581.364 235.529 580.94 235.938 580.889ZM247.623 581.137C246.782 581.29 247.435 580.315 247.692 580.851C247.295 580.914 248.054 580.992 247.623 581.137ZM230.514 580.922C230.45 581.043 230.958 581.061 230.929 581.074C230.614 581.14 230.395 581.179 230.514 580.922ZM180.461 580.909C179.676 580.413 181.904 580.713 181.132 580.858C180.593 581.265 179.149 581.065 180.461 580.909ZM173.873 580.365C172.47 579.428 177.678 580.674 175.763 581.086C172.793 581.109 175.631 580.171 173.873 580.365ZM222.197 581.003C222.167 580.607 222.552 580.611 222.798 580.899C222.729 581.183 222.448 581.046 222.197 581.003ZM258.382 579.881C259.241 580.062 262.414 580.983 260.521 580.899C260.722 581.49 257.453 580.397 258.382 579.881ZM193.055 580.649C193.155 580.65 193.139 580.651 193.088 580.732C194.345 580.564 193.084 581.589 193.055 580.649ZM37.7148 580.957C37.8803 580.615 38.7506 580.294 39.2539 580.577C38.8205 580.744 38.2531 581.158 37.7148 580.957ZM209.422 580.901C209.579 580.845 209.773 580.533 209.962 580.775C209.956 580.815 209.944 580.848 209.929 580.872C209.959 580.828 210.071 580.79 210.243 580.818C210.243 580.9 210.308 580.968 210.109 580.967C209.956 580.966 209.901 580.918 209.927 580.875C209.83 581.024 209.58 580.902 209.422 580.901ZM239.266 580.921C239.121 580.51 240.067 580.519 239.866 580.789C239.896 581.089 239.469 580.896 239.266 580.921ZM217.938 580.575C218.261 580.551 218.597 580.689 218.444 580.893C218.003 581.094 218.122 580.754 217.938 580.575ZM118.819 580.913C118.705 580.449 119.222 580.589 119.171 580.889C119.138 580.861 118.903 580.954 118.819 580.913ZM224.015 580.417C224.236 580.555 224.404 580.735 224.437 580.912C224.42 580.906 223.912 580.725 224.015 580.417ZM-3.86133 580.91C-4.28159 580.859 -3.76363 580.434 -3.69336 580.774C-3.6989 580.785 -3.76486 580.909 -3.86133 580.91ZM300.462 580.883C300.478 580.887 300.719 580.951 300.811 580.79C300.808 580.79 300.594 580.795 300.458 580.745C300.459 580.791 300.461 580.837 300.462 580.883ZM217.749 580.627C217.646 580.708 217.679 580.859 217.679 580.887C217.525 580.885 217.681 580.654 217.749 580.627ZM247.027 580.227C247.296 580.544 247.567 580.726 246.916 580.882C246.987 580.61 246.736 580.455 247.027 580.227ZM128.188 579.735C129.236 579.386 130.836 580.376 129.139 580.681C127.094 581.352 130.219 579.938 128.188 579.735ZM186.026 580.836C185.928 580.617 186.178 580.591 186.277 580.782C186.161 580.782 186.093 580.836 186.026 580.836ZM135.963 580.076C136.892 579.986 136.974 580.71 136.028 580.773C135.54 580.552 136.533 580.748 135.963 580.076ZM232.433 580.651C232.839 580.669 231.862 580.275 232.925 580.421C232.789 580.584 232.921 580.956 232.433 580.651ZM43.627 580.371C43.8117 580.315 44.2659 580.447 44.2354 580.624C44.1699 580.883 43.4966 580.658 43.627 580.371ZM90.0947 580.699C89.2835 580.823 89.3312 580.252 90.127 580.441C90.4021 580.482 90.308 580.59 90.0947 580.699ZM171.257 580.566C171.257 580.648 171.322 580.716 171.121 580.715C170.802 580.713 170.905 580.51 171.257 580.566ZM250.299 580.53C250.267 580.559 250.265 580.664 250.265 580.705C250.051 580.729 250.087 580.501 250.299 580.53ZM76.2979 578.973C77.3381 579.855 79.4349 580.517 76.7275 580.693C78.5046 579.893 76.037 580.025 76.2979 578.973ZM310.251 580.648C310.22 580.648 310.189 580.676 310.158 580.689C310.204 580.689 310.251 580.689 310.251 580.648ZM29.2266 580.526C29.2292 580.532 29.2898 580.675 29.0928 580.677C28.7735 580.679 28.8734 580.474 29.2266 580.526ZM242.444 580.666C242.412 580.571 242.548 580.585 242.649 580.613C242.648 580.695 242.547 580.667 242.444 580.666ZM28.2852 580.604C28.2488 580.208 28.6355 580.204 28.8896 580.488C28.8244 580.775 28.5375 580.643 28.2852 580.604ZM170.351 580.452C170.452 580.276 170.703 580.305 170.92 580.538C170.851 580.754 170.55 580.508 170.351 580.452ZM179.559 580.005C180.368 579.615 181.152 580.081 181.135 580.381C180.93 581.02 180.365 580.119 179.559 580.005ZM107.319 580.404C107.418 580.582 107.035 580.663 107.031 580.514C107.038 580.509 107.18 580.43 107.319 580.404ZM4.23535 579.956C5.26304 580.016 3.62145 581.052 3.56445 580.275C2.87222 579.858 3.94878 580.026 4.23535 579.956ZM92.6846 579.959C92.9317 580.013 93.111 580.491 92.8496 580.56C92.7512 580.314 92.4878 580.109 92.6846 579.959ZM204.524 580.125C204.51 580.274 205.01 580.427 205.227 580.47C204.891 580.672 204.355 580.505 204.524 580.125ZM82.417 580.409C82.8521 580.394 82.5867 580.586 82.3848 580.547C82.3847 580.542 82.3848 580.537 82.3848 580.532C82.3845 580.451 82.4161 580.382 82.416 580.301C82.4162 580.337 82.4169 580.373 82.417 580.409ZM82.6172 580.15C82.802 580.095 83.2512 580.229 83.2188 580.406C83.1534 580.665 82.4872 580.437 82.6172 580.15ZM226.193 580.353C226.324 580.313 226.29 580.543 226.192 580.461C225.913 580.513 225.997 580.296 226.193 580.353ZM205.36 580.362C205.359 580.416 205.293 580.47 205.26 580.471C205.265 580.468 205.359 580.415 205.36 580.362ZM6.86914 579.908C7.66934 579.739 7.85943 580.499 6.87402 580.453C7.30446 580.178 7.10492 580.192 6.86914 579.908ZM187.938 580.397C187.888 580.262 188.04 580.343 188.073 580.425C188.071 580.425 187.938 580.451 187.938 580.397ZM236.45 580.375C236.519 580.376 236.553 580.401 236.604 580.429C236.599 580.429 236.47 580.426 236.45 580.375ZM118.889 580.312C118.809 579.713 119.928 580.29 119.273 580.423C119.266 580.421 119.02 580.367 118.889 580.312ZM68.1885 580.271C68.189 580.352 68.2542 580.42 68.0576 580.421C67.7459 580.423 67.8441 580.218 68.1885 580.271ZM67.2676 580.29C67.4993 580.465 67.6602 579.824 67.8594 580.231C67.8607 580.504 67.3518 580.439 67.2676 580.29ZM90.9785 580.208C91.0474 580.276 91.0309 580.369 90.9102 580.41C90.9173 580.397 91.0108 580.222 90.9785 580.208ZM37.4004 579.128C38.8062 578.709 38.9481 579.965 39.2021 580.387C38.585 580.459 36.8186 579.869 37.4004 579.128ZM249.208 580.199C249.222 580.228 249.155 580.391 249.009 580.349C249.009 580.349 249.19 580.267 249.208 580.199ZM80.0947 580.283C80.0529 579.888 80.4517 579.884 80.7119 580.17C80.646 580.456 80.3426 580.323 80.0947 580.283ZM36.8027 580.173C37.054 580.089 37.3736 580.194 37.4424 580.344C37.1907 580.318 36.9879 580.24 36.8027 580.173ZM88.4453 580.132C88.3862 580.253 88.8868 580.267 88.8564 580.28C88.5475 580.349 88.3323 580.389 88.4453 580.132ZM75.876 579.933C76.1994 579.904 76.5389 580.039 76.4053 580.244C75.9657 580.451 76.0808 580.109 75.876 579.933ZM93.835 580.04C93.8453 580.044 93.9923 580.096 93.9932 580.175C93.9307 580.515 93.4371 580.095 93.835 580.04ZM277.901 580.012C277.834 580.216 277.546 580.271 277.225 580.299C277.259 580.122 277.664 579.944 277.901 580.012ZM9.55078 580.174C9.65149 580.173 9.83398 580.199 9.83496 580.28C9.81349 580.28 9.48729 580.28 9.55078 580.174ZM127.629 580.019C127.848 580.02 128.083 580.157 128.015 580.279C127.914 580.197 127.696 580.141 127.629 580.019ZM169.851 580.106C169.851 580.12 169.851 580.134 169.851 580.147C169.9 580.23 169.848 580.312 169.815 580.244C169.815 580.244 169.834 580.188 169.851 580.147C169.85 580.142 169.846 580.119 169.816 580.106C169.828 580.107 169.839 580.106 169.851 580.106ZM334.254 579.544C330.742 578.22 336.182 578.05 336.631 579.69C335.638 580.082 334.014 580.84 334.254 579.544ZM110.853 579.862C111.912 579.99 111.134 579.1 112.471 579.721C112.655 579.901 112.152 580.741 110.853 579.862ZM105.487 580.164C105.405 580.164 105.604 580.233 105.655 580.22C105.648 580.216 105.551 580.164 105.487 580.164ZM145.772 580.104C146.19 579.942 145.86 579.506 146.477 579.687C146.86 579.88 146.172 580.447 145.772 580.104ZM81.958 579.702C82.1786 579.838 82.3485 580.015 82.3828 580.192C82.3681 580.187 81.8612 580.011 81.958 579.702ZM-3.39453 580.156C-3.58318 579.789 -2.72162 580.015 -2.87207 580.152C-2.87673 580.153 -3.32413 580.236 -3.39453 580.156ZM148.927 580.189C148.941 580.19 148.956 580.186 148.97 580.187C148.963 580.184 148.957 580.183 148.95 580.181C148.943 580.183 148.935 580.187 148.927 580.189ZM69.3184 579.875C69.3597 580 69.4476 580.141 69.3711 580.183C68.9994 580.137 69.2723 579.892 69.3047 579.793C69.3091 579.82 69.314 579.848 69.3184 579.875ZM291.995 580.037C290.944 579.953 291.806 579.659 292.146 579.777C292.292 580.062 292.339 580.32 291.995 580.037ZM45.9414 580.039C45.9467 580.044 46.0096 580.097 46.042 580.149C45.8756 580.164 45.8919 580.107 45.9414 580.039ZM159.021 579.989C159.04 579.991 159.303 580.021 159.303 580.1C159.302 580.208 158.953 580.098 159.021 579.989ZM-37.3242 579.795C-36.5838 579.734 -37.0014 580.283 -37.6396 580.085C-37.9245 579.978 -37.5426 579.824 -37.3242 579.795ZM106.169 579.95C106.222 580.012 106.277 580.085 106.296 580.086C106.317 580.092 106.348 580.107 106.379 580.12C106.313 580.078 106.234 580.007 106.169 579.95ZM105.673 580.082C105.667 580.082 105.662 580.082 105.656 580.082C105.84 580.11 106.041 580.138 106.093 580.003C106.037 580.003 105.981 580.002 105.925 580.002C105.858 580.029 105.74 580.055 105.673 580.082ZM14.9678 580.075C14.5495 579.752 15.4135 579.717 15.5186 579.784C15.4344 579.84 15.1521 580.142 14.9678 580.075ZM219.294 579.452C219.71 579.51 219.708 579.877 219.888 580.083C219.673 580.026 218.995 579.546 219.294 579.452ZM2.46875 579.877C2.47729 579.882 2.70357 580.023 2.65527 580.024C2.47103 580.026 2.3699 579.946 2.46875 579.877ZM-14.5127 579.594C-14.0342 579.331 -13.0522 579.267 -13.3301 579.897C-13.6135 580.159 -14.9404 579.993 -14.5127 579.594ZM106.746 579.476C107.273 579.615 106.729 580.059 107.271 579.967C106.898 580.183 106.507 579.652 106.746 579.476ZM183.347 579.782C183.465 579.756 183.53 579.877 183.513 579.959C183.446 579.904 183.38 579.85 183.347 579.782ZM251.451 579.781C251.459 579.786 251.625 579.893 251.594 579.959C251.386 579.956 251.239 579.873 251.451 579.781ZM90.8213 579.604C90.6824 579.769 90.824 580.138 90.3154 579.84C90.7353 579.852 89.721 579.471 90.8213 579.604ZM104.616 579.573C104.749 579.507 105.291 579.972 104.796 579.888C104.531 580.145 104.896 579.534 104.616 579.573ZM106.064 579.867C106.09 579.876 106.126 579.912 106.169 579.95C106.128 579.902 106.087 579.861 106.064 579.867ZM157.192 579.923C156.539 579.81 157.196 579.528 157.615 579.612C157.677 579.655 157.214 579.907 157.192 579.923ZM235.22 579.856C235.303 579.844 235.318 579.939 235.186 579.911C235.188 579.901 235.221 579.751 235.22 579.856ZM54.4111 579.901C54.4111 579.752 54.5772 579.752 54.6934 579.847C54.6837 579.851 54.5238 579.927 54.4111 579.901ZM331.267 579.327C331.721 579.042 332.363 579.756 331.872 579.877C331.415 579.984 330.814 579.612 331.267 579.327ZM-5.31348 579.885C-7.40451 579.998 -5.0395 578.941 -4.54688 579.36C-4.12422 579.793 -4.97875 579.787 -5.31348 579.885ZM303.916 579.711C303.974 579.574 304.275 579.729 304.216 579.854C304.211 579.853 303.888 579.834 303.916 579.711ZM-7.96875 579.743C-8.22005 579.432 -7.05669 579.558 -6.9209 579.652C-6.5716 579.881 -7.83278 579.919 -7.96875 579.743ZM116.298 579.181C117.59 579.242 119.492 579.755 117.396 579.812C117.667 580.032 116.094 579.194 116.298 579.181ZM107.138 579.709C107.243 579.709 107.418 579.737 107.42 579.818C107.409 579.818 107.076 579.815 107.138 579.709ZM265.63 579.144C266.174 578.97 266.97 579.043 267.492 579.496C268.135 580.222 266.004 579.502 265.63 579.144ZM1.69434 579.458C2.43096 579.398 2.01652 579.947 1.37891 579.748C1.09337 579.641 1.47666 579.487 1.69434 579.458ZM41.2812 579.552C41.4803 579.483 41.797 579.769 41.499 579.785C41.499 579.785 41.3321 579.674 41.2812 579.552ZM183.347 579.671C183.348 579.675 183.361 579.743 183.312 579.782C183.312 579.769 183.28 579.671 183.347 579.671ZM108.098 579.685C108.146 579.753 107.981 579.807 107.965 579.739C107.969 579.736 108.034 579.684 108.098 579.685ZM84.1064 579.597C84.4173 579.664 83.8308 579.856 83.9766 579.624C83.9906 579.626 84.1853 579.649 84.1064 579.597ZM-12.0625 579.342C-11.8448 579.34 -11.7088 579.544 -11.8926 579.627C-12.728 579.975 -12.6326 579.292 -12.0625 579.342ZM175.1 579.649C175.642 578.984 176.408 579.929 175.166 579.676C175.157 579.676 175.102 579.673 175.1 579.649ZM307.019 579.453C307.225 579.507 307.095 579.711 306.911 579.686C306.75 579.687 306.665 579.347 307.019 579.453ZM33.1396 579.42C33.3887 579.214 33.74 579.333 33.9414 579.522C33.6249 579.579 32.8246 579.709 33.1396 579.42ZM281.273 579.217C281.494 579.216 281.767 579.39 281.802 579.581C281.582 579.5 281.343 579.407 281.273 579.217ZM167.81 579.289C167.809 579.384 167.842 579.548 167.742 579.575C167.542 579.492 167.692 579.37 167.81 579.289ZM41.3799 579.306C41.3754 579.315 41.2804 579.514 41.248 579.541C41.1977 579.487 41.1962 579.198 41.3799 579.306ZM-26.0342 579.518C-27.3877 578.984 -25.3791 578.597 -25.2344 579.071C-22.9961 578.574 -24.8152 579.629 -26.0342 579.518ZM-32.6777 579.152C-32.2289 579.148 -32.2259 579.517 -32.6748 579.521C-33.1218 579.525 -33.125 579.157 -32.6777 579.152ZM324.246 578.443C324.427 578.485 325.862 578.38 325.744 578.476C327.635 580.147 324.848 579.36 324.246 578.443ZM11.54 579.271C11.606 579.134 11.9266 579.294 11.8623 579.417C11.8623 579.417 11.5097 579.393 11.54 579.271ZM77.2236 578.793C77.642 578.846 77.6433 579.213 77.8271 579.417C77.6109 579.363 76.9226 578.89 77.2236 578.793ZM26.9473 579.029C27.1643 579.028 27.2991 579.231 27.1162 579.314C26.2826 579.662 26.3781 578.979 26.9473 579.029ZM106.988 579.274C106.966 579.328 106.914 579.424 106.814 579.394C106.829 579.349 106.946 579.32 106.988 579.274ZM339.743 579.047C339.847 578.735 340.588 579.134 340.452 579.393C340.197 579.419 339.641 579.306 339.743 579.047ZM168.632 579.159C168.799 579.215 168.95 579.268 169.083 579.337C168.632 579.483 168.515 579.308 168.632 579.159ZM305.887 579.36C305.677 579.186 306.246 578.834 306.455 579.24C306.55 579.414 305.93 579.387 305.887 579.36ZM288.111 579.269C288.191 579.051 288.969 579.33 288.435 579.375C288.416 579.371 288.209 579.32 288.111 579.269ZM-3.55469 579.214C-3.532 579.218 -2.95308 579.321 -3.19922 579.363C-3.36775 579.392 -3.72166 579.365 -3.55469 579.214ZM61.9668 579.228C61.9346 579.364 61.6561 579.365 61.458 579.339C61.6223 579.283 61.8028 579.229 61.9668 579.228ZM314.049 579.057C312.038 578.93 313.205 578.152 314.484 578.428C314.692 579.015 314.738 579.768 314.049 579.057ZM22.5059 578.98C22.673 578.911 23.2449 579.151 22.8613 579.317C22.4943 579.401 22.3564 578.97 22.5059 578.98ZM-3.11719 579.158C-2.99911 579.171 -2.81421 579.114 -2.7627 579.182C-2.4425 579.234 -3.06282 579.374 -3.11719 579.158ZM66.2881 579.247C66.2139 579.25 66.1435 579.257 66.0869 579.269C66.1407 579.257 66.2066 579.248 66.2881 579.247ZM160.969 579.113C161.036 578.977 161.354 579.142 161.288 579.265C161.154 579.264 160.936 579.235 160.969 579.113ZM43.4307 578.802C43.5487 578.801 44.136 578.769 44.1377 578.823C45.0161 579.513 43.6703 579.155 43.4307 578.802ZM134.842 579.129C134.844 579.129 135.007 579.156 135.026 579.183C134.908 579.182 134.607 579.264 134.842 579.129ZM47.752 579.139C47.7856 579.057 47.9668 579.002 48.0342 579.137C48.0015 579.232 47.8352 579.152 47.752 579.139ZM347.003 579.133C346.433 579.13 346.302 578.323 347.291 578.56C347.81 578.698 347.473 579.162 347.003 579.133ZM93.126 579.016C93.2072 579.002 93.2228 579.098 93.0928 579.071C93.0928 579.071 93.1258 578.907 93.126 579.016ZM25.4072 579.066C25.396 579.063 25.3843 579.059 25.373 579.056C25.3843 579.046 25.396 579.035 25.4072 579.025C25.4073 579.039 25.4071 579.053 25.4072 579.066ZM-7.18066 578.468C-6.66584 578.409 -6.76186 578.777 -6.86035 578.955C-8.00768 579.251 -8.51065 578.575 -7.18066 578.468ZM48.3135 578.821C48.4621 578.807 48.546 578.904 48.6621 578.998C48.4639 579.026 48.1833 578.999 48.3135 578.821ZM53.6572 578.869C53.8065 578.868 53.8909 578.951 54.0068 578.978C53.9072 579.032 53.6917 578.977 53.6572 578.869ZM13.751 578.705C13.8681 578.704 14.2024 578.567 14.2383 578.839C14.2233 579.139 13.1516 578.914 13.751 578.705ZM306.913 578.511C307.192 578.221 308.108 578.74 307.634 578.905C307.556 578.926 307.46 578.937 307.37 578.935C307.289 578.932 307.125 578.917 307.044 578.888C306.867 578.829 306.801 578.709 306.913 578.511ZM308.453 578.42C308.641 578.409 308.797 578.423 308.751 578.545C308.649 578.858 307.915 578.697 307.786 578.438C307.932 578.465 308.214 578.431 308.453 578.42ZM-26.6357 577.596C-25.3042 577.379 -25.1265 578.471 -26.5283 578.456C-27.4396 578.463 -27.2973 577.711 -26.6357 577.596ZM-18.3154 577.81C-17.509 577.653 -17.2846 578.116 -17.6719 578.297C-18.4127 578.698 -19.9571 578.138 -18.3154 577.81ZM-29.6934 577.802C-28.7541 577.643 -28.61 578.419 -29.6885 578.347C-30.3343 578.297 -30.118 577.861 -29.6934 577.802ZM197.078 578.121C197.076 578.125 197.026 578.213 196.978 578.147C196.985 578.144 197.032 578.121 197.078 578.121ZM-4.69824 577.325C-4.95024 577.068 -4.2471 576.955 -4.12793 577.062C-3.9437 577.211 -4.41271 577.377 -4.69824 577.325ZM346.22 573.994C347.564 572.704 349.784 574.501 348.08 574.89C347.271 575.064 346.318 574.677 346.22 573.994ZM322.689 573.903C320.288 573.472 322.967 571.9 323.696 572.788C324.145 573.336 323.65 574.084 322.689 573.903ZM330.34 572.524C331.034 572.35 332.593 572.82 332.424 573.42C332.19 574.306 329.85 573.492 330.34 572.524ZM307.302 572.734C308.722 570.365 312.538 571.786 308.578 572.47C309.559 573.349 309.095 573.623 308.498 573.573C307.744 573.523 307.086 573.152 307.302 572.734ZM331.536 570.578C333.521 570.476 331.84 572.409 330.692 571.749C330.096 571.405 330.56 570.629 331.536 570.578ZM339.811 570.323C342.81 570.622 338.67 572.843 338.648 570.497C339.034 570.499 339.422 570.268 339.811 570.323ZM282.135 571.117C282.135 571.199 282.133 571.293 282.033 571.375C282.03 571.365 281.969 571.144 282.135 571.117ZM349.707 570.856C349.747 569.15 352.318 571.686 350.511 571.064C350.496 571.079 349.836 571.761 349.707 570.856ZM285.259 570.558C285.646 570.611 285.362 570.994 285.108 571.077C284.428 571.08 284.853 570.532 285.259 570.558ZM343.956 570.284C344.343 570.341 344.056 570.721 343.803 570.803C343.129 570.8 343.551 570.256 343.956 570.284ZM331.084 570.166C330.884 569.906 331.37 569.65 331.657 569.746C331.908 570.183 331.201 570.343 331.084 570.166ZM334.379 568.553C333.81 569.177 333.368 567.35 334.482 567.694C334.482 567.927 334.513 568.39 334.379 568.553ZM283.34 568.014C283.342 568.613 282.767 568.602 282.699 568.098C282.916 568.097 283.121 568.042 283.34 568.014ZM316.091 565C315.933 565.759 315.962 566.442 316.339 566.649C316.082 566.075 317.286 565.301 317.983 565.426C317.517 565.984 316.977 566.938 318.298 566.751C316.738 564.535 319.858 567.055 318.362 567.788C317.736 567.118 317.119 568.207 317.187 567.103C317.086 568.358 316.09 567.168 315.48 566.729C315.488 565.979 313.919 566.086 315.096 566.784C315.762 566.99 315.529 567.468 315.938 567.879C314.991 567.918 314.249 569.155 314.507 567.641C313.713 566.754 313.448 566.304 313.582 566.031C312.795 565.934 312.826 564.991 313.706 565.006C314.268 565.007 314.424 565.336 314.384 565.622C314.775 565.519 315.169 565.404 315.122 565H316.091ZM342.403 567.7C343.64 567.856 341.212 568.675 341.383 567.804C341.699 567.805 342.052 567.671 342.403 567.7ZM334.103 566.97C332.191 565.324 338.897 564.516 335.446 565.964C336.007 566.649 333.405 568.358 332.461 567.877C332.466 567.877 332.472 567.877 332.478 567.877C332.139 566.57 334.174 567.049 334.103 566.97ZM281.313 565.998C283.262 565.313 279.686 569.399 280.034 567.269C280.944 567.13 279.916 566.096 281.313 565.998ZM-14.8682 567.172C-13.5498 566.11 -12.9281 568.52 -14.334 567.686C-14.6832 567.608 -14.9583 568.236 -14.8682 567.172ZM362.877 567.266C362.943 567.621 361.075 568.118 361.581 567.397C361.868 567.249 362.474 567.264 362.877 567.266ZM53.252 567.513C53.2625 567.509 53.6322 567.388 53.5684 567.455C53.7372 567.849 53.1214 567.759 53.252 567.513ZM342.996 566.158C343.483 566.243 343.764 567.542 343.175 567.703C342.755 567.81 342.693 566.472 342.996 566.158ZM349.725 566.72C351.484 566.482 350.895 567.392 349.905 567.702C349.839 567.647 349.658 566.762 349.725 566.72ZM329.784 566.476C332.033 564.655 329.937 569.121 329.683 567.158C330.178 566.874 329.997 566.898 329.784 566.476ZM291.908 566.918C292.23 566.955 292.08 567.419 291.814 567.572C291.663 567.357 291.906 566.99 291.908 566.918ZM24.5312 567.387C24.0993 567.798 23.9254 566.927 24.4297 567.25C24.4354 567.255 24.5305 567.334 24.5312 567.387ZM339.607 565C338.858 565.546 339.358 565.093 340.591 565.861C340.525 566.708 336.565 568.329 338.884 566.687C336.102 565.447 336.865 565.216 337.738 565H339.607ZM-7.79492 566.852C-7.41302 566.794 -6.95876 567.338 -7.62305 567.371C-7.84001 567.291 -8.15946 566.91 -7.79492 566.852ZM295.958 566.853C296.662 566.851 296.674 567.314 296.004 567.37C295.965 567.139 296.027 566.933 295.958 566.853ZM285.69 565C286.465 565.664 288.064 566.734 286.66 567.343C286.071 567.21 284.958 567.392 284.92 566.669C286.859 565.977 286.394 566.008 284.491 565.156C284.527 565.103 284.562 565.051 284.597 565H285.69ZM356.974 566.232C357.427 566.235 357.422 567.285 356.969 567.27C356.516 567.267 356.521 566.217 356.974 566.232ZM295.855 566.854C295.753 566.995 295.354 567.462 295.244 567.125C295.38 566.986 295.596 566.887 295.855 566.854ZM353.352 566.217C355.046 565.897 354.653 567.435 353.312 567.184C353.029 567.004 353.167 566.271 353.352 566.217ZM360.228 566.791C358.312 568.025 358.173 565.049 360.08 565.903C360.846 566.521 360.574 567.883 360.228 566.791ZM355.699 566.253C356.661 564.879 356.302 566.256 355.981 566.65C355.371 568.039 353.218 566.311 355.699 566.253ZM173.585 567.104C172.768 566.663 174.025 566.317 173.686 567.052C173.685 567.079 173.667 567.118 173.585 567.104ZM244.946 566.67C245.128 566.754 245.289 566.879 245.189 567.068C244.893 567.078 244.927 566.861 244.946 566.67ZM344.573 565C344.796 565.385 345.185 565.955 345.813 566.785C343.967 567.391 343.477 566.938 343.468 566.134C343.013 566.091 342.562 565.882 342.897 565.651C342.911 565.651 343.206 565.653 343.502 565.694C343.531 565.473 343.581 565.238 343.633 565H344.573ZM31.2197 566.543C31.5033 566.446 31.5248 566.923 31.3926 567.034C31.0233 566.887 31.1028 566.558 31.2197 566.543ZM25.3799 566.669C25.3839 566.676 25.4822 566.85 25.4834 567.011C25.1986 566.863 25.2305 566.752 25.3799 566.669ZM284.062 567C284.026 566.413 284.414 566.276 284.617 566.89C284.467 566.972 284.114 567.027 284.062 567ZM266.889 566.467C266.887 566.726 266.884 567.012 266.399 566.9C266.437 566.696 266.584 566.506 266.889 566.467ZM-26.1465 565C-25.894 565.722 -24.0994 567.056 -25.6982 566.404C-26.8219 566.209 -27.4808 566.42 -27.9717 566.82C-27.5091 566.213 -27.0429 565.607 -26.5752 565H-26.1465ZM128.479 566.383C128.58 566.383 128.883 566.795 128.578 566.779C128.571 566.771 128.412 566.569 128.479 566.383ZM4.5127 566.246C4.79837 566.135 5.28843 566.389 5.08887 566.663C4.95487 566.841 4.21294 566.672 4.5127 566.246ZM361.136 565.198C361.995 565.202 360.88 566.316 361.13 566.687C360.512 566.9 361.084 565.038 361.136 565.198ZM321.471 566.556C320.917 566.069 322.226 565.205 322.635 565.735C322.401 565.803 322.173 565.885 322.099 566.065C322.102 566.066 322.17 566.08 322.221 566.08C322.45 566.081 322.615 566.017 322.723 565.927C322.853 566.46 321.592 566.679 321.471 566.556ZM311.129 565.562C312.071 565.235 314.198 566.015 312.36 566.559C311.889 566.217 310.543 565.998 311.129 565.562ZM325.679 565C325.551 565.33 325.404 565.582 325.205 565.653C325.367 567.741 323.735 565.223 322.62 565.41C322.588 565.226 322.578 565.093 322.585 565H325.679ZM284.141 565.934C284.142 565.934 284.693 565.892 284.949 566.013C285.712 566.76 283.537 566.386 284.141 565.934ZM279.897 565.415C280.806 565.414 280.757 566.438 279.865 566.426C279.04 566.413 278.837 565.307 279.897 565.415ZM64.248 566.324C63.8766 566.324 63.4982 565.006 64.1094 565.385C63.9424 565.699 64.3291 565.819 64.248 566.324ZM284.092 565C284.159 565.124 284.231 565.263 284.309 565.414C283.974 567.04 282.171 566.012 283.467 565.57C283.46 565.346 283.458 565.157 283.462 565H284.092ZM102.609 565.745C102.793 565.828 102.961 565.951 102.859 566.142C102.558 566.153 102.592 565.936 102.609 565.745ZM342.469 565C342.414 565.29 342.255 565.625 341.908 566.017C340.429 566.178 340.699 565.547 340.989 565H342.469ZM282.339 565.559C282.707 565.053 282.71 566.007 282.306 565.954C282.288 565.845 282.238 565.668 282.339 565.559ZM287.251 565C287.161 565.195 286.829 565.842 287.666 565.904C287.29 565.975 286.69 565.678 286.818 565.391C287.02 565.185 287.14 565.063 287.205 565H287.251ZM287.974 565C288.692 565.353 287.685 566.218 287.627 565.233C287.632 565.209 287.866 565.181 287.853 565H287.974ZM346.957 565C346.97 565.042 346.978 565.088 346.977 565.138C346.971 565.805 345.552 565.799 345.57 565.132C345.57 565.085 345.578 565.041 345.592 565H346.957ZM333.742 565C333.15 565.78 330.143 564.378 329.26 565.463C329.197 565.297 329.08 565.145 328.941 565H333.742ZM275.216 565C275.253 565.413 274.881 565.273 274.698 565H275.216ZM2.29883 565C2.19904 565.223 1.99947 565.347 1.77832 565.108C1.75391 565.082 1.73747 565.044 1.72266 565H2.29883ZM281.149 565C280.978 565.229 280.672 565.304 280.049 565.071C280.066 565.047 280.081 565.023 280.098 565H281.149ZM317.95 565C317.897 565.05 317.867 565.113 317.865 565.194C317.691 565.158 317.57 565.09 317.488 565H317.95ZM320.856 565C320.694 565.066 320.534 565.126 320.37 565.172C320.409 565.119 320.434 565.061 320.451 565H320.856ZM242.131 565.042C242.05 565.033 241.987 565.017 241.938 565H242.133C242.132 565.014 242.131 565.029 242.131 565.042Z" fill="var(--fill-0, #111E32)"/>
<g id="Highlight 8">
<path id="Vector 413" d="M336.071 60C338.159 67.148 341.083 83.7237 336.071 92.843" stroke="var(--stroke-0, #F9F1E5)" stroke-width="2.76767" stroke-linecap="round"/>
<path id="Vector 414" d="M325 78.2666C331.118 76.7152 345.81 73.8938 355.629 75.0195" stroke="var(--stroke-0, #F9F1E5)" stroke-width="2.76767" stroke-linecap="round"/>
<path id="Vector 415" d="M345.296 61.2916C342.012 69.2191 334.13 85.7054 328.875 88.2302" stroke="var(--stroke-0, #F9F1E5)" stroke-width="2.76767" stroke-linecap="round"/>
<path id="Vector 416" d="M328.137 67.0114C332.048 69.1986 340.661 75.3605 343.82 82.5104" stroke="var(--stroke-0, #F9F1E5)" stroke-width="2.76767" stroke-linecap="round"/>
</g>
<g id="Highlight 7">
<path id="Vector 270" d="M325.1 113C325.1 113 322.517 124.993 325.1 143.998" stroke="var(--stroke-0, #F9F1E5)" stroke-width="2.95218" stroke-linecap="round"/>
<path id="Vector 271" d="M314.398 129.698C322.148 130.102 331.65 129.698 331.65 129.698" stroke="var(--stroke-0, #F9F1E5)" stroke-width="2.95218" stroke-linecap="round"/>
<path id="Vector 272" d="M315.719 138.264C325.169 132.402 329.124 120.33 329.124 120.33" stroke="var(--stroke-0, #F9F1E5)" stroke-width="2.95218" stroke-linecap="round"/>
<path id="Vector 273" d="M310 117.972C320.601 120.976 330.498 138.881 330.498 138.881" stroke="var(--stroke-0, #F9F1E5)" stroke-width="2.95218" stroke-linecap="round"/>
</g>
<path id="Highlight 27" d="M23.225 108.47C23.225 108.47 37.1792 91.1 38.9996 91.7353C40.8199 92.3706 40.861 112.813 42.4354 113.362C44.0098 113.911 59.7618 98.9809 62.1726 99.8222C64.5833 100.663 62.5532 115.495 64.1919 116.177C65.8305 116.859 82.8364 107.033 85.0504 107.806C87.2643 108.579 89.8064 126.599 89.8064 126.599" stroke="var(--stroke-0, #F9F1E5)" stroke-width="2.73885" stroke-linecap="round"/>
<g id="Highlight 12">
<path id="Vector 317" d="M255.414 557.901C245.708 551.933 236.6 550.827 233.259 551.02" stroke="var(--stroke-0, #F9F1E5)" stroke-width="3.56989" stroke-linecap="round"/>
<path id="Vector 319" d="M249.422 571.521C237.408 563.983 226.135 562.586 222 562.829" stroke="var(--stroke-0, #F9F1E5)" stroke-width="3.56989" stroke-linecap="round"/>
<path id="Vector 318" d="M251.964 563.712C246.713 559.786 241.786 559.058 239.978 559.185" stroke="var(--stroke-0, #F9F1E5)" stroke-width="3.56989" stroke-linecap="round"/>
</g>
</g>
<defs>
<clipPath id="clip0_0_11">
<rect width="375" height="812" fill="white"/>
</clipPath>
</defs>
</svg>
