<svg preserveAspectRatio="none" width="100%" height="100%" overflow="visible" style="display: block;" viewBox="0 0 271.922 102.908" fill="none" xmlns="http://www.w3.org/2000/svg">
<path id="Vector 417" d="M67.2389 67.4672C67.6268 67.3751 69.2276 67.5367 69.9309 67.4846C69.1439 68.3774 65.8291 67.8018 67.2389 67.4672ZM136.564 2.32389C135.996 2.55402 135.427 2.78416 134.858 3.01432C136.499 3.1137 138.668 2.90102 140.194 3.06784C140.443 3.09604 139.816 3.73698 140.403 3.75022C140.99 3.76328 140.856 2.91217 141.705 2.79954C142.648 2.67603 147.052 3.161 148.549 3.10894C154.213 2.90911 159.913 2.27748 165.595 2.48822C159.743 3.26867 165.684 3.76159 167.299 3.44656C167.666 3.37371 167.564 1.78811 173.456 2.03773C177.153 2.19695 173.827 4.55338 179.998 3.25715C175.176 1.79226 179.899 1.78258 183.63 1.63322C184.177 1.61138 187.851 1.67726 190.362 1.62859C190.916 1.61771 191.412 1.60175 191.815 1.57873C192.614 1.53308 193.727 0.671122 194.806 0.61974C195.527 0.585575 196.083 1.02523 197.116 0.973127C202.092 0.730795 206.905 0.550268 211.834 0.533226C209.007 2.76968 214.099 1.36638 214.344 1.45762C215.532 1.99636 210.26 2.34882 212.362 2.63784C215.278 2.46922 218.182 2.29274 221.026 2.1027C218.691 1.9418 224.056 0.169117 225.05 0.812349C224.794 0.0106792 227.2 0.088377 229.904 0.34112C232.715 0.592037 235.181 1.02003 237.45 0.905954C237.805 0.890614 238.119 0.865829 238.421 0.825731C238.606 0.802374 238.624 0.791088 239.083 0.731926C239.121 0.727417 239.136 0.725021 239.26 0.712425C239.377 0.701004 239.501 0.687471 239.853 0.660021C239.944 0.653061 240.053 0.645067 240.201 0.635611C240.275 0.630886 240.359 0.62579 240.459 0.620325C240.509 0.617594 240.563 0.614775 240.622 0.611879C240.637 0.611156 240.652 0.610428 240.667 0.609695C240.697 0.608236 240.838 0.601963 240.946 0.59804C241.184 0.589598 241.478 0.579695 241.959 0.578049C242.464 0.582167 243.057 0.567068 244.519 0.683939C245.284 0.756599 246.237 0.830864 248.082 1.21019C250.044 1.8396 252.5 1.53298 259.676 6.49125C263.06 9.0367 268.786 14.5749 270.742 24.0971C272.779 33.6519 269.048 42.5518 266.09 46.5609C259.797 54.7119 256.861 54.8814 254.972 56.1353C251.373 57.8182 250.592 57.8375 249.696 58.1296C248.179 58.5285 247.823 58.5675 247.427 58.6494C247.074 58.7153 246.882 58.7466 246.726 58.7723C246.53 58.804 246.579 58.7958 246.553 58.8C246.54 58.8022 246.526 58.8043 246.514 58.8064C246.488 58.8105 246.464 58.8143 246.442 58.8178C246.264 58.8458 246.164 58.8608 246.081 58.8734C245.751 58.9228 245.768 58.9234 245.69 58.9381C245.562 58.9632 245.509 58.9796 245.454 58.9976C245.299 59.0504 245.424 59.119 245.642 59.1918C245.714 59.2077 245.768 59.2269 245.89 59.2374C245.983 59.2381 246.092 59.2371 246.292 59.2216C246.342 59.2176 246.4 59.2125 246.467 59.2057C246.501 59.2023 246.537 59.1984 246.577 59.194C246.597 59.1917 246.617 59.1894 246.639 59.1868C246.772 59.1661 247.017 59.1304 247.543 59.0327C247.825 58.9786 248.167 58.9161 248.884 58.7483C249.252 58.66 249.709 58.5499 250.475 58.3242C251.282 58.0661 252.227 57.8426 254.651 56.7348C255.904 56.1137 257.541 55.3993 260.478 53.1238C263.002 50.7717 269.281 46.7179 271.482 33.5973C272.408 27.2238 270.63 19.7482 267.682 14.9209C264.783 10.0076 261.525 7.30999 259.127 5.59368C254.205 2.27882 251.716 1.81993 249.871 1.23007C246.362 0.327457 245.253 0.368879 244.232 0.256744C243.287 0.188354 242.756 0.181911 242.327 0.175741C241.501 0.169218 241.13 0.186935 240.821 0.197517C240.636 0.205046 240.639 0.205124 240.616 0.205919C240.595 0.206701 240.575 0.207474 240.555 0.208233C240.477 0.211273 240.409 0.214119 240.347 0.216755C240.104 0.227314 239.959 0.234455 239.842 0.239594C239.409 0.258892 239.335 0.254595 239.242 0.249308C239.164 0.243221 239.135 0.232756 239.133 0.219753C239.134 0.206543 239.158 0.191074 239.252 0.169462C239.302 0.158485 239.367 0.146055 239.497 0.128687C239.649 0.110769 239.762 0.0899239 240.415 0.0463142C240.458 0.0435715 240.505 0.0407333 240.557 0.0378132C240.583 0.0363522 240.609 0.0348721 240.638 0.0333691C240.71 0.0297451 240.963 0.0182838 241.223 0.0112782C241.501 0.00415611 241.844 -0.00423622 242.421 0.00243759C243.03 0.019062 243.73 0.0027523 245.585 0.211761C246.563 0.343822 247.776 0.463549 250.278 1.16072C252.734 2.30404 257.038 1.80984 265.589 11.5098C269.709 16.3161 273.165 26.4772 271.491 34.76C270.012 43.0649 266.213 47.6597 263.797 50.3119C258.679 55.4298 256.396 55.9608 254.725 56.8975C251.58 58.3131 250.736 58.4118 249.882 58.68C249.109 58.8892 248.685 58.9811 248.344 59.0564C247.685 59.1976 247.395 59.2463 247.152 59.2901C246.925 59.3301 246.752 59.3579 246.669 59.3715C246.654 59.3741 246.641 59.3767 246.627 59.3792C246.518 59.3992 246.432 59.4152 246.357 59.4292C246.21 59.4569 246.109 59.4767 246.025 59.4941C245.827 59.5326 245.838 59.5423 245.756 59.564C245.603 59.6056 245.549 59.6328 245.415 59.6677C245.218 59.7285 244.943 59.7898 244.592 59.847C243.89 59.9616 242.805 60.0697 241.094 60.166C240.369 60.2044 240.576 59.6058 240.191 59.7052C239.978 59.7628 238.785 61.7287 237.201 60.9088C236.622 60.6094 239.934 59.019 232.417 60.3917C234.062 61.1591 231.27 61.7249 227.747 62.08C224.532 62.403 220.74 62.5385 219.517 62.4596C220.049 62.6459 220.574 62.8331 221.092 63.0212C218.556 62.6489 218.204 63.3219 217.642 63.3542C215.409 63.481 212.253 63.2201 210.208 63.522C207.784 63.8778 207.911 65.0171 205.045 64.9108C205.747 65.0815 206.43 65.2547 207.142 65.4244C205.186 65.5966 203.233 65.7691 201.271 65.9432C205.612 63.8941 200.277 65.9894 199.934 66.0637C199.365 66.1878 200.118 65.4714 199.164 65.6641C199.066 65.6887 199.279 66.2523 197.798 66.4967C194.718 67.004 195.111 66.2159 193.814 66.3809C193.695 66.3992 194.178 66.8714 191.939 67.268C184.838 68.5294 191.932 66.8616 192.191 66.7573C192.538 66.6187 189.826 64.7269 195.996 64.7688C193.916 64.7692 193.606 63.825 193.371 63.829C193.163 63.8339 189.648 64.3979 189.455 64.4553C187.756 64.9951 189.365 65.4707 189.041 65.6303C188.779 65.7587 184.417 65.4154 183.663 67.5264C181.403 65.9411 184.628 65.7163 188.011 65.019C188.464 64.5817 184.667 64.6725 184.472 64.6976C179.636 65.2922 182.499 66.4738 181.56 67.5677C181.067 68.1403 178.972 67.3527 180.955 68.4824C176.588 69.164 179.151 68.0534 178.854 67.9721C178.405 67.8542 176.921 68.4307 176.721 68.403C176.43 68.3613 177.352 67.7719 176.22 67.7442C176.032 67.7431 174.342 68.7702 176.698 68.8703C173.6 69.1367 173.941 69.7928 172.723 68.5377C170.928 71.4213 170.993 67.1802 170.137 67.1379C167.865 67.0285 168.77 69.0047 168.664 69.1197C167.931 69.863 161.714 69.9286 160.227 70.4208C160.634 68.8632 165.093 69.787 166.007 69.3809C169.068 68.0244 161.428 69.2057 163.504 67.0533C162.6 67.6868 161.7 68.3202 160.793 68.9549C158.866 67.9849 161.324 67.1394 156.603 68.1888C155.951 69.3217 159.959 67.593 159.228 68.5135C158.785 69.0548 156.053 69.5096 156.021 69.7699C156.015 70.0784 158.45 69.4008 158.121 69.9168C157.399 71.0281 148.164 71.2544 155.021 69.8067C153.109 70.0714 151.834 68.2042 150.247 69.0459C149.225 69.5926 155.652 71.5518 146.484 72.2488C146.156 71.3312 150.081 71.488 150.172 71.404C150.298 71.281 149.322 69.2422 149.189 69.1528C148.883 68.9479 144.325 70.0357 140.941 70.4548C139.421 70.6428 138.171 70.6948 137.523 70.4537C138.471 71.5681 130.65 71.6606 129.905 72.1666C129.701 72.303 130.636 72.9315 130.413 73.0465C129.026 73.7359 124.895 73.0048 123.132 73.2659C121.135 73.5584 121.506 74.1661 121.394 74.1831C120.534 74.294 121.137 73.7379 120.623 73.8283C119.774 73.9608 114.564 74.8554 114.403 75.0046C114.34 75.0474 115.278 75.6188 114.259 75.9763C114.102 76.0426 113.925 75.1345 111.125 76.1901C107.843 77.4805 113.751 76.6924 112.549 77.9477C110.056 77.173 110.474 78.4459 109.856 78.4971C109.707 78.5108 108.891 78.2026 107.653 78.2279C107.153 78.2073 106.585 78.2607 106.024 78.455C106.539 78.2163 107.042 77.9861 107.523 77.7675C108.304 77.4407 108.972 77.1505 109.62 76.8744C109.073 76.9281 108.318 77.1335 107.418 77.3957C106.515 77.6592 105.547 77.9748 104.941 78.0353C104.409 78.0892 104.55 77.0794 103.448 77.4582C103.196 77.5549 103.005 79.9478 105.533 78.106C105.993 78.7995 104.503 78.7145 103.928 79.14C103.838 79.2067 103.882 80.5931 102.788 80.083C102.496 79.9787 103.56 75.4615 98.6272 80.1666C98.4674 80.3197 99.293 80.5437 99.1404 80.7052C99.0376 80.8129 97.4599 81.1699 97.3134 81.2981C97.1676 81.4299 98.0811 81.6648 97.9128 81.8373C97.052 82.7231 94.9347 81.2521 97.1701 80.6061C96.3523 80.6254 95.5292 80.6502 94.7034 80.679C96.0453 81.8776 93.7053 81.5266 92.6869 81.9674C86.1455 84.8147 90.9763 84.0686 90.0263 85.0073C88.4868 86.5309 88.9198 83.4349 86.4497 85.2875C86.2189 85.4646 90.0098 85.1936 83.2011 87.206C84.1551 86.7749 85.1122 86.3446 86.0618 85.9197C84.9377 84.708 82.597 87.4152 82.374 87.5296C79.8514 88.7748 81.4089 87.5444 77.8248 89.8554C77.5022 90.0635 76.6049 90.019 75.928 90.5001C73.1357 92.4831 80.1819 89.2758 80.5976 89.7846C80.8185 90.0188 73.0927 93.0884 72.7586 93.0728C71.3869 92.9404 76.1588 91.3737 74.973 90.9977C74.8205 90.9522 73.3844 91.5477 71.4726 92.3739C66.8435 94.3864 60.4893 96.661 58.6946 96.9981C55.4585 97.6317 53.5382 95.9982 54.17 98.26C52.6695 96.3007 52.3611 98.0209 51.97 98.1152C47.3012 99.1985 47.303 99.1583 43.5567 100.365C42.7354 100.626 41.8663 100.128 41.6057 100.316C41.4545 100.428 41.954 101.072 41.1841 101.506C40.4251 101.929 36.7736 102.527 34.5616 102.728C35.0723 102.59 35.726 102.421 36.9463 101.995C37.2548 101.886 37.6033 101.757 38.0112 101.595C38.2152 101.514 38.4343 101.425 38.6718 101.324C38.7906 101.273 38.9141 101.22 39.0427 101.163C39.107 101.134 39.1726 101.105 39.2396 101.075C39.2822 101.056 39.2764 101.058 39.3685 101.017C39.4764 100.968 39.5879 100.916 39.7032 100.862C41.5575 99.7476 44.3062 99.3779 50.2355 92.5274C53.0103 89.0948 56.9993 82.1582 56.6028 72.9434C56.5398 63.9019 50.3576 55.5918 48.9513 54.3616C44.1514 49.3062 40.8255 48.0887 38.6201 47.0568C36.3886 46.1313 35.0149 45.7965 33.9363 45.5338C32.87 45.2861 32.13 45.1662 31.5286 45.077C31.2165 45.0324 31.025 45.0089 30.8088 44.9835C29.9839 44.8888 29.4708 44.8595 29.0652 44.839C28.6659 44.82 28.3701 44.8159 28.2544 44.8172C28.1027 44.8175 27.9784 44.8199 27.8725 44.8232C27.665 44.8298 27.5098 44.8399 27.4292 44.8498C27.123 44.8904 27.1322 44.9302 27.1421 44.9657C27.1956 45.0368 27.3331 45.1002 27.3777 45.1598C27.4962 45.2909 27.289 45.3676 27.1812 45.4234C27.1411 45.4516 27.0927 45.4714 27.4401 45.4934C27.5388 45.4991 27.7121 45.5052 27.9522 45.5163C28.0741 45.5219 28.2168 45.5288 28.3899 45.5385C28.6401 45.5511 28.9947 45.57 29.4826 45.6111C29.7292 45.6321 30.0146 45.659 30.362 45.6988C30.5359 45.7188 30.7256 45.7421 30.9356 45.7705C31.1826 45.8059 31.2241 45.8043 32.0088 45.9344C33.4006 46.2498 35.0367 46.2584 39.7809 48.4472C42.1359 49.7037 45.8229 51.4191 50.2481 57.19C53.5838 61.3046 56.8413 70.294 55.5931 77.9101C54.5319 85.6046 51.0624 90.3942 48.6949 93.1259C43.6922 98.458 41.2595 99.0687 39.5605 100.039C39.3568 100.136 39.1288 100.241 38.9866 100.305C38.9268 100.332 38.8682 100.358 38.8107 100.383C38.6957 100.434 38.585 100.482 38.4783 100.527C38.265 100.618 38.0674 100.699 37.8826 100.772C37.1454 101.065 36.605 101.249 36.1591 101.393C35.2765 101.676 34.7584 101.804 34.3526 101.903C34.7132 101.728 34.9217 101.546 34.6696 101.374C34.5265 101.406 34.3844 101.439 34.2432 101.472C34.8374 101.311 35.5707 101.15 37.3342 100.485C37.5593 100.398 37.8043 100.301 38.0752 100.187C38.2106 100.131 38.3525 100.07 38.5019 100.005C38.6864 99.9216 38.6596 99.9423 39.3607 99.6111C40.4895 99.0525 41.952 98.3496 44.285 96.595C46.4858 94.7464 50.3686 92.0479 53.5828 84.0414C57.327 76.2437 54.2364 61.9954 49.6865 57.2378C46.8418 53.5134 44.1855 51.6259 42.187 50.3402C38.1531 47.8936 36.0947 47.4652 34.5494 46.9924C33.0364 46.5889 32.1157 46.4437 31.3853 46.3304C30.9748 46.2699 30.7776 46.2461 30.524 46.216C30.05 46.1609 29.6899 46.1302 29.3896 46.1077C28.8174 46.065 28.3495 46.0513 28.2304 46.0481C27.853 46.038 27.6351 46.0389 27.4817 46.0397C27.3631 46.0406 27.2966 46.042 27.2481 46.0429C27.0825 46.047 27.2231 46.0415 27.3533 46.0314C27.6518 46.0103 28.1096 45.9713 28.576 45.9296C29.5209 45.8456 30.5723 45.749 31.6643 45.6982C32.6247 45.6551 32.1773 46.1667 32.5964 46.1431C32.7567 46.1389 36.1321 45.438 35.9831 45.2729C35.7845 45.0852 33.0577 45.2857 30.7997 45.3679C28.4897 45.4565 27.1072 45.3851 28.1351 44.91C28.5272 44.7275 30.3812 45.6936 30.0026 44.3848C39.1285 43.9987 48.9614 43.3367 58.5584 42.6454C58.5751 42.6442 58.5919 42.6429 58.6086 42.6416C58.5922 42.6462 58.5758 42.6507 58.5594 42.6552C53.1377 44.209 46.8363 43.9438 41.1168 44.5591C40.3214 44.6444 37.6667 44.7512 38.0419 45.3934C42.9255 45.1402 49.0159 44.2019 53.7866 44.1593C53.9393 44.1585 53.4451 44.8163 54.021 44.8545C54.9659 44.9149 57.5768 43.9355 58.6775 43.7879C58.8601 43.7638 58.9996 43.761 59.0857 43.7864C59.1205 43.8016 58.9462 43.9133 58.7073 44.0737C58.2234 44.4151 57.4883 44.975 57.9318 45.2766C58.3081 45.5322 58.6061 45.5824 58.8566 45.5057C59.7543 45.2383 60.0595 43.4751 61.1271 43.3928C62.2728 43.3018 69.2326 44.0112 70.5319 42.9554C72.0877 41.8408 65.8445 42.9251 66.1636 42.1092C70.1827 41.0044 73.7424 41.1715 77.6472 40.6497C78.1053 40.5881 78.5608 40.5219 79.0131 40.449C79.0992 40.4345 78.267 39.9447 79.3463 39.7081C81.2133 39.3012 81.8194 40.0838 82.7496 40.0992C83.7523 40.1104 87.2022 39.5655 87.6939 39.8244C87.7569 39.8579 87.1588 40.7797 87.0565 40.816C85.5957 41.3415 84.9305 40.3209 84.7891 40.3239C84.2669 40.3471 83.8132 40.8284 83.3408 40.864C82.5578 40.9231 82.0812 40.593 81.0472 40.6977C80.3321 40.7694 81.1189 41.4158 80.4301 41.4754C80.2465 41.4884 78.5749 40.775 77.716 41.1225C77.4537 41.2384 77.2886 41.4841 77.2971 41.9399C77.2988 41.9954 77.4889 42.0255 77.8481 42.0309C81.5826 41.8873 99.3905 40.4839 101.265 40.0017C99.3962 39.957 97.5235 39.9224 95.6436 39.8993C99.465 40.026 103.857 38.2629 104.347 40.2881C114.357 39.586 124.27 39.1347 134.368 38.9588C137.433 38.9269 141.522 38.72 145.634 38.6775C148.185 38.7956 146.852 40.1376 150.932 39.6925C149.873 39.285 148.808 38.8803 147.724 38.48C148.554 38.5777 150.449 38.7019 152.536 38.8141C155.79 38.9916 159.506 39.1256 160.389 38.9535C160.579 38.9169 160.831 37.7185 163.062 37.6057C165.037 37.5064 165.361 38.4019 166.413 38.5696C167.303 38.7079 168.292 38.4697 168.557 38.5183C168.758 38.5572 168.839 39.1051 169.324 39.1991C170.856 39.4896 169.61 37.9502 171.134 39.7177C170.765 39.7864 170.395 39.8552 170.026 39.9239C171.873 40.1744 174.394 40.9716 171.679 41.3769C171.212 41.4468 171.612 40.9153 171.263 40.9173C157.596 41.0642 168.523 42.0539 173.296 41.217C174.528 41.9991 181.392 41.4989 181.618 41.6526C181.935 41.8759 180.767 42.5078 182.302 43.045C182.636 43.1609 191.767 42.6812 188.479 43.7402C187.807 43.9595 183.419 43.75 182.359 43.7839C184.855 45.4424 190.677 43.0299 191.314 43.0854C193.935 43.3293 186.279 44.5582 192.195 44.7168C192.339 44.7206 192.472 44.7231 192.595 44.7245C196.452 44.7625 192.522 43.7366 194.196 43.2634C195.189 42.9941 200.199 44.1497 200.01 42.5595C201.654 42.355 200.709 43.2151 200.914 43.2713C201.17 43.3246 204.099 42.7561 205.339 43.0257C205.483 43.0609 205.074 43.9046 205.223 43.9655C205.342 44.01 206.061 43.9745 206.92 43.9175C208.052 43.8415 209.29 43.7376 209.373 43.6956C209.468 43.6442 208.564 42.9473 208.922 42.762C209.349 42.5413 212.89 42.6427 213.077 42.4395C213.352 42.1164 208.984 42.4078 209.688 41.5888C211.73 41.7361 214.983 41.166 216.317 40.5184C215.992 40.703 214.038 40.7396 213.359 40.6838C213.664 39.49 217.877 39.4957 216.44 40.4348C217.35 39.9323 216.731 39.6654 217.245 39.1918C217.381 39.0712 218.683 39.0526 218.936 38.8507C218.972 38.8095 217.625 38.3557 217.896 38.1172C218.385 37.678 222.364 37.828 222.69 37.9561C223.6 38.2963 220.346 38.6239 220.075 39.1244C220.037 39.1974 222.765 40.2208 222.804 40.3113C222.942 41.237 219.914 40.5182 220.25 41.3597C220.997 41.5454 221.744 41.7342 222.491 41.9261C219.58 42.6955 214.279 42.2711 212.919 43.2601C217.164 42.9113 221.627 43.0268 221.576 45.1908C221.554 46.1002 219.73 46.608 219.8 46.8418C220.055 47.6705 222.585 46.8134 222.68 46.8622C222.756 46.9144 222.79 46.9643 222.789 47.0122C222.789 47.0122 222.789 47.0122 222.789 47.0122C222.773 47.4917 219.189 47.7841 219.011 48.0101C218.71 48.4004 220.275 50.0366 220.266 50.3959C220.209 50.4644 217.688 50.8271 218.534 51.4593C219.385 52.0941 221.576 52.1413 221.653 52.2102C222.061 52.5904 218.23 52.8843 218.118 53.1136C218.057 53.2244 220.1 53.9357 220.155 54.1377C220.202 54.3375 218.647 54.7565 218.035 55.3859C217.579 55.8522 218.897 56.2196 218.664 56.2919C218.497 56.3336 214.935 56.3244 214.759 56.4138C214.499 56.5374 215.336 57.0926 215.215 57.2335C215.047 57.4353 213.896 57.2424 214.048 57.4487C214.17 57.5933 218.596 59.5217 218.556 60.0459C218.496 60.9204 213.864 58.889 218.168 62.3718C218.197 62.3943 219.248 62.1557 219.276 62.1779C219.912 62.8243 216.563 63.7698 220.647 63.6457C213.053 64.6904 219.694 64.9538 218.559 66.4272C218.123 66.9892 215.22 67.2248 215.208 67.3139C215.494 68.0346 216.415 67.4717 216.729 67.8266C216.9 68.022 214.317 68.7964 214.903 69.2905C215.206 69.5404 217.937 69.4493 218.05 69.5033C219.128 69.9805 217.8 70.4787 218.036 70.8144C218.191 71.0379 219.831 71.0711 219.872 71.1133C219.94 71.196 217.709 72.0807 217.249 72.4006C216.899 72.6441 218.212 73.0324 217.967 73.1384C216.495 73.7655 213.37 72.1578 216.384 74.4263C216.566 74.5653 217.702 74.5113 217.734 74.5399C218.43 75.1889 216.347 75.2374 215.977 75.77C215.344 76.6825 218.319 76.1713 215.845 76.8154C217.701 77.4085 218.729 77.3876 220.892 77.2561C214.882 77.6488 212.832 80.0405 219.408 80.0005C217.314 79.9437 217.541 81.2833 216.92 81.3042C216.534 81.312 213.502 80.008 214.907 82.9708C215.082 83.3392 216.904 82.8632 216.334 83.6246C211.966 83.4537 216.245 84.1046 216.246 84.2088C216.228 85.3115 211.921 85.1559 208.498 85.0725C206.607 85.0234 203.996 84.9869 203.247 85.0751C200.7 85.3795 198.606 86.7813 198.081 86.7913C196.365 86.8135 197.785 86.0951 197.396 85.8424C197.104 85.6566 194.361 86.3839 192.888 86.7293C192.403 86.8471 192.043 86.9218 191.982 86.9034C191.066 86.613 191.985 85.7772 191.891 85.7358C190.752 85.2365 184.413 85.9134 182.654 85.7251C182.712 86.2637 186.256 86.2937 184.047 87.1666C181.467 88.1841 181.317 85.8101 181.247 85.7059C171.784 85.7564 162.279 85.7829 153.021 85.8874C150.776 85.9151 148.559 85.9533 146.425 86.0145C146.533 86.9876 150.913 86.5401 153.026 86.3959C153.611 86.3528 154.035 86.3306 154.067 86.3673C154.291 86.5803 153.841 86.7512 153.031 86.8849C149.978 87.3406 142.616 87.4614 141.328 87.2016C142.53 87.4199 143.624 87.6467 144.729 87.8824C143.175 89.2489 139.199 88.0117 135.783 88.3307C135.521 88.3596 135.267 88.4037 135.022 88.4668C134.2 88.6795 135.566 89.1112 135.809 89.2247C135.842 89.2369 135.858 89.2453 135.854 89.2492C135.84 89.2564 135.825 89.2635 135.81 89.2704C134.807 89.8322 133.195 89.4532 134.385 88.6656C131.895 89.4747 132.238 88.6633 130.294 88.6799C130.196 88.6816 131.045 89.2324 129.529 89.5389C128.814 89.6788 124.979 89.8644 124.49 90.4069C124.295 90.6326 126.345 92.8031 126.492 90.8388C130.698 91.597 127.776 89.886 129.403 89.8585C129.649 89.8611 129.136 90.9627 133.165 90.3006C132.47 92.2885 127.743 91.0116 126.943 91.2945C125.315 91.8577 132.164 92.5647 133.348 91.0019C132.817 92.5581 133.836 91.19 135.348 91.2078C135.557 91.2102 135.726 91.2203 135.866 91.2358C137.028 91.3353 136.504 91.7006 137.438 91.6712C140.327 91.5732 139.138 90.5319 141.367 91.4118C139.232 88.4795 144.811 90.8506 146.238 91.6201C143.786 91.8372 141.536 92.1149 138.388 92.3955C138.567 92.5476 138.749 92.6995 138.928 92.8512C138.13 92.8612 137.309 92.8685 136.497 92.8711C136.625 92.7148 136.751 92.5584 136.875 92.4019C136.529 92.4951 136.214 92.5722 135.906 92.636C133.139 93.3276 132.361 92.4256 132.098 92.4225C128.429 92.4291 124.165 92.6494 120.436 92.872C119.875 92.9081 120.322 93.8612 116.197 93.3596C114.882 93.2028 116.055 92.3484 114.588 92.5677C112.898 94.7887 112.813 93.1226 112.264 93.1608C110.693 93.2804 109.777 93.8764 109.634 93.8932C107.706 94.1294 104.874 94.2905 102.774 94.5706C102.735 94.5822 103.892 95.1179 102.506 95.0593C102.027 95.0356 97.4228 92.7255 93.795 94.0601C94.7849 94.1299 95.7755 94.2037 96.7697 94.2808C95.5717 94.1272 87.7518 95.8092 89.7839 96.2966C91.0069 96.5856 93.6959 94.4753 94.215 96.131C93.006 96.0423 89.424 96.4991 85.8526 97.0854C80.6833 97.938 74.799 98.7284 74.1116 98.5741C73.9199 98.5382 74.9991 97.8661 74.7359 97.8234C74.5013 97.7994 70.6972 98.3236 70.2284 98.1553C69.9237 98.0594 71.5157 97.5584 71.3674 97.3732C71.1988 97.2487 66.688 97.4638 66.5268 98.1775C67.5716 97.7911 70.703 97.7209 69.1314 98.4653C68.9285 98.5584 67.8053 98.2228 67.5682 98.3393C65.3132 99.4181 72.2626 98.5187 73.5496 98.386C70.9022 99.1631 67.6969 99.3611 64.4973 99.6051C61.8747 99.8076 59.2346 100.017 56.9567 100.497C54.7768 100.135 60.0128 99.3061 57.5627 99.071C52.4942 98.579 56.3145 99.9957 56.1707 100.084C54.9945 100.786 50.4861 98.0905 50.6957 100.451C48.8646 100.266 49.412 99.9151 46.8798 100.461C47.2294 100.593 47.5828 100.726 47.9398 100.858C45.2232 102.495 38.8323 99.5662 39.2747 99.2599C40.4511 98.4534 43.7023 99.2758 43.9532 99.2256C44.3548 99.1491 45.225 96.6618 49.7534 98.3972C51.3825 96.6267 42.7933 97.9475 46.6198 96.4905C43.9893 96.9292 32.9959 96.7336 31.0151 97.5217C30.911 97.5742 31.1317 97.9871 30.9876 98.3073C30.9276 98.4667 30.7239 98.6063 30.3549 98.6631C30.1851 98.6907 29.8975 98.7015 29.5677 98.6818C29.1964 98.662 28.8327 98.6193 27.8741 98.5286C27.3573 98.4857 26.763 98.4297 26.5137 98.3812C26.3118 98.3545 26.2298 98.3319 26.2856 98.3173C26.3329 98.3023 26.5461 98.2946 26.6709 98.2826C26.9766 98.2613 27.4348 98.239 27.8108 98.2093C28.1085 98.1808 28.4449 98.1488 28.7076 98.1161C28.9465 98.0843 29.1866 98.0508 29.4 98.016C29.5815 97.9826 29.7477 97.9478 29.8782 97.9118C30.143 97.8395 30.2438 97.764 30.042 97.6827C29.842 97.6149 29.6028 97.5595 29.0195 97.5203C28.8755 97.5102 28.7462 97.4999 28.5477 97.4909C28.3365 97.4822 28.1043 97.4734 27.8214 97.4623C27.6693 97.4568 27.43 97.4509 27.1772 97.4411C27.0474 97.4362 26.9056 97.4303 26.7448 97.4226C26.6192 97.4158 26.3244 97.4037 25.9588 97.379C25.5885 97.3533 25.1418 97.3201 24.4614 97.236C24.2903 97.2145 24.1032 97.1894 23.8943 97.1583C23.4778 97.0966 22.853 96.9964 22.0398 96.8107C21.2077 96.613 20.1575 96.361 18.4719 95.6872C16.7975 94.9355 14.3366 94.065 10.6392 90.4491C10.1852 89.9873 9.719 89.4747 9.2493 88.9024C8.76502 88.2968 8.38651 87.8537 7.52334 86.5023C6.02997 84.141 4.70072 80.9485 4.21662 77.4495C3.12611 70.2308 6.00334 63.8035 8.29834 60.7355C13.1797 54.5381 15.5851 54.281 17.1305 53.3034C17.3178 53.2131 17.5312 53.1147 17.6557 53.0587C17.7105 53.0341 17.7642 53.0102 17.8168 52.987C17.9221 52.9406 18.0233 52.897 18.1207 52.8557C18.3156 52.7732 18.4957 52.7 18.6639 52.6337C19.0001 52.5013 19.2893 52.396 19.5471 52.3063C20.5671 51.9553 21.1454 51.8112 21.6246 51.6899C28.1417 50.7206 44.3296 45.8004 47.0151 44.5463C47.2445 44.4629 47.3275 44.9631 47.5527 44.8776C48.1674 44.6485 49.9444 43.3727 51.1553 42.8842C51.3792 42.7945 51.5907 42.7223 51.7844 42.6733C51.4835 42.7096 51.254 42.7236 51.0873 42.7185C50.7292 42.6672 50.7224 42.5194 50.9251 42.3234C51.7325 41.6648 54.8317 40.3834 55.9051 40.0206C58.3028 39.2101 58.4907 40.0831 59.5749 39.8444C63.736 38.928 69.1397 34.5365 73.0126 35.1465C72.1363 33.4048 78.8266 33.9434 81.5013 33.0212C83.569 32.2925 86.2923 30.0168 83.1416 30.2736C86.3412 29.2443 89.6949 27.8769 93.1111 26.758C93.5894 26.5983 94.0927 26.4357 94.5972 26.2801C95.2097 26.0922 94.5091 26.8755 95.5534 26.5387C95.6514 26.5038 95.6302 25.9261 96.5569 25.6236C104.246 23.2317 100.688 25.3609 102.208 25.3563C103.04 25.375 103.642 25.3486 104.06 25.2947C99.9677 26.2194 94.8439 27.8134 93.5281 28.2339C93.4618 28.2539 93.4012 28.2721 93.3465 28.2884C93.4088 28.3239 93.4826 28.3514 93.567 28.3715C95.2117 28.8506 103.252 25.503 105.548 25.4413C105.636 25.4362 105.473 26.1646 105.561 26.152C105.563 26.1517 105.565 26.1513 105.566 26.151C106.522 25.9932 112.105 24.722 110.794 24.1359C110.434 23.9812 107.885 24.4223 104.699 25.1467C105.522 24.8241 104.733 24.2041 104.877 24.1416C106.702 23.376 111.199 23.3176 112.735 23.1646C113.091 23.1261 112.985 22.6475 113.043 22.6365C114.431 22.5148 114.121 23.9844 115.281 22.3311C118.054 23.6367 110.654 23.367 111.32 24.4141C111.962 25.1152 127.521 22.2329 127.256 20.9254C127.334 21.0626 127.564 21.2135 128.027 21.3566C129.084 21.6679 133.314 20.931 134.05 20.5767C134.067 20.5673 134.077 20.533 134.082 20.4809C134.11 20.1648 133.959 19.1922 134.088 19.1639C134.458 19.0799 139.83 19.4082 141.677 18.3722C140.592 18.3272 139.526 18.2806 138.446 18.2368C144.798 17.3796 143.747 17.1241 141.595 17.0043C141.49 17.0146 141.383 16.9778 141.281 16.9857C139.582 16.9129 137.454 16.9123 137.402 16.8135C137.251 16.4216 147.97 14.7882 146.065 16.2865C145.797 16.4905 140.746 16.5982 143.33 17.1487C143.796 17.2427 146.943 16.5788 147.125 16.6538C148.34 17.1463 141.457 18.9112 142.438 19.7106C144.017 18.6201 146.257 18.7923 148.156 18.3193C149.023 18.1042 149.158 17.4134 149.266 17.3868C150.871 17.0044 150.045 17.8169 150.585 17.73C150.87 17.6808 153.889 15.7923 153.541 17.9087C163.894 15.075 156.264 16.0345 149.816 16.9795C151.756 15.9747 155.82 15.8227 157.591 15.4248C158.228 15.2808 157.766 14.6478 158.832 14.3753C161.041 13.8096 171.826 13.2651 174.63 13.1114C172.95 13.5616 173.541 14.2416 174.854 14.0286C176.166 13.8155 174.937 12.9615 175.181 12.8236C175.441 12.6792 181.691 12.3907 182.699 12.1389C178.089 13.0634 179.23 13.6748 183.189 13.2722C182.64 13.5549 182.099 13.8368 181.554 14.1193C183.836 13.5375 188.829 14.0784 190.136 13.5806C190.34 13.5013 189.51 12.9705 189.624 12.926C190.766 12.52 194.829 12.675 194.994 12.4402C195.127 12.2449 193.366 11.9275 193.965 11.5952C194.081 11.5265 195.846 12.1672 197.423 11.7688C198.019 11.6203 197.584 11.0758 197.733 11.0234C198.965 10.589 198.333 11.6691 200.616 11.2348C202.291 10.9153 203.436 9.79658 205.797 9.84083C197.993 9.51891 204.494 9.26642 207.643 8.5129C208.141 8.39316 207.6 7.3744 210.711 7.53224C204.424 10.237 212.689 8.332 214.407 8.15023C214.504 8.14531 214.603 8.8477 215.455 8.75826C215.526 8.74922 215.371 8.28499 216.15 8.15578C223.495 6.93723 218.843 8.03319 220.302 8.33632C220.477 8.3724 220.878 8.31236 221.369 8.20632C222.715 7.92384 224.683 7.33338 225.402 7.23633C225.624 7.20835 225.592 7.71359 226.429 7.59477C227.972 7.37593 229.242 6.69147 230.256 6.52883C230.364 6.51353 230.479 7.29125 232.347 6.81272C232.85 6.68117 233.45 6.32898 232.647 6.19693C230.047 5.75777 225.389 7.60474 222.473 7.20312C219.796 6.84008 227.986 5.80596 228.413 5.75117C228.575 5.72948 226.988 6.31049 228.65 6.19124C230.046 6.0904 232.427 4.44127 234.517 4.48998C234.688 4.49177 236.458 5.43942 236.393 5.5146C236.316 5.57337 233.832 6.12097 234.24 6.40762C234.268 6.44248 235.911 6.23894 236.125 6.46302C236.437 6.72971 237.459 9.59004 237.815 9.6221C238.708 9.69949 238.052 9.09824 238.621 9.07685C238.714 9.0745 238.866 9.0715 238.995 9.07545C239.077 9.07536 239.128 9.08009 239.202 9.08272C239.229 9.08521 239.258 9.08767 239.252 9.09471C239.234 9.10033 239.276 9.09759 239.125 9.12148C239.086 9.12767 239.036 9.13547 238.951 9.1489C238.907 9.15569 238.855 9.16393 238.784 9.17545C238.765 9.17854 238.801 9.17291 238.725 9.1849C238.636 9.19919 238.526 9.21704 238.342 9.24991C238.147 9.28604 237.923 9.32246 237.339 9.45483C237.029 9.52821 236.654 9.61032 235.851 9.85493C235.439 9.98449 234.924 10.1458 234.058 10.4993C233.158 10.9091 232.027 11.2549 229.446 13.1246C228.161 14.1361 226.35 15.5083 224.228 18.8342C222.147 21.953 220.015 28.5287 221.695 34.8724C223.296 41.2102 227.068 44.7962 229.398 46.5676C231.856 48.3879 233.515 49.0186 234.752 49.5006C237.189 50.367 238.231 50.4529 239.082 50.5971C239.898 50.711 240.39 50.7434 240.784 50.7684C242.244 50.8397 242.501 50.7938 242.847 50.7893C243.037 50.7814 243.003 50.7824 243.033 50.781C243.053 50.78 243.072 50.7791 243.091 50.7781C243.127 50.7762 243.161 50.7743 243.192 50.7725C243.663 50.7439 243.753 50.7313 243.864 50.7216C243.957 50.7125 244.017 50.7058 244.032 50.7035C244.161 50.684 244.11 50.6821 244.092 50.6773C244.061 50.6737 244.029 50.6701 243.983 50.6681C243.902 50.6627 243.803 50.6592 243.701 50.6559C243.499 50.6491 243.277 50.6442 243.051 50.6415C241.489 50.6226 239.363 50.7214 239.334 51.3802C240.155 51.3611 240.97 51.3356 241.737 51.3118C237.339 51.8843 239.225 52.1127 238.623 52.37C237.958 52.6394 238.058 51.7285 236.552 51.7682C236.166 51.8011 230.179 52.3794 230.335 52.7372C233.551 51.9446 232.446 53.1224 232.587 53.1356C233.161 53.172 233.87 52.4986 234.676 52.4532C240.361 52.1089 234.698 53.5455 236.062 53.6924C236.534 53.7421 237.428 53.1319 237.635 53.1408C238.28 53.1733 238.382 53.8656 238.804 53.7698C239.834 53.5406 238.518 52.6715 238.607 52.611C239.489 51.9163 243.032 52.303 240.989 53.6073C242.336 53.8527 242.327 52.5343 243.293 52.9523C243.299 52.9552 243.306 52.958 243.312 52.9608C244.303 53.3985 244.006 53.6127 243.402 53.7561C242.886 53.8803 242.06 53.9585 241.679 54.0804C238.73 55.0168 237.609 54.624 233.475 55.0808C231.984 55.2409 230.333 55.9706 229.64 56.043C229.223 56.0919 225.206 54.0762 225.238 57.5361C223.723 57.2714 221.265 55.0927 219.73 55.2571C218.366 55.4058 218.851 56.6118 218.724 56.6642C218.533 56.7463 216.854 56.7131 216.309 56.9058C215.659 57.134 215.986 57.5899 214.958 57.8172C212.389 58.3806 212.407 57.1278 212.145 57.0558C209.003 56.2212 210.435 57.9516 209.757 58.1167C209.089 58.2737 200.229 57.8566 198.345 58.3553C199.077 58.0845 199.875 57.8115 200.617 57.5398C199.228 56.7998 197.816 58.1109 197.76 56.7141C197.565 58.9774 194.675 57.5473 193.863 57.627C193.532 57.6598 193.569 58.0436 193.152 58.0712C192.799 58.0952 192.347 58.1042 191.841 58.106C190.119 58.1094 187.659 58.0182 187.01 58.1879C184.154 58.898 189.064 59.7265 191.893 60.1153C192.843 60.2387 193.559 60.3174 193.746 60.3329C193.411 60.3364 192.733 60.3743 191.902 60.4417C189.061 60.6797 184.456 61.293 187.574 62.0605C188.171 62.2124 189.257 61.1739 189.602 61.1253C191.93 60.8045 190.119 61.7571 190.305 61.8384C190.527 61.9304 191.336 61.5048 191.924 61.2775C192.187 61.1814 192.41 61.1204 192.534 61.148C192.668 61.1778 191.82 62.0203 194.065 61.9779C193.743 62.2244 192.953 62.3542 191.954 62.4208C189.738 62.5736 186.457 62.3801 185.888 62.5255C185.612 62.5992 187.434 64.2506 182.079 62.7391C182.145 62.8951 182.212 63.051 182.278 63.207C179.285 63.349 176.331 63.4896 173.338 63.6308C173.657 63.2595 175.322 62.4874 173.203 62.6963C171.979 62.817 172.905 63.6025 172.795 63.6288C171.727 63.8796 152.453 64.0976 148.729 64.2805C147.464 64.3415 143.934 65.0801 143.669 65.0988C142.056 65.2043 136.335 64.924 135.196 65.0442C134.487 65.1208 135.179 65.7798 134.544 65.7639C133.953 65.7483 134.548 65.0797 134.372 65.0568C132.911 64.8565 121.893 65.9879 119.254 65.4367C120.863 65.5819 128.826 64.078 128.654 63.6213C128.618 63.559 126.661 63.1104 126.266 63.3627C125.589 62.8136 123.359 64.5922 122.114 64.2847C121.973 64.2497 122.5 63.2701 120.287 63.1496C119.524 63.1086 117.554 63.9109 115.528 63.1166C112.645 63.594 97.3424 62.7188 96.3339 63.782C96.3098 63.8374 98.4568 64.142 97.0238 64.6036C95.0995 65.2176 96.7896 63.2677 94.5334 63.1587C94.2024 63.1419 87.9357 63.4895 87.7512 63.6121C85.8882 64.729 91.3419 65.0287 91.2792 65.1547C91.0852 65.473 86.5727 65.7739 86.3711 65.7049C86.1921 65.6324 89.8825 64.1224 85.4229 64.7704C85.9369 64.9273 86.4528 65.0842 86.9706 65.241C84.8738 65.6229 84.659 64.6465 84.1517 64.599C82.5909 64.4476 80.8848 65.9807 78.3354 64.2016C77.6484 63.7297 78.7558 63.1597 78.67 63.0885C77.8407 62.451 76.8523 64.2353 75.6213 62.9528C75.5251 62.8573 78.3136 62.0023 73.4101 62.1209C73.7534 62.2383 74.0998 62.3557 74.444 62.4731C73.7299 62.7716 68.793 63.06 68.1081 63.0104C66.1592 62.8641 67.8387 61.9194 65.8841 62.0754C67.1584 63.2822 61.2323 63.5894 61.5187 62.5165C60.6918 63.8755 55.6613 62.9663 53.2319 62.9942C52.8384 62.9989 52.3431 63.0477 51.8252 63.1159C50.2607 63.31 48.6082 63.655 48.2077 63.6144C47.6145 63.5453 47.7643 62.6283 46.7143 62.4508C46.444 62.3995 43.3003 63.1462 40.5509 62.2684C40.0085 62.0996 38.833 60.5794 39.8275 60.1678C41.4932 59.4643 44.7274 60.6328 44.6669 59.719C44.5787 58.742 40.3413 59.4284 39.132 59.3304C33.762 58.8713 36.8345 57.7549 36.6828 57.4431C36.3235 56.6862 33.399 56.7819 33.2636 56.7164C32.7565 56.423 34.7963 55.7668 34.8224 55.2989C34.8449 54.6898 31.9964 53.6618 32.6323 53.441C33.5812 53.1264 36.1758 53.9779 36.3246 53.9305C38.4343 53.2883 35.5312 51.9539 34.6547 51.2848C34.4005 51.0786 35.3833 50.7052 35.1761 50.648C32.0498 49.7793 34.5912 52.6381 32.4941 52.4945C30.6834 52.3652 32.9803 51.3849 32.9264 51.3353C32.8284 51.2817 30.6257 51.2855 30.2809 50.9671C30.1098 50.8076 35.7629 48.8717 35.538 48.0716C33.6723 48.295 31.9126 48.5158 30.0663 48.7387C29.8834 47.6927 32.5341 48.4008 32.8041 48.2859C33.3499 48.0551 31.8034 47.5615 31.8698 47.2278C31.8892 47.016 33.6656 46.2185 32.0421 45.9477C31.5144 45.8534 30.3477 46.6186 28.3034 45.9165C35.3301 44.7826 30.4163 44.313 30.2017 43.9462C29.9777 43.5796 33.3436 42.621 29.2548 42.8765C29.0165 40.838 29.3543 42.2278 30.4726 41.841C31.8783 41.3647 28.6181 40.7717 33.7902 41.1552C33.4824 40.2056 29.3094 40.376 29.0767 40.3054C28.8776 40.2411 29.8227 39.747 29.4768 39.596C25.5023 37.8444 28.2161 38.6222 27.0526 37.4698C26.9836 37.3659 23.2513 37.02 26.0541 36.7789C31.1881 36.3398 33.3748 37.6424 34.1369 34.7239C30.3588 33.5572 25.7573 35.5423 24.6138 35.6022C22.8846 35.6906 24.6544 35.0555 24.4417 34.895C24.3775 34.8431 22.8366 34.9299 22.8377 34.8829C21.6572 32.7003 29.6409 34.6785 32.0547 34.2346C31.4003 33.9195 30.71 33.6053 30.0432 33.2905C30.9552 33.2548 31.8255 33.2201 32.7476 33.1842C28.4545 32.624 32.5795 32.9362 33.6084 31.1201C33.8419 30.712 31.0663 31.4703 34.2218 30.2744C31.8922 30.0735 32.5839 29.6906 30.463 30.2476C30.5273 29.5282 35.2939 28.6013 37.2174 28.1857C30.4257 27.546 34.3806 30.0816 28.5081 28.8331C27.4504 29.748 30.2343 29.5064 29.9999 29.6589C29.235 30.2052 27.2626 29.4161 25.0428 31.3191C24.6752 31.6316 26.2869 32.5259 23.9364 32.5387C23.6635 32.539 22.1609 31.7779 22.1764 31.7197C22.3671 31.0898 23.8432 31.2877 23.9038 31.0252C23.9518 30.777 22.3151 30.966 22.2956 30.898C22.2361 30.1163 23.6566 30.5651 23.4506 30.325C22.9934 29.803 17.0173 28.2652 24.7737 28.5674C18.3696 29.6109 23.9567 29.4522 26.4643 29.0504C27.0721 28.9501 27.2732 28.4774 28.1481 28.2935C29.3243 28.0543 30.6831 28.2454 31.2932 28.1446C31.9417 28.034 28.2449 27.0192 33.5631 27.2183C30.8436 26.1853 26.0303 27.4764 23.3529 26.7702C17.9411 25.3432 27.0862 24.7824 28.0142 24.6085C28.2588 24.5615 27.4213 23.9503 27.581 23.9077C27.8177 23.8425 33.0604 24.0055 33.5386 23.471C34.0408 22.9363 31.6316 23.5419 31.4656 23.0013C31.3485 22.6374 37.608 21.833 34.1985 21.6662C31.8543 21.552 27.5926 23.1309 26.8193 21.5656C30.2698 21.3495 33.69 21.1342 37.1357 20.9183C35.1927 20.3633 33.3687 19.8054 31.4336 19.2502C35.2866 18.9642 38.656 19.5619 42.2888 18.6097C33.447 16.8954 45.0842 16.9995 45.2276 16.7609C45.2942 16.6187 41.7736 15.1373 41.1977 14.8647C44.2832 14.1858 53.5624 13.6631 48.0717 11.862C48.6596 12.11 49.7572 11.7992 50.5573 11.493C51.0564 11.2899 51.424 11.0889 51.4105 11.0567C51.3353 10.8584 50.9952 10.7438 50.5372 10.6743C48.935 10.4491 46.0788 10.7062 46.7009 10.0992C47.6943 9.19706 48.9801 10.3133 50.5264 10.2322C50.5569 10.2306 50.5875 10.2284 50.6182 10.2256C58.382 9.52863 56.1458 5.11875 64.0006 5.6323C63.8391 5.47729 63.678 5.32227 63.5173 5.16724C72.0414 5.21086 80.5634 5.2543 89.0762 5.29749C92.3749 3.85275 101.216 2.80426 105.577 2.84718C106.447 2.85505 110.78 3.46338 111.102 3.58085C111.71 3.80624 108.407 3.97977 109.913 4.39327C110.225 4.47812 117.523 4.5979 116.982 3.84847C116.164 3.78032 113.619 4.22687 113.195 4.05762C110.23 2.84844 132.711 3.31515 133.811 2.77016C133.309 2.53495 132.806 2.29974 132.302 2.06454C133.72 2.1511 135.143 2.23749 136.564 2.32389ZM72.9305 65.1652C72.0892 65.9513 69.9744 65.4284 68.6957 65.6747C66.9745 66.0179 64.0702 69.0367 65.2797 66.0528C67.8318 65.7569 70.3937 65.4608 72.9305 65.1652ZM110.331 65.3836C108.604 65.0152 109.893 63.3334 111.32 63.9839C111.476 64.058 112.67 65.8791 110.331 65.3836ZM92.3435 65.045C92.4135 65.0214 93.8886 65.0287 93.9418 65.0532C95.2824 65.6826 90.8275 65.6571 92.3435 65.045ZM179.167 62.027C177.275 62.1468 178.692 63.6104 179.842 62.9636C179.915 62.9225 179.292 62.0203 179.167 62.027ZM177.818 62.0219C176.288 60.7179 173.446 63.5127 175.772 63.1792C175.991 63.1459 177.883 62.0856 177.818 62.0219ZM104.201 64.8794C104.38 64.3602 106.163 64.5647 106.919 64.6692C106.915 65.1392 104.939 64.8037 104.201 64.8794ZM149.045 63.6207C149.114 63.2143 142.961 63.3908 142.558 63.9343C143.519 63.684 148.988 63.9859 149.045 63.6207ZM164.798 62.6554C164.63 62.5897 162.523 62.7494 162.593 63.1047C163.627 63.547 165.513 62.954 164.798 62.6554ZM196.184 61.869C196.285 61.7763 194.654 59.5493 198.465 60.9396C199.021 61.1431 197.074 61.791 197.268 61.8671C197.687 62.0146 198.013 62.0797 198.272 62.0857C196.535 62.3226 194.657 62.4616 194.498 62.328C193.658 61.6995 196.108 61.9087 196.184 61.869ZM212.759 59.6748C213.131 59.2918 215.442 59.4092 216.022 59.5403C216.114 59.5657 215.752 60.5535 216.81 60.4419C217.654 60.3505 216.339 59.4015 218.013 59.4985C219.717 59.5939 217.476 60.3907 217.618 60.4358C217.848 60.4945 220.4 59.9472 220.365 60.5285C220.306 60.9616 217.482 60.7801 216.831 60.8944C215.954 61.0439 217.062 61.7201 215.558 61.6205C214.639 61.5572 215.104 60.281 214.909 60.2243C214.759 60.1791 211.546 61.014 212.764 59.6786C212.762 59.6773 212.76 59.676 212.759 59.6748ZM198.739 62.017C198.61 62.0632 198.458 62.0901 198.272 62.0857C198.429 62.0643 198.585 62.04 198.739 62.017ZM77.8752 64.4912C78.7825 64.8572 76.1281 65.4205 75.131 64.9362C75.0983 64.5268 77.7248 64.4344 77.8752 64.4912ZM200.372 60.9454C202.975 61.1858 201.12 61.6741 198.739 62.017C199.482 61.7591 199.483 60.8653 200.372 60.9454ZM126.266 63.3627C126.378 63.4539 126.452 63.5985 126.467 63.8387C126.171 63.5829 126.141 63.4423 126.266 63.3627ZM132.36 63.6403C134.429 62.856 130.187 62.9912 130.23 63.5145C130.246 63.7121 132.277 63.6715 132.36 63.6403ZM181.588 62.0364C181.399 61.9695 184.314 59.6817 180.041 61.4521C182.324 61.6542 179.927 61.9568 179.969 62.1495C180.047 62.7046 183.952 62.0686 184.772 62.2881C185.404 61.2752 182.249 62.2557 181.593 62.0362C181.591 62.0363 181.589 62.0363 181.588 62.0364ZM244.549 58.2649C244.437 58.44 244.225 58.5669 243.954 58.6608C243.28 58.9023 242.056 58.9356 241.086 59.0106C241.536 58.486 242.941 58.3692 243.914 58.3074C244.143 58.2926 244.362 58.2795 244.549 58.2649ZM101.198 95.3751C94.1301 96.6503 92.9498 94.4108 99.5732 94.6372C99.704 94.6425 101.609 95.0916 101.198 95.3751ZM35.0557 101.821C34.2048 100.846 36.7588 100.487 38.4135 100.779C38.7823 100.845 40.2648 101.775 38.699 102.111C38.6562 100.855 36.1919 100.574 35.0557 101.821ZM201.821 60.2398C202.603 59.5261 204.911 59.9498 206.207 60.0135C205.431 60.6068 202.964 60.4233 201.821 60.2398ZM76.5055 97.2055C75.6042 97.2303 75.1089 98.1906 75.2693 98.2486C75.9913 98.5163 77.5833 97.597 76.5055 97.2055ZM194.232 60.3438C194.099 59.9346 197.225 59.4522 197.466 60.4665C196.799 60.4113 194.302 60.6013 194.232 60.3438ZM242.382 58.1961C242.026 58.1026 243.013 57.7941 243.837 57.6237C244.088 57.5728 244.338 57.5327 244.543 57.5132C244.642 57.5037 244.736 57.4989 244.796 57.5023C244.821 57.5045 244.848 57.5077 244.836 57.5162C244.83 57.5205 244.808 57.5267 244.753 57.5365C244.717 57.5421 244.719 57.5446 244.549 57.5626C244.468 57.5711 244.365 57.5818 244.16 57.5989C244.054 57.6076 243.924 57.618 243.716 57.6313C243.611 57.638 243.487 57.6454 243.322 57.6534C243.185 57.6595 242.826 57.6775 242.268 57.6827C241.588 57.6591 241.138 57.7821 238.134 57.41C237.319 57.2887 236.293 57.1374 234.563 56.6635C232.803 56.089 230.377 55.638 225.658 52.3569C223.342 50.6462 220.231 47.9532 217.584 43.1457C214.9 38.454 213.508 31.3048 214.556 25.4856C216.959 13.5527 222.584 10.0804 224.922 7.92582C230.138 4.1505 231.426 4.24421 232.728 3.64502C233.896 3.23543 234.498 3.08158 234.984 2.95086C234.554 3.06598 234.022 3.19834 232.909 3.57851C232.336 3.78001 231.624 4.03172 230.453 4.56272C229.252 5.15859 227.687 5.74654 224.474 8.27537C222.88 9.61485 220.702 11.4676 218.247 15.4178C215.856 19.2114 213.269 26.2916 214.524 34.0846C215.675 41.8548 220.104 47.621 223.326 50.4691C226.667 53.4439 229.174 54.5914 231.003 55.4148C234.669 56.931 236.28 57.0834 237.575 57.3347C238.817 57.5329 239.563 57.5885 240.16 57.632C242.365 57.755 242.731 57.6784 243.24 57.6735C243.306 57.6708 243.322 57.6702 243.327 57.6702C243.336 57.67 243.345 57.6698 243.353 57.6696C243.371 57.6692 243.388 57.6688 243.405 57.6684C243.439 57.6676 243.472 57.6667 243.504 57.6658C243.766 57.6587 243.973 57.6508 244.133 57.6453C244.45 57.6341 244.606 57.6312 244.701 57.6348C244.8 57.6501 244.853 57.6681 244.856 57.69C244.872 57.7328 244.794 57.7802 244.704 57.8239C244.51 57.9128 244.203 57.9936 243.886 58.0571C243.288 58.1789 242.563 58.2441 242.382 58.1961ZM63.2806 98.8886C62.5494 98.8859 60.7038 99.0509 60.5465 99.433C60.335 99.9128 63.0118 99.4826 63.2806 98.8886ZM194.939 90.7156C194.987 90.8125 194.012 91.278 192.922 91.577C192.2 91.7807 191.424 91.9073 190.905 91.7892C189.43 91.4438 191.263 91.0746 192.917 90.8669C193.954 90.7388 194.894 90.6719 194.939 90.7156ZM84.7744 95.6578C85.2256 95.7498 85.5122 95.8091 85.6732 95.8513C85.8857 95.923 85.8375 95.946 85.6912 95.9752C85.3559 96.0391 84.6237 96.1302 84.7435 96.6015C85.0339 96.5657 85.3753 96.5226 85.7628 96.4677C87.2862 96.2521 89.297 95.8836 87.2355 95.4262C86.9007 95.3534 86.2237 95.4647 85.6299 95.5535C85.3067 95.6015 85.0096 95.6425 84.7744 95.6578ZM82.4902 95.6739C82.2669 96.0007 80.6058 97.154 82.1395 96.8808C82.8507 96.7521 83.8402 95.5798 82.4902 95.6739ZM177.436 91.1967C175.385 90.4039 184.776 90.8039 185.055 90.9416C185.199 91.015 185.294 91.0843 185.348 91.1431C185.693 90.8886 187.47 90.8357 187.685 91.4753C187.148 91.4249 185.689 91.487 185.521 91.4166C185.448 91.3867 185.394 91.3585 185.356 91.3298C184.723 91.8892 177.826 91.3474 177.436 91.1967ZM161.946 90.4282C164.266 89.2384 164.684 91.2418 164.485 91.307C161.958 92.1382 163.604 90.6529 163.523 90.5839C163.344 90.4694 161.555 91.1637 161.953 90.4282C161.951 90.4282 161.948 90.4282 161.946 90.4282ZM174.25 90.8764C174.347 90.85 176.311 90.9062 176.392 90.9376C178.004 91.6065 172.445 91.4505 174.25 90.8764ZM225.428 57.774C226.926 57.903 225.472 58.7106 224.52 58.4876C224.441 58.4648 224.132 57.6573 225.428 57.774ZM81.3017 96.0354C80.9485 95.9819 71.6949 96.5111 72.446 97.5264C73.0646 97.3791 83.6814 96.6468 81.3017 96.0354ZM31.5398 45.6923C30.2013 46.0343 31.3953 44.6364 32.1966 44.8282C32.4952 44.8994 31.8777 45.6052 31.5398 45.6923ZM190.018 59.5008C188.491 60.1179 188.763 58.1741 190.113 58.8028C190.166 58.8274 190.078 59.4767 190.018 59.5008ZM26.5632 101.34C26.3468 101.338 25.7705 101.322 25.1137 101.273C24.7693 101.247 24.3665 101.212 23.849 101.149C23.6027 101.08 22.2317 101.106 18.6394 99.9779C16.7562 99.2468 14.0374 98.6444 9.12383 94.492C7.91324 93.4141 6.5817 92.0468 5.25994 90.2463C3.28452 87.6168 1.03008 83.1912 0.323475 78.3209C-1.30406 68.0182 3.59185 59.8195 6.50511 56.5695C9.63997 53.0009 11.7827 51.7973 13.3199 50.8291C14.0931 50.371 14.7298 50.0406 15.2803 49.7712C15.5463 49.6411 15.8388 49.5054 16.0165 49.4253C16.0919 49.3912 16.1655 49.3582 16.2374 49.3265C16.8118 49.0726 17.2796 48.8872 17.6843 48.7345C19.2722 48.1472 20.0126 47.9707 20.639 47.8015C24.1872 46.5709 24.5252 48.5025 21.0892 49.5777C20.6383 49.6954 20.0914 49.8385 19.1927 50.138C18.7383 50.2915 18.1928 50.4842 17.4478 50.7944C17.2611 50.8724 17.0613 50.9584 16.8453 51.0552C16.8182 51.0673 16.791 51.0796 16.7635 51.0921C16.7112 51.1156 16.5995 51.1666 16.5135 51.2066C16.3307 51.2916 16.137 51.3842 15.9302 51.4868C15.5164 51.6923 15.0509 51.9361 14.5115 52.2473C12.5828 53.8038 8.2242 54.6024 3.44071 65.3146C1.19714 70.6201 1.32167 79.4038 4.2912 85.0823C4.97361 86.5162 5.74208 87.7827 6.52372 88.8811C7.07277 89.6493 7.50922 90.1908 7.99879 90.76C8.95685 91.8676 9.88777 92.7557 10.7511 93.4908C14.2348 96.3697 16.4974 97.1908 18.1274 97.862C21.3173 99.0266 22.5964 99.1028 23.5842 99.2797C24.4584 99.404 25.0224 99.4489 25.4866 99.4828C25.9329 99.5144 26.3342 99.53 26.5483 99.5365C26.7398 99.5424 26.9094 99.5459 27.0654 99.5481C27.3688 99.5526 27.6604 99.552 27.8471 99.5509C28.5718 99.5456 29.0004 99.5369 29.4601 99.5356C30.2711 99.5352 30.9763 99.5606 31.7245 99.62C31.4798 99.784 31.2425 99.947 31.0087 100.109C35.4635 100.076 35.3872 100.111 34.3003 100.218C33.1307 100.323 30.808 100.471 29.0682 100.624C28.7583 100.652 28.5103 100.706 28.3688 100.772C28.2279 100.839 28.1933 100.918 28.1668 100.997C28.1393 101.076 28.12 101.156 27.9869 101.222C27.8592 101.285 27.6298 101.35 26.5966 101.345C26.5856 101.343 26.5744 101.341 26.5632 101.34ZM38.3327 43.8842C43.1235 44.9372 34.8293 45.782 32.4054 46.7007C34.5013 45.1362 37.4696 44.4662 33.1696 44.6051C39.0024 42.8058 36.7762 44.3775 37.0478 44.391C37.3458 44.398 38.1298 43.8382 38.3327 43.8842ZM26.794 46.9982C26.5477 47.1323 24.4022 47.1783 23.6747 47.4424C24.5323 46.3948 28.4458 46.0949 26.794 46.9982ZM146.283 91.1578C146.433 90.5214 146.795 90.042 148.364 90.2455C147.882 90.573 146.908 90.869 146.283 91.1578ZM71.2369 61.8762C70.1158 61.8584 67.7515 61.6781 68.4882 62.3254C68.5658 62.3802 71.2549 62.2493 71.2369 61.8762ZM56.2572 98.2067C55.9998 98.1576 49.5465 98.7282 51.8377 99.2086C52.54 99.3559 58.3981 98.688 56.2572 98.2067ZM89.7911 94.4204C89.3006 94.4757 87.3489 94.8606 87.3313 95.0157C87.2666 95.5448 89.6376 94.9371 89.7911 94.4204ZM65.3875 61.3722C65.2116 61.3108 61.7304 61.5127 62.1085 61.8104C62.8489 62.3729 65.9106 61.5855 65.3875 61.3722ZM230.742 56.0172C231.043 55.9766 231.528 56.6363 231.634 56.6376C231.841 56.6512 237.89 55.9522 235.62 57.0016C235.153 57.2146 226.777 57.3562 225.779 57.2962C225.321 56.3748 228.845 57.1024 229.693 56.9553C229.845 56.9284 229.916 56.1347 230.739 56.0213C230.74 56.0199 230.741 56.0186 230.742 56.0172ZM154.51 90.3567C154.724 89.7518 160.996 89.3148 160.937 90.0438C158.777 90.145 156.645 90.248 154.51 90.3567ZM151.401 90.2905C150.425 89.9858 151.884 89.8061 153.061 89.8139C153.447 89.8165 153.817 89.8393 154.05 89.884C154.058 90.0568 153.586 90.1664 153.066 90.231C152.346 90.3172 151.505 90.3245 151.401 90.2905ZM77.315 93.8458C76.6313 94.0763 78.8894 94.6838 78.4293 94.9109C78.1351 95.0553 76.524 94.9177 76.059 95.2451C75.9259 95.3487 77.6242 95.9794 78.0848 95.8859C78.7386 95.7579 78.0186 95.1944 78.738 95.1008C81.1113 94.7901 83.2424 94.9597 85.3671 94.641C85.5494 94.6125 84.1422 94.3975 85.4297 94.1764C85.4851 94.1666 85.5465 94.1569 85.6144 94.1474C85.8319 94.1162 87.2373 94.5999 88.9321 94.2729C92.4504 91.684 95.5234 93.4021 100.359 92.1448C100.152 91.9619 96.4162 91.8209 96.201 91.8292C93.3407 91.9023 88.9758 92.3395 85.237 92.8512C83.3057 93.1162 81.4577 93.3664 79.919 93.5645C78.6405 93.7273 79.3121 94.0907 78.7637 94.1766C78.3261 94.2428 78.746 93.3603 77.315 93.8458ZM71.8362 61.4044C71.2726 60.5925 69.3486 61.1625 68.1064 61.1503C68.5545 61.8842 70.6459 61.2507 71.8362 61.4044ZM123.917 90.6482C123.33 90.7106 121.487 90.566 121.348 90.8238C121.174 91.1577 123.823 91.2134 123.917 90.6482ZM221.479 6.81264C221.465 6.81999 221.36 6.83385 221.209 6.85043C220.783 6.89674 219.932 6.96744 219.886 6.9533C219.024 6.65154 220.355 6.38467 221.155 6.39476C221.715 6.39683 222.063 6.51519 221.479 6.81264ZM186.016 10.8844C184.899 11.1222 183.803 11.5149 183.342 10.8962C184.073 10.9108 186.089 10.4056 186.016 10.8844ZM136.898 17.0937C137.196 17.7729 134.907 17.838 133.72 17.8422C133.434 17.8448 133.208 17.8438 133.083 17.8462C133.127 17.7475 133.35 17.6198 133.672 17.4895C134.667 17.0719 136.718 16.63 136.898 17.0937ZM145.985 88.4116C147.891 88.4122 147.456 87.0962 148.703 87.6715C148.918 87.7699 149.596 90.5204 147.465 89.5299C147.085 89.3536 148.539 88.6569 145.985 88.4116ZM32.945 99.5673C33.5208 98.9471 35.2917 98.9896 36.461 98.9429C36.2338 99.3945 33.8427 99.4664 32.945 99.5673ZM58.9977 60.8654C57.9797 60.0709 53.5229 60.7883 54.6398 61.3023C54.8193 61.3685 58.3509 60.8503 58.9977 60.8654ZM207.09 57.4341C208.926 56.7315 205.039 56.653 203.86 57.3179C204.379 57.2615 206.986 57.4802 207.09 57.4341ZM148.815 16.0067C148.725 16.0448 146.757 16.2365 146.667 16.2164C144.967 15.757 150.553 15.2087 148.815 16.0067ZM197.809 10.5381C197.162 11.15 192.493 11.2787 191.378 10.8778C192.3 9.98443 198.592 9.77622 197.809 10.5381ZM137.644 89.1233C139.297 89.0361 140.813 89.1258 142.1 89.2987C141.948 89.7535 137.879 89.456 137.644 89.1233ZM141.595 17.0043C141.49 17.0146 141.383 16.9778 141.281 16.9857C141.389 16.9906 141.493 16.9987 141.595 17.0043ZM105.767 90.6441C104.574 90.5731 104.892 91.3676 104.967 91.3858C105.874 91.57 107.118 90.7258 105.767 90.6441ZM70.4001 60.2236C69.9541 59.4952 67.8467 60.1204 66.6653 59.9735C67.015 60.5488 69.4221 60.3252 70.4001 60.2236ZM43.0959 44.0086C44.6355 44.3667 39.6797 46.9025 38.3273 46.7277C38.1454 46.2823 42.9228 43.972 43.0959 44.0086ZM201.248 56.5001C201.124 55.9246 198.43 56.7002 199.012 56.9573C199.396 57.1209 201.34 56.8575 201.248 56.5001ZM35.4423 47.187C34.9616 47.503 33.566 47.2869 33.9141 46.8324C34.3602 46.2504 35.5649 47.101 35.4423 47.187ZM67.7551 94.3429C67.4806 94.2805 64.1367 95.2205 65.5988 95.6644C66.6204 95.9723 66.6946 95.1237 66.9216 95.0981C67.162 95.0756 72.8704 95.5315 67.7551 94.3429ZM75.3116 31.991C74.0689 32.6951 72.4019 33.0546 71.0542 33.5932C71.4675 33.0461 74.5741 31.7561 75.3116 31.991ZM211.639 56.0232C211.259 55.8058 202.476 55.9379 207.483 56.5036C207.795 56.5361 212.649 56.7001 211.639 56.0232ZM145.985 88.4116C145.743 88.412 145.476 88.3923 145.151 88.3455C145.473 88.3577 145.741 88.389 145.985 88.4116ZM123.04 89.2593C123.475 88.8125 121.162 88.8289 120.497 89.0949C120.318 89.6202 122.977 89.3202 123.04 89.2593ZM71.1635 34.1814C70.4679 34.7088 68.9744 35.0149 68.0266 35.4184C68.0464 34.9879 70.6757 33.9412 71.1635 34.1814ZM130.786 19.9905C129.168 19.9815 127.177 20.376 127.228 20.8532C127.183 20.784 127.092 20.7168 126.948 20.6567C126.79 20.5993 125.126 21.0662 124.326 21.0196C119.729 20.682 141.543 18.0019 129.133 21.1145C129.703 20.7366 130.225 20.3661 130.786 19.9905ZM204.212 10.9099C205.162 11.3843 207.601 10.3577 206.919 10.2075C206.443 10.1054 203.247 10.4331 204.212 10.9099ZM169.776 15.426C170.058 15.496 172.458 14.7884 172.484 14.4757C171.036 14.3274 168.495 15.0968 169.776 15.426ZM211.17 10.7707C211.749 10.7907 212.348 9.77206 212.277 9.73907C211.677 9.46432 210.153 10.3639 211.17 10.7707ZM141.951 86.0242C141.188 85.7888 138.382 86.5977 137.735 87.2394C137.611 87.1236 137.282 86.9793 136.684 86.8108C136.686 86.8107 136.688 86.8107 136.689 86.8106C136.604 86.7869 136.266 86.7714 135.738 86.7613C131.931 86.6068 116.615 87.2895 129.108 87.7514C129.546 87.7715 128.926 87.2376 130.699 87.2638C130.817 87.2663 130.893 87.7189 131.252 87.7271C131.83 87.7372 134.129 87.8014 135.766 87.7211C136.609 87.6817 137.308 87.6058 137.619 87.4822C137.631 87.5662 137.701 87.644 137.844 87.7125C139.218 88.3217 142.622 86.2001 141.951 86.0242ZM164.924 16.1117C165.436 16.2178 166.98 15.8647 167.093 15.4457C166.291 15.3466 163.732 15.8634 164.924 16.1117ZM211.308 54.3845C210.229 54.0902 207.726 54.7881 208.503 55.092C208.99 55.2795 212.5 54.7247 211.308 54.3845ZM180.541 13.9742C174.722 14.2053 179.171 14.18 178.36 14.8726C179.087 14.5731 179.812 14.2738 180.541 13.9742ZM167.836 87.1858C166.918 87.0535 167.991 85.8867 169.008 86.5143C169.326 86.7136 168.35 87.2577 167.836 87.1858ZM210.059 86.3184C209.315 85.304 212.801 85.8261 211.464 86.5648C211.398 86.5891 210.107 86.3552 210.059 86.3184ZM180.372 86.3642C179.746 87.0683 179.338 87.1529 177.573 86.9846C180.186 86.779 177.759 86.1654 180.372 86.3642ZM127.256 20.9254C127.242 20.8988 127.23 20.8794 127.228 20.8532C127.243 20.8771 127.252 20.9006 127.256 20.9254ZM216.559 9.9478C217.325 10.456 219.368 10.17 218.689 9.64756C218.629 9.59885 216.791 9.47777 216.559 9.9478ZM137.735 87.2394C137.844 87.3419 137.794 87.4128 137.619 87.4822C137.608 87.4031 137.651 87.3264 137.735 87.2394ZM205.773 11.7163C205.793 11.267 202.701 11.4616 202.583 11.5283C200.915 12.5023 204.521 11.8921 205.773 11.7163ZM190.719 54.3592C190.596 54.3985 191.208 55.0878 191.764 55.1686C191.93 55.1911 192.091 55.1653 192.231 55.0629C192.501 54.8639 192.187 54.6126 191.745 54.4592C191.405 54.3337 190.982 54.2731 190.719 54.3592ZM186.38 86.0572C187.365 86.0541 188.745 86.0473 189.012 86.59C188.345 86.5099 186.366 86.4566 186.38 86.0572ZM208.708 85.6154C208.65 85.6553 208.588 85.6932 208.523 85.7291C207.608 86.2943 204.851 86.4247 203.049 86.3687C202.95 85.5925 207.588 85.8072 208.52 85.6501C208.59 85.6403 208.653 85.6288 208.708 85.6154ZM144.414 86.2394C144.343 86.2049 142.081 86.0451 142.406 86.5968C142.91 87.3995 145.05 86.5228 144.414 86.2394ZM195.504 54.8403C196.6 54.4222 194.05 53.2983 192.904 54.2502C192.327 54.7376 195.319 54.9107 195.504 54.8403ZM222.943 9.97627C223.829 9.65693 222.654 9.47232 221.531 9.57134C220.974 9.61925 220.436 9.74688 220.285 9.97079C220.605 9.95549 221.106 9.99548 221.585 10.0247C222.151 10.0527 222.686 10.0678 222.943 9.97627ZM174.016 16.4451C178.766 17.5753 175.915 14.8009 175.142 15.1702C175.033 15.2227 173.9 16.4191 174.016 16.4451ZM47.5882 57.7474C46.9426 57.9995 49.3943 58.795 49.6716 58.2248C49.8517 57.8679 48.0208 57.5862 47.5882 57.7474ZM104.06 25.2947C104.272 25.245 104.49 25.1944 104.699 25.1467C104.549 25.2058 104.335 25.2588 104.06 25.2947ZM236.237 10.6912C232.775 8.68701 233.311 10.4854 233.047 10.5067C232.45 10.5517 230.983 10.0725 229.864 10.3124C231.119 9.89143 232.392 9.46831 233.645 9.04722C232.612 8.99617 223.632 9.171 223.495 9.5788C223.308 10.1589 226.069 9.6568 226.16 9.69526C226.29 9.74987 226.875 11.2319 227.16 11.2571C227.596 11.3 235.002 10.4536 236.237 10.6912ZM183.483 15.0216C182.728 14.9287 182.449 14.3478 182.128 14.5338C182.018 14.5974 182.07 15.1776 181.694 15.375C182.29 15.2571 182.883 15.1397 183.483 15.0216ZM242.218 51.8659C241.752 51.6004 242.375 51.4077 243.124 51.2913C243.364 51.2543 243.624 51.224 243.861 51.2024C243.978 51.1918 244.102 51.1821 244.158 51.181C244.167 51.1812 244.181 51.1812 244.136 51.1871C244.091 51.1919 244.154 51.188 243.86 51.2151C243.781 51.2219 243.683 51.2308 243.478 51.245C243.373 51.2522 243.242 51.2609 243.026 51.2713C242.958 51.2744 242.708 51.2861 242.397 51.2914C242.051 51.293 241.665 51.3128 240.574 51.2452C239.993 51.1969 239.288 51.1689 237.684 50.8494C236.858 50.6691 235.803 50.4469 234.023 49.7432C232.288 48.941 229.501 48.0522 225.59 43.6131C221.412 39.5932 219.019 28.2512 222.027 22.1726C224.603 15.997 227.502 14.1231 229.121 12.7572C232.484 10.3583 233.579 10.2142 234.536 9.78627C236.256 9.16806 236.696 9.11624 237.157 8.99503C237.572 8.89884 237.799 8.85521 237.982 8.81953C238.334 8.75237 238.489 8.72838 238.617 8.70726C238.695 8.6947 238.688 8.69602 238.696 8.69475C238.702 8.69379 238.708 8.69285 238.713 8.69193C238.725 8.6901 238.736 8.68836 238.747 8.6867C238.768 8.68338 238.787 8.68037 238.805 8.6776C238.841 8.67206 238.871 8.66748 238.898 8.66349C238.951 8.65553 238.989 8.64988 239.021 8.64528C239.252 8.61195 239.17 8.62218 239.193 8.61735C239.192 8.6159 239.177 8.61615 239.163 8.61625C238.818 8.63249 238.458 8.63856 238.421 8.62072C238.14 8.47383 238.424 8.26201 238.852 8.08802C238.914 8.06528 238.969 8.04415 239.013 8.02532C239.069 8.0051 239.122 7.98594 239.106 7.97667C239.088 7.97619 239.113 7.96996 239.009 7.98122C238.958 7.98702 238.893 7.99423 238.72 8.01878C238.698 8.02195 238.674 8.02548 238.647 8.0295C238.633 8.03151 238.619 8.03365 238.604 8.03593C238.596 8.03713 238.59 8.03806 238.58 8.03965C238.511 8.05042 238.428 8.06374 238.31 8.08373C238.191 8.10419 238.043 8.12971 237.796 8.17753C237.536 8.23053 237.236 8.28253 236.456 8.48254C236.044 8.59397 235.539 8.71812 234.475 9.09953C233.929 9.30206 233.243 9.55626 232.121 10.1139C230.977 10.7455 229.424 11.3677 226.504 14.1413C225.088 15.5707 223.138 17.725 221.545 21.578C219.913 25.344 219.264 31.3889 220.923 36.4044C224.709 46.8293 230.625 48.6669 232.863 49.9697C237.866 52.0177 238.734 51.6259 239.854 51.8533C241.686 52.0115 242.039 51.9517 242.484 51.956C242.859 51.9482 243.119 51.9335 243.083 51.9356C243.151 51.9325 243.209 51.9294 243.262 51.9266C243.664 51.9037 243.783 51.8921 243.897 51.8836C244.099 51.8673 244.149 51.8629 244.166 51.8626C244.191 51.8613 244.207 51.8609 244.218 51.861C244.24 51.8611 244.24 51.8634 244.238 51.8659C244.222 51.8766 244.158 51.8914 244.093 51.9051C243.831 51.9603 243.498 52.0034 243.205 52.0148C242.807 52.0301 242.434 51.9912 242.218 51.8659ZM207.373 12.046C207.511 12.0714 210.674 11.9193 210.585 11.5324C209.746 11.3287 205.561 11.7381 207.373 12.046ZM181.211 15.4737C180.106 15.5397 177.968 15.21 178.311 16.0514C178.313 16.0512 178.314 16.051 178.316 16.0508C179.28 15.8583 180.245 15.666 181.211 15.4737ZM199.239 52.8847C197.146 51.5465 198.142 53.284 200.006 53.6817C200.539 53.0394 199.589 53.1021 199.239 52.8847ZM192.661 52.0228C192.537 51.9729 192.174 51.9529 191.68 51.9592C189.947 51.9802 186.422 52.3662 187.156 52.9297C187.447 53.1856 190.846 52.4328 190.977 52.4804C191.198 52.5469 190.27 53.3205 191.712 53.2085C191.784 53.2032 191.86 53.1959 191.943 53.1864C191.829 52.9124 192.862 52.1015 192.661 52.0228ZM197.523 52.0383C195.467 51.0329 195.033 53.0035 196.588 52.9664C197.191 52.9533 197.814 52.1835 197.523 52.0383ZM205.853 51.9628C205.078 51.8009 203.181 51.5869 201.805 52.2785C203.647 52.2805 205.437 52.2823 207.227 52.2819C207.419 51.9068 206.507 52.1061 205.848 51.9629C205.85 51.9629 205.851 51.9628 205.853 51.9628ZM219.83 80.4825C218.334 79.9069 221.801 79.7422 221.943 79.8878C222.365 80.3495 220.498 80.7371 219.83 80.4825ZM34.5939 40.269C34.1299 40.059 33.8493 39.3372 32.8637 39.7432C33.8573 40.2567 34.889 40.7692 35.8666 41.283C36.5876 40.0328 35.1215 40.5003 34.5939 40.269ZM30.708 35.8615C30.8403 35.8284 30.0561 33.9526 31.8712 35.1731C33.1321 35.9964 26.4861 36.9925 25.2918 36.1817C26.6074 35.7588 29.538 36.1336 30.708 35.8615ZM18.8976 27.9496C18.8087 27.8006 21.3185 27.5167 21.6277 27.6156C23.1624 28.1393 19.3164 28.7487 18.8976 27.9496ZM26.9341 28.1127C25.7541 27.7738 28.3406 27.4728 29.1527 27.6646C29.2163 28.0158 27.133 28.1615 26.9341 28.1127ZM203.403 53.3508C202.165 52.1053 201.159 54.9045 203.007 54.2908C203.097 54.2617 203.457 53.4121 203.403 53.3508ZM21.3061 25.9782C22.5154 26.3163 19.8928 26.6183 19.0997 26.4263C19.039 26.0754 21.1341 25.9286 21.3061 25.9782ZM202.463 50.3129C200.862 49.4313 201.49 52.523 201.697 52.6437C202.558 53.1242 205.257 51.7921 205.931 51.4549C201.591 52.111 203.251 50.7182 202.463 50.3129ZM194.935 52.3083C193.377 52.6547 197.368 53.2519 198.096 52.3712C197.337 52.4245 195.372 52.2089 194.935 52.3083ZM185.425 51.366C184.577 51.258 182.057 50.9999 181.64 51.4905C182.566 51.399 185.062 51.871 185.425 51.366ZM183.501 49.9068C182.183 49.2465 181.869 51.1847 183.39 50.6025C183.449 50.58 183.55 49.9436 183.501 49.9068ZM176.06 49.2308C175.187 48.463 174.203 50.342 175.61 50.3884C176.03 50.3987 176.153 49.3189 176.06 49.2308ZM200.396 47.0185C199.222 46.7115 197.703 48.0805 200.241 48.1822C199.364 48.4052 198.462 48.6248 197.557 48.8421C200.946 49.5458 200.631 47.6782 201.566 47.7345C202.853 47.809 202.795 49.3456 202.554 49.837C203.188 49.269 204.791 48.9614 207.104 48.7304C208.684 48.5747 210.287 48.4893 211.519 48.3925C210.297 48.2315 208.719 48.0231 207.071 47.8499C205.099 47.6563 203.58 47.4753 202.387 47.3736C201.757 47.3203 201.139 47.7572 200.579 47.722C199.681 47.6628 200.458 47.0396 200.401 47.0184C200.399 47.0185 200.398 47.0185 200.396 47.0185ZM166.257 49.2345C163.69 48.3718 165.322 50.2494 166.765 49.9081C166.827 49.882 166.32 49.2556 166.257 49.2345ZM17.7845 20.3383C21.2064 21.041 18.7492 22.1458 25.8589 20.385C22.8905 21.5806 25.7082 21.1959 25.1337 21.6628C24.6804 22.0321 22.928 21.7787 23.9467 22.475C22.5561 21.7243 16.8583 22.0811 16.3921 21.968C16.4011 21.9677 16.4093 21.9675 16.4169 21.9673C16.3768 21.9641 16.3987 21.9507 16.1662 21.9437C16.1361 21.943 16.1007 21.9425 16.056 21.9426C16.0336 21.9426 16.0088 21.9428 15.9807 21.9433C15.9667 21.9435 15.9518 21.9438 15.936 21.9442C15.9317 21.9443 15.9396 21.9438 15.9232 21.9447C15.8473 21.9495 15.7535 21.9553 15.5783 21.9702C15.3799 21.9909 15.2087 21.9914 14.4274 22.1149C13.9551 22.2208 13.5883 22.1716 11.5857 22.8846C10.5261 23.5043 8.85499 23.2652 4.95434 27.934C3.06915 30.2151 1.18145 35.7192 2.56638 40.3916C3.85272 45.032 6.38446 47.1845 7.81807 48.3432C10.8523 50.5239 11.9073 50.5245 12.7661 50.8517C13.5757 51.0806 14.0064 51.1525 14.3515 51.2146C15.0141 51.325 15.2916 51.3446 15.5256 51.3678C15.9616 51.4055 16.1144 51.4086 16.2517 51.4153C16.3801 51.4204 16.4554 51.4223 16.5157 51.4238C16.5824 51.4253 16.5999 51.4255 16.5962 51.4256C16.7316 51.4327 16.7637 51.4377 16.7952 51.4435C16.8488 51.4549 16.8484 51.4674 16.8522 51.4812C16.8448 51.5087 16.8887 51.5412 16.7927 51.5772C16.7777 51.5817 16.7582 51.5862 16.7274 51.5906C16.7119 51.5928 16.6934 51.595 16.6698 51.5971C16.6579 51.5981 16.6447 51.5991 16.6297 51.6001C16.6222 51.6006 16.6142 51.601 16.6057 51.6015C16.5533 51.5997 16.7631 51.6105 16.1889 51.5907C16.0256 51.5818 15.8595 51.5811 15.2849 51.5239C14.9638 51.4834 14.6217 51.4706 13.5337 51.234C12.9466 51.0813 12.2368 50.9777 10.4793 50.1812C9.58717 49.7359 8.35811 49.1718 6.53381 47.475C4.8263 45.8934 1.9709 42.1675 1.91141 36.8582C1.84331 31.5552 4.56942 27.808 6.20599 26.1894C7.95721 24.4565 9.15313 23.8567 10.0224 23.3853C11.7368 22.5364 12.4388 22.4071 13.017 22.2347C14.0906 21.9607 14.4315 21.9351 14.7502 21.8831C15.3211 21.805 15.4874 21.7979 15.6507 21.7828C15.7892 21.7715 15.9202 21.7634 15.9199 21.7632C15.9219 21.7629 15.9239 21.7627 15.926 21.7624C15.93 21.7618 15.9339 21.7613 15.9378 21.7608C15.9534 21.7586 15.968 21.7565 15.9818 21.7545C16.0094 21.7505 16.0338 21.7468 16.0558 21.7431C16.0998 21.7359 16.1347 21.7293 16.1643 21.723C16.2775 21.6979 16.336 21.6753 16.3607 21.6529C16.5118 21.4755 16.5306 21.255 16.6544 21.0415C16.8643 20.6157 17.2385 20.2266 17.7845 20.3383ZM185.394 46.4392C184.53 44.1563 184.213 47.7861 182.538 45.8971C180.323 48.6564 188.684 45.876 189.693 48.1923C180.634 47.9649 195.687 50.4647 189.348 47.0179C194.551 48.2512 191.049 46.5774 191.848 46.1296C192.028 46.0295 192.299 45.9721 192.604 45.9359C193.787 45.7998 195.57 45.9624 195.454 45.2901C195.452 45.2901 195.451 45.2902 195.449 45.2902C194.507 45.3314 193.561 45.3709 192.6 45.4094C191.782 45.4429 190.928 45.4758 190.099 45.5081C191.858 47.3354 188.19 46.8047 186.931 45.3125C186.423 45.6882 185.902 46.0637 185.394 46.4392ZM195.562 48.1023C195.44 48.076 193.717 48.195 192.621 48.3816C192.073 48.4775 191.667 48.5923 191.756 48.7169C191.867 48.7654 192.203 48.7899 192.624 48.7932C194.273 48.8069 197.295 48.5087 195.562 48.1023ZM212.841 47.2467C211.34 47.2598 208.986 46.9602 208.17 47.6823C209.704 47.6343 212.032 47.9488 212.841 47.2467ZM139.441 48.122C137.615 48.7709 143.356 48.69 141.667 48.0891C141.573 48.0596 139.516 48.0912 139.441 48.122ZM181.3 46.7991C179.467 46.1062 180.334 48.3274 181.694 47.7435C181.772 47.7091 181.385 46.8307 181.3 46.7991ZM20.5432 19.9995C20.6598 19.4515 25.5972 19.7125 26.4817 19.686C25.9882 20.2048 20.4191 20.6273 20.5432 19.9995ZM215.477 45.1852C212.45 43.2296 208.357 45.6043 207.892 45.5766C207.435 45.5417 208.121 44.6616 208.018 44.6421C207.949 44.6312 207.533 44.6403 206.948 44.665C205.309 44.7361 203.229 44.8823 203.102 44.9249C202.967 44.9762 203.724 46.1535 202.921 46.5613C203.552 46.2754 204.945 46.1097 207 45.9992C210.078 45.8365 213.356 45.9302 213.634 45.8464C213.983 45.7382 211.339 44.4937 215.472 45.1852C215.474 45.1852 215.476 45.1852 215.477 45.1852ZM206.726 45.3568C206.865 45.408 206.948 45.456 206.98 45.5006C207.001 45.5298 207.001 45.5575 206.984 45.5837C206.75 45.8722 204.462 45.9899 203.967 45.8578C203.211 45.6792 203.771 45.5484 204.594 45.4613C205.411 45.3736 206.648 45.329 206.726 45.3568ZM199.634 45.1339C199.309 45.0297 196.219 44.9689 195.949 45.5314C197.452 46.247 200.407 45.3844 199.634 45.1339ZM164.233 45.3963C163.4 45.4715 161.092 45.0508 160.964 45.5423C161.809 45.4663 164.1 45.8875 164.233 45.3963ZM37.3214 15.3018C35.9413 14.925 39.1454 14.6784 40.0607 14.8529C40.1415 15.1784 37.4172 15.3347 37.3214 15.3018ZM180.973 42.1077C180.488 41.9605 170.43 42.362 169.012 42.5973C170.401 42.9631 180.371 42.9627 180.814 42.7797C180.945 42.725 181.037 42.131 180.973 42.1077ZM202.127 41.6891C202.913 40.9425 203.449 41.7877 203.558 41.7944C204.45 41.869 207.105 41.588 206.559 42.3096C204.134 42.1447 200.638 43.1713 202.127 41.6891ZM163.501 42.1294C160.068 42.4125 166.663 43.1456 165.798 42.3942C165.74 42.3487 163.856 42.0996 163.501 42.1294ZM182.093 41.8935C182.689 41.4254 189.214 41.6311 192.574 41.7172C193.436 41.7392 194.088 41.7542 194.397 41.7517C193.782 42.2374 193.206 42.3453 192.579 42.3217C191.828 42.2922 190.981 42.0599 189.925 42.0959C189.403 42.1148 189.543 42.5621 189.487 42.5631C188.596 42.5883 189.262 42.0675 188.707 42.0623C188.359 42.0622 181.046 42.7204 182.093 41.8935ZM202.57 41.1743C202.875 40.9326 204.552 40.6971 206.79 40.5321C208.384 40.4163 209.717 40.3806 209.837 40.4246C210.891 40.8167 209.054 41.003 206.813 41.1215C204.503 41.2498 202.821 41.242 202.57 41.1743ZM181.171 40.9389C182.248 39.6841 187.224 40.5041 183.822 41.1406C183.493 41.1985 182.117 40.6606 181.171 40.9389ZM163.862 40.9358C163.698 40.8993 160.114 40.666 160.045 41.0652C160.567 41.2161 165.788 41.3324 163.862 40.9358ZM165.713 39.5814C165.628 39.5914 166.468 40.3551 164.79 40.2645C164.652 40.256 164.386 39.3936 162.276 39.7191C161.853 39.7861 161.183 40.3603 161.233 40.3955C163.445 41.7379 170.039 39.1206 165.713 39.5814ZM202.647 40.472C202.347 40.1174 203 39.015 203.655 39.5358C203.941 39.7603 203.451 40.4322 202.647 40.472ZM152.427 40.6606C152.473 40.6461 152.516 40.6319 152.554 40.618C152.971 40.4604 152.899 40.3387 152.551 40.2472C151.462 39.966 147.7 39.9903 147.429 40.1232C147.672 40.5212 152.232 40.7224 152.427 40.6606ZM40.4247 10.162C40.4231 10.1621 40.4215 10.1621 40.4198 10.1622C42.184 10.2674 41.1081 10.8395 41.189 10.8547C44.8896 11.5652 43.9164 10.3533 44.4913 10.1933C45.6963 9.84823 45.5313 11.3552 47.6384 10.6803C44.1584 11.686 47.3326 11.2223 47.4579 11.7539C47.8766 13.9257 42.791 10.8468 41.0863 11.3461C40.8512 11.4152 42.6465 12.0675 42.0379 12.2805C40.0243 12.9719 33.743 9.75788 40.4247 10.162ZM204.156 39.4193C204.409 39.1685 205.426 39.0559 206.733 39.0487C208.857 39.039 211.043 39.3652 209.942 39.7185C209.807 39.7607 208.303 39.8886 206.767 39.9467C204.895 40.0202 203.612 39.95 204.156 39.4193ZM133.583 68.6756C132.251 69.4287 135.602 69.6023 136.172 69.0875C136.433 68.8329 134.185 68.3416 133.583 68.6756ZM157.192 67.8888C158.898 67.5564 160.421 65.0314 158.325 65.6607C158.099 65.729 156.953 67.596 157.192 67.8888ZM50.358 95.366C52.5247 95.6134 51.9882 94.1675 50.5712 94.5921C50.0723 94.7402 50.29 95.3579 50.358 95.366ZM114.303 72.8792C114.45 72.9007 116.219 72.4514 116.096 72.118C115.365 72.0386 113.245 72.7207 114.303 72.8792ZM49.8032 95.7478C50.8729 95.1619 48.6057 94.6444 47.514 96.0619C48.1895 95.7881 49.6915 95.8088 49.8032 95.7478ZM177.391 37.5573C176.486 38.1905 173.92 38.0075 172.443 38.1204C172.283 37.304 176.34 37.7085 177.391 37.5573ZM149.786 67.9121C151.34 67.1274 147.795 67.1179 148.222 67.8296C148.268 67.8651 149.723 67.9451 149.786 67.9121ZM66.5486 43.959C65.4655 44.5612 69.1203 44.8399 68.0441 44.0909C67.997 44.0614 66.6123 43.9257 66.5486 43.959ZM82.3672 42.217C81.3747 42.1747 77.1841 42.8211 78.884 43.0598C79.1524 43.0912 82.3557 42.6651 82.3672 42.217ZM44.5764 9.60296C44.0644 8.77621 46.889 8.90661 47.34 9.04223C47.4964 9.0994 45.2082 10.6795 44.5764 9.60296ZM63.3855 91.4289C64.4123 90.9644 67.2922 90.0999 67.6337 89.4865C66.3226 90.1086 62.7388 90.7336 63.3855 91.4289ZM142.419 68.8992C143.943 69.6118 146.343 69.2003 145.588 68.0995C142.927 68.5371 146.048 69.1162 142.419 68.8992ZM43.7327 98.3901C44.5243 98.2565 44.8322 96.9924 44.7302 96.9635C43.7575 96.689 42.8547 98.1577 43.7327 98.3901ZM99.0775 77.6606C99.2835 78.1035 101.22 77.2041 100.848 77.0003C100.734 76.9249 98.9222 77.2938 99.0775 77.6606ZM144.924 37.5315C143.69 37.1174 147.41 36.5832 148.464 37.0913C149.012 37.8292 145.096 37.5726 144.924 37.5315ZM35.8532 46.3327C35.8801 45.6044 32.3179 46.3097 33.785 46.7926C34.1429 46.9149 35.8277 46.5788 35.8532 46.3327ZM71.0042 41.9795C68.8318 43.1389 78.4449 42.5008 75.7926 41.7602C75.5725 41.7225 71.1715 41.897 71.0042 41.9795ZM88.491 40.2276C88.0111 40.188 87.9674 37.7349 90.0111 38.4516C90.2785 38.5442 89.162 39.3181 89.3865 39.4414C89.5218 39.5057 93.7488 39.3933 93.9331 39.3218C94.1338 39.2362 93.8096 38.484 94.0112 38.3751C94.2397 38.2518 96.8819 38.6764 98.2246 38.5596C100.756 38.3364 100.971 37.6696 101.178 37.648C101.782 37.5903 102.838 37.9619 104.06 37.8599C110.216 37.3271 119.589 36.1903 124.541 37.3507C120.166 37.0048 116.073 37.8336 111.779 38.3124C112.945 36.8635 105.513 39.8176 109.848 37.9278C107.836 38.3388 90.0932 40.2563 88.4962 40.227C88.4944 40.2272 88.4927 40.2274 88.491 40.2276ZM164.072 67.7025C163.117 68.6615 168.532 67.7913 168.868 66.7797C168.138 66.7357 164.196 67.5912 164.072 67.7025ZM139.475 72.9773C139.021 73.186 138.749 74.8638 136.07 74.4116C136.067 74.4119 136.065 74.4123 136.062 74.4126C135.28 74.2809 136.076 73.7666 135.92 73.6463C135.859 73.5962 133.423 73.129 135.334 72.7227C138.289 72.0999 135.793 73.8793 137.372 73.6729C137.554 73.6474 140.449 72.3547 140.248 72.1882C140.225 72.1686 139.347 72.4783 139.191 72.419C138.594 72.1971 138.79 71.6568 138.709 71.6437C138.413 71.6195 133.805 73.149 133.021 72.5034C132.741 72.2896 140.458 70.6278 140.808 70.7154C140.922 70.744 141.007 71.1829 141.097 71.5904C141.169 71.924 141.245 72.2367 141.342 72.2864C141.437 72.3422 144.546 71.3866 144.974 71.4609C145.099 71.482 145.196 71.5097 145.269 71.5336C144.734 71.1646 147.61 70.8121 147.592 71.3118C147.559 71.5112 145.585 71.6612 145.496 71.6394C145.462 71.6295 145.432 71.6136 145.405 71.6035C145.732 71.9253 142.7 72.4378 141.279 72.9173C140.59 73.1439 140.255 73.3612 140.748 73.5472C138.88 74.2431 140.855 72.36 139.475 72.9773ZM130.437 75.1604C130.609 74.9844 130.783 74.8083 130.959 74.6319C127.707 75.486 123.832 75.3698 120.267 76.0043C119.378 76.1624 120.564 76.872 119.343 76.8393C118.378 76.8115 117.214 76.1765 117.681 75.8974C117.774 75.8304 119.784 76.0176 120.742 75.7958C123.608 75.133 122.756 74.4957 122.921 74.4448C123.123 74.3878 125.043 74.6264 126.089 74.4371C128.671 73.9664 129.811 73.3072 133.513 73.3953C131.496 74.2094 132.807 75.1407 130.437 75.1604ZM51.2199 42.6916C51.2958 42.1923 53.5734 42.4009 54.3819 42.246C54.3006 42.748 52.0178 42.5404 51.2199 42.6916ZM147.678 3.32158C146.989 4.14272 152.276 4.20897 150.867 3.57537C150.559 3.43464 148.33 3.31096 147.678 3.32158ZM171.351 3.21227C172.043 2.97242 169.215 2.46571 169.232 3.08739C169.247 3.28653 171.254 3.24365 171.351 3.21227ZM92.9011 83.8923C92.7943 83.9589 91.0363 84.4417 90.9684 84.4251C89.5416 84.0552 95.2862 82.39 92.9011 83.8923ZM200.004 1.46718C197.605 2.06448 204.903 2.07793 202.66 1.47232C202.57 1.4426 200.107 1.43884 200.004 1.46718ZM210.145 1.00446C209.568 1.05268 206.992 0.874777 206.962 1.12068C206.926 1.51812 209.878 1.69227 210.145 1.00446ZM43.9715 101.464C44.4807 102.27 40.8057 102.504 39.6635 102.908C39.1525 102.103 42.7583 101.898 43.9715 101.464ZM68.1927 94.753C51.6186 101.185 54.6158 98.285 69.064 93.9477C69.2947 94.4804 69.2674 94.2969 68.1927 94.753ZM47.3759 101.151C47.7785 100.444 49.5623 100.142 50.7721 99.8539C50.6609 100.306 48.1861 100.83 47.3759 101.151ZM141.375 2.23546C142.266 1.48026 146.329 2.28206 145.618 2.60217C145.447 2.67177 141.051 2.64664 141.375 2.23546ZM92.117 85.0217C92.7302 85.7256 88.7779 86.8735 88.4003 86.8162C86.9242 86.5483 91.8915 85.3095 92.117 85.0217ZM35.6432 42.2393C36.3064 41.4911 38.4452 41.6605 39.8113 41.5457C39.2375 42.1904 36.7789 42.1559 35.6432 42.2393ZM27.048 42.3389C27.0156 42.3267 27.1297 42.3325 27.4745 42.3298C27.8068 42.328 28.2386 42.3238 28.2632 42.3381C28.9474 42.6305 28.0766 42.8158 27.4545 42.8193C27.1481 42.8212 26.9818 42.772 27.0984 42.6827C27.1541 42.6383 27.2384 42.5861 27.2088 42.5288C27.1873 42.4712 27.0536 42.4096 27.048 42.3389ZM37.8504 3.59984C37.9099 3.57614 39.4322 3.58272 39.4643 3.60786C40.8075 4.23723 36.3301 4.21193 37.8504 3.59984Z" fill="var(--stroke-0, #FBDEA1)"/>
</svg>
