<svg preserveAspectRatio="none" width="100%" height="100%" overflow="visible" style="display: block;" viewBox="0 0 441 787" fill="none" xmlns="http://www.w3.org/2000/svg">
<path id="Subtract" d="M441 787H0V32.9814C2.97049 32.7506 5.9379 32.5214 8.86328 32.291C9.26097 31.0682 9.66222 29.8449 10.0664 28.6221C11.0435 30.1278 11.7724 31.729 12.1602 29.4561C10.4986 27.7982 16.422 29.6026 12.7529 30.7725C12.7286 32.0038 14.0838 33.257 13.2266 31.8447C13.5428 28.9372 21.2184 27.7625 18.2695 32.0508C18.2997 33.1224 20.5095 31.9658 20.3857 31.1777C18.9896 30.8114 20.2572 29.8864 20.0176 28.5322C20.3346 26.6032 25.9446 28.4781 23.0898 28.8506C26.4725 29.6418 21.9494 30.313 25.0479 30.2227C25.592 30.5234 27.9665 23.4781 28.9199 28.3252C28.4265 29.1196 28.3612 31.048 29.0986 29.4014C30.9091 27.1123 37.1596 24.4378 32.3867 28.8984C34.2475 32.0052 38.566 26.9513 38.957 29.8525C38.8923 31.7765 41.559 32.1955 42.2617 31.748C40.4463 31.6372 41.8922 30.366 41.8984 30.2344C41.725 29.6071 40.7206 30.8435 40.71 29.6475C44.838 28.5081 41.9193 34.7802 44.127 32.2686C44.4132 32.3921 44.649 32.4237 44.8506 32.3906C44.8174 32.3909 44.7842 32.3888 44.7666 32.2969C44.6293 31.9825 44.8965 31.7616 45.0498 31.9492C45.1182 32.1687 44.9864 32.3573 44.8691 32.3906C47.0382 32.0862 45.4045 24.0185 48.7041 28.0635C50.1497 29.1885 50.5388 31.5509 51.8564 30.4365C52.6306 33.5849 52.5793 28.4249 54.6201 29.8516C54.6221 29.8586 54.6422 29.8648 54.6436 29.8721C54.9249 30.0742 55.2477 30.3909 55.6162 30.8799C55.6721 31.5749 55.9084 31.2937 56.2061 30.7607C56.1855 30.7795 56.1618 30.8036 56.1338 30.8154C55.5355 31.1667 55.7068 29.8124 55.9404 29.8076C56.1231 29.8062 56.3699 30.3134 56.2881 30.6172C56.8732 29.5247 57.6345 27.7299 57.7178 30.1387C58.9273 30.5712 57.0605 31.7248 57.4238 33.1426C57.9259 33.0753 58.175 30.7032 59.4219 31.3242C59.8172 30.4058 57.9488 29.4716 59.0205 29.5254C60.0151 30.0854 61.3075 27.5551 61.4922 30.0479C62.8397 29.1216 62.3176 28.5212 63.3164 29.9658C64.6693 33.8687 65.1696 22.8195 66.2051 31.0205C67.8087 32.5858 65.0731 25.3741 68.043 28.0654C66.7139 31.7375 69.2273 27.2417 70.1631 29.0654C71.2497 28.8043 71.0879 27.2237 72.5781 27.3066C70.3027 29.533 74.0711 29.8255 75.5615 30.4141C73.6638 29.4812 78.1364 28.9054 76.042 29.3945C77.649 37.7163 78.0136 30.0464 80.0977 31.3555C80.1065 32.5222 80.984 31.4451 81.3506 31.3467C79.5331 31.2336 80.9843 29.9619 80.9883 29.832C80.7176 29.739 78.8659 29.4718 80.3818 29.0508C82.6794 29.3297 82.3058 30.7783 82.2588 31.6455C82.1873 31.6873 82.1074 31.7208 82.0166 31.7217C82.1138 32.0378 82.2797 32.2093 82.459 32.2529C82.6579 32.3383 83.0393 32.2867 83.7334 31.9932C83.5969 31.6789 83.8628 31.4583 84.0156 31.6455C84.0496 31.7394 84.0339 31.7994 84.0176 31.8623C84.1514 31.7984 84.2528 31.7682 84.4033 31.7041C85.0835 32.2676 88.2874 33.6633 88.9248 32.3975C89.6843 31.7928 89.1142 30.693 89.04 29.7471C89.2342 28.9896 89.6479 28.9817 89.8164 29.2949C89.8652 29.1686 89.9657 29.1363 90.0518 29.293C90.0536 29.5133 89.9659 29.4879 89.8672 29.457C89.9015 29.6777 89.8375 29.9595 89.5742 30.2451C89.8247 30.4326 89.9254 30.5595 90.1436 30.1797C92.1279 26.9166 90.6959 31.4705 92.9482 31.7393C94.1178 28.9848 93.9126 30.3089 95.6465 30.9287C95.9061 30.0129 96.3023 29.5997 96.7305 29.376C96.7138 29.3447 96.6972 29.3109 96.7295 29.248C96.7627 29.2478 96.8285 29.2494 96.8779 29.2803C97.7207 28.9276 98.7205 29.2032 99.3691 28.3154C100.44 27.8667 100.335 29.6961 99.7646 29.5127C99.768 29.5119 99.7817 29.5049 99.7959 29.4512C99.7858 29.4511 99.7063 29.4477 99.6123 29.4189C99.5449 29.3564 99.4934 29.3243 99.4258 29.2305C99.1035 30.7464 101.602 29.3758 101.041 27.959C102.129 28.8354 101.738 27.2923 102.638 28.2002C101.866 29.1512 102.018 29.5007 102.482 29.624C102.433 29.5615 102.415 29.4947 102.447 29.4004C102.563 29.3685 102.631 29.5882 102.73 29.5879C102.795 29.6184 102.829 29.6518 102.846 29.6826C103.072 29.6812 103.298 29.6792 103.523 29.6777C102.306 28.2015 104.551 25.9823 104.677 27.875C104.579 28.5722 104.373 30.6187 104.944 30.0488C106.991 30.7303 103.886 27.944 105.834 26.4795C107.473 26.5641 109.878 31.4069 110.334 28.5049C110.295 27.843 111.443 29.2166 111.189 29.1572C110.777 29.6956 109.725 28.854 110.032 30.1465C109.955 33.8398 109.708 30.8401 109.215 31.2217C109.321 32.2934 107.99 30.8217 109.045 30.2471C108.55 30.1238 107.492 28.5214 107.04 28.6807C107.048 29.942 106.644 29.5702 106.449 30.6758C107.12 30.2627 108.624 31.9209 107.644 31.9902C110.444 33.0777 111.254 31.5915 112.183 28.3047C115.433 31.3512 113.615 28.722 114.15 28.1055C114.121 28.1431 114.109 28.1903 114.122 28.2598C114.328 29.1623 115.045 28.4482 114.981 28.0859C115.175 28.1575 115.408 28.2563 115.683 28.4072C113.966 29.7751 116.736 34.3985 119.612 31.8271C118.942 31.4832 118.854 30.8849 118.064 32.0254C117.33 30.9883 118.316 30.764 118.933 29.8457C116.744 27.869 119.741 28.5416 120.612 29.1055C119.926 27.4392 120.412 28.5689 120.854 27.7158C121.337 28.9759 121.031 29.3625 121.967 30.3047C118.992 27.2893 118.954 31.5154 121.568 32.4814C121.814 32.4487 122.042 32.4163 122.253 32.3838C121.992 32.2587 121.648 31.9768 121.27 31.7578C121.185 30.6539 122.259 30.742 122.771 30.8027C122.861 31.6857 122.828 32.1302 122.691 32.3203C127.22 31.7938 128.352 33.1131 131.478 31.0498C132.839 31.5182 132.289 29.026 132.935 28.707C133.39 31.0726 134.891 29.7735 136.113 30.6221C137.656 32.8269 140.324 32.6337 142.312 31.749C142.283 31.7491 142.266 31.7521 142.236 31.7217C142.115 31.4068 142.35 31.1818 142.506 31.3691C142.498 31.3876 142.401 31.687 142.329 31.749C142.843 31.5278 143.38 31.2731 143.84 30.9893C143.79 30.9893 143.74 30.9911 143.674 30.9287C143.674 30.906 143.676 30.3298 143.773 30.2041C144.023 30.3305 144.039 30.7708 143.924 30.9287C144.454 30.6134 144.916 30.2665 145.289 29.9199C145.243 29.9194 145.181 29.8889 145.149 29.9199C145.014 28.9738 145.891 28.9709 145.705 29.6016C145.705 29.6644 145.706 29.7017 145.69 29.7646C146.69 29.9239 147.399 31.0604 148.227 28.666C148.226 28.8533 148.225 29.0412 148.225 29.2285C148.226 29.0426 148.316 29.0709 148.391 29.1338C148.39 29.3226 148.315 29.262 148.224 29.2617C148.256 30.478 148.618 29.7836 149.063 29.2422C149.39 28.8991 149.773 28.6177 150.158 28.9248C151.485 26.5953 149.51 31.0047 153.065 30.3281C152.9 30.2322 152.787 29.9117 152.938 29.5342C152.95 29.5518 153.19 29.8872 153.418 29.9502C153.418 29.9805 153.401 29.9808 153.385 30.0107C153.602 29.7918 153.788 29.607 153.923 29.5127C153.889 29.5119 153.839 29.4793 153.822 29.417C153.896 29.4173 153.969 29.4176 154.043 29.418C154.636 29.1061 154.65 30.0826 154.727 31.7861C154.264 32.5082 155.272 32.1088 154.931 32.0439C154.887 29.9294 156.192 32.8338 156.874 32.1143C160.013 31.7825 154.441 29.6389 156.12 29.3945C155.676 30.6858 158.33 30.0068 156.856 29.0527C156.959 28.0113 159.078 27.7393 158.415 28.7148C158.287 30.2579 157.168 30.7585 158.849 30.8301C159.023 32.2511 159.684 32.5709 160.46 32.417C160.108 32.0048 159.244 30.8961 160.314 31.1221C159.291 31.4323 160.712 31.6287 160.511 32.3838C160.612 32.3841 160.73 32.3524 160.831 32.29C161.14 31.377 161.445 31.6636 161.393 32.042C162.074 31.6667 162.708 31.07 163.165 30.5674C161.326 29.4843 163.359 24.8876 163.038 29.4902C163.564 30.9435 164.593 30.3178 163.496 28.1035C166.372 30.0749 163.876 30.6963 162.772 32.4893C164.268 33.0002 165.873 28.8455 165.876 32.2549C164.641 31.8075 166.002 32.9815 166.574 32.3867C174.039 31.9835 164.494 27.0379 170.951 28.5557C173.984 32.1695 171.37 28.9701 171.953 27.1104C172.323 28.3149 174.996 31.5774 173.498 32.4844C174.808 31.7496 178.336 33.7021 179.317 31.8926C179.587 32.2627 180.019 32.1689 180.256 31.6328C179.963 30.8123 179.792 31.2088 179.486 31.4395C179.609 30.9515 179.609 30.2854 179.446 29.3867C181.335 30.944 184.296 33.7116 186.471 31.8301C186.472 31.6091 186.54 31.3879 186.74 31.5469C186.841 31.4216 186.958 31.3553 187.06 31.2305C189.586 30.5815 186.022 27.4673 188.738 28.9971C188.751 29.7544 188.865 30.2333 189.013 30.5498C189.013 30.4872 188.997 30.4195 189.014 30.3877C189.348 30.2318 189.332 30.2941 189.562 30.9258C189.561 30.9881 189.528 30.9618 189.511 30.9932C190.69 31.3468 192.938 28.7048 193.771 30.6982C193.317 31.0374 193.555 31.186 193.93 31.377C193.896 31.3493 193.872 31.2908 193.868 31.207C193.878 31.1928 194.008 31.0112 194.152 30.9512C194.225 31.2794 194.04 31.4529 193.935 31.377C194.321 31.5735 194.851 31.8195 194.916 32.3779C197.869 31.9519 192.507 28.2901 196.023 29.1934C196.123 29.2884 196.224 29.3846 196.308 29.4795C196.196 28.7875 196.798 29.0118 196.662 29.3262C196.653 29.33 196.358 29.4518 196.308 29.5137C196.468 29.6769 196.628 29.817 196.783 29.9365C197.432 29.4129 196.636 29.0077 196.902 28.6973C197.657 28.4245 197.535 29.9553 196.803 29.9502C197.094 30.1694 197.369 30.298 197.628 30.2188C197.713 29.9991 197.98 29.747 197.964 29.9639C198.216 29.6811 198.437 29.1448 198.627 28.1992C200.349 28.7776 198.908 31.6452 199.021 32.4355C199.154 32.4363 199.24 32.371 199.357 32.3086C199.392 32.1829 199.443 32.0582 199.51 32.0586C199.509 32.1217 199.509 32.186 199.509 32.249C200.838 31.4988 200.878 28.2443 202.097 28.4092C203.217 28.4789 202.695 29.0474 203.85 29.4014C203.813 27.0962 204.42 29.3732 204.84 29.4072C205.1 30.7305 205.41 29.9148 206.449 29.416C206.161 27.2364 208.002 27.0862 206.556 28.3398C206.193 30.2003 209.5 31.6707 207.939 29.2627C207.939 29.3054 207.939 29.3489 207.938 29.3916C207.931 29.3836 207.826 29.2623 207.907 29.2627C207.907 29.2425 207.907 29.2213 207.907 29.2012C207.905 29.198 207.889 29.17 207.874 29.1406C207.885 29.1407 207.897 29.1406 207.908 29.1406C207.908 29.1606 207.907 29.1812 207.907 29.2012C207.924 29.2023 207.942 29.2316 207.958 29.2627C207.958 29.2222 207.958 29.1811 207.958 29.1406C209.197 29.211 208.998 29.1435 210.191 28.5508C210.303 29.4987 207.761 31.282 210.04 31.3271C210.594 34.0132 212.795 32.8268 214.33 31.1631C213.632 30.1809 212.899 29.4551 212.262 29.6406C211.828 29.5776 213.796 33.435 211.642 32.4756C210.364 30.4799 212.769 31.6271 210.318 29.751C212.133 28.6572 211.852 28.4385 213.986 27.0625C213.93 27.8792 213.295 27.9741 212.892 28.2549C213.305 29.4844 215.084 28.521 214.519 30.5684C216.912 31.2771 214.712 29.399 215.267 29.0547C217.284 33.36 219.383 33.2506 221.952 31.751C224.617 31.8936 224.615 32.5566 227.256 32.9834C229.976 33.2843 230.453 33.4441 231.047 29.2197C230.847 31.5864 238.654 35.3527 238.207 31.501C237.662 30.1512 238.013 29.7872 238.576 29.7012C238.562 29.7101 238.547 29.7138 238.536 29.7344C238.568 29.9865 238.783 30.0849 238.785 29.8652C238.786 29.7713 238.736 29.7068 238.687 29.6748C239.215 29.6468 239.893 29.7741 240.229 29.6504C240.428 32.7135 241.479 32.0303 242.851 30.6504C241.518 27.7055 244.427 33.0288 245.07 30.3193C246.841 26.2281 245.202 33.7566 248.206 29.2627C248.055 32.671 249.627 33.1265 252.115 33.1436C252.253 30.651 253.613 34.793 255.064 31.8359C254.514 31.0745 252.219 31.6901 253.649 29.2383C254.429 29.3385 257.206 32.7317 255.281 29.8457C255.87 28.7454 257.777 27.9756 256.591 30.3975C257.22 33.4938 258.2 34.3529 261.054 32.8271C260.211 32.2531 260.68 32.1636 259.518 32.7549C259.076 33.3459 259.416 31.0503 260.302 31.0879C259.015 28.6793 261.145 29.7611 262.119 30.1787C261.543 28.5666 261.748 29.5757 262.419 28.792C262.782 29.9622 262.613 30.4357 263.494 31.3887C261.033 29.0671 260.22 31.052 262.486 33.5625C264.071 31.9657 269.78 36.3602 269.633 31.1562C270.266 31.4467 270.302 33.339 269.58 33.5547C269.876 33.5054 270.814 33.6288 271.471 33.4746C272.053 33.3462 272.437 33.0238 272.105 32.2461C274.104 33.0195 273.853 30.9971 274.5 29.9287C277.262 34.0232 284.009 36.0004 287.168 32.624C287.119 32.5894 286.985 31.0914 287.034 31.0508C287.066 31.055 287.032 31.7473 287.496 32.1592C287.557 31.4941 287.855 31.6784 287.185 31.0518C289.997 33.0057 289.4 28.3944 290.117 31.4014C291.612 30.2178 292.691 28.3035 292.771 32.2168C294.062 29.9912 296.797 32.8359 296.521 29.3291C296.633 29.5512 296.808 29.8349 297.01 30.1211C297.018 30.1243 297.29 30.1977 297.288 30.3828C297.287 30.4433 297.269 30.4428 297.236 30.4424C298.065 31.4636 299.122 32.2056 298.716 30.0225C300.264 28.5292 300.348 30.5508 299.429 32.1475C300.962 32.1073 300.536 34.4386 302.429 33.8066C303.035 34.0349 304.967 32.0146 304.235 31.7168C303.758 30.0693 303.007 31.8215 304.505 28.5986C304.471 30.6817 304.425 32.5428 305.675 31.3975C305.491 30.7312 304.175 29.0962 305.629 30.0684C307.627 32.3456 304.978 32.2096 304.228 34.0273C306.843 33.4166 306.299 31.5419 308.101 33.9658C308.086 33.9656 308.071 33.9651 308.056 33.9648C308.05 33.9673 307.907 34.0298 307.853 34.0908C307.969 34.0927 308.086 34.0939 308.203 34.0957C308.562 34.5687 310.129 34.0257 311.016 33.3174C311.557 32.876 311.862 32.3725 311.461 32.0166C311.521 30.8907 311.291 31.0219 311.038 31.2207C310.717 31.4607 310.369 31.7979 310.438 30.1426C310.634 29.9027 310.84 29.7681 311.055 29.7129C312.412 29.3519 313.918 32.3903 315.017 31.5771C313.611 31.5045 313.267 26.8927 314.692 29.7119C315.022 33.9113 318.836 35.8874 321.953 33.2402C321.081 29.1039 324.161 33.0242 325.385 34.0967C329.317 36.3016 328.427 29.481 330.36 30.4238C331.088 31.7471 331.644 32.2217 332.198 32.3145C332.005 32.1888 331.834 31.8389 331.918 31.4287C332.193 31.3963 332.301 31.5225 332.511 32.1514C332.494 32.2455 332.441 32.2828 332.39 32.3145C333.236 32.3424 334.105 31.7386 335.577 32.2979C337.023 27.9 337.06 31.5955 339.177 29.8711C338.94 30.0633 337.272 30.3579 338.306 28.8027C338.926 29.3298 339.37 29.7969 339.789 29.916C339.974 29.966 340.154 29.9549 340.341 29.8594C340.267 29.7658 340.402 28.8784 340.509 28.8408C340.619 28.8083 340.715 28.9355 340.717 29.0615C342.2 28.2534 342.87 26.5999 342.735 33.3281C344.051 33.5897 345.49 25.4495 347.554 26.0527C348.996 25.8222 352.009 28.3243 350.336 29.415C350.365 29.6857 350.397 29.9047 350.43 30.083C350.416 30.1247 350.405 30.1692 350.399 30.1719C350.342 30.2982 350.031 29.8668 349.971 30.0557C349.973 30.0661 350.009 30.2504 350.013 30.373C350.015 30.497 349.923 30.5636 349.926 30.6875C349.93 30.8135 350.107 30.9378 350.064 31.0967C349.906 31.1016 349.763 31.2304 349.595 31.1104C349.461 31.0506 349.583 30.7024 349.303 30.8682C349.301 30.8257 349.3 30.7827 349.299 30.7402C349.238 30.9944 349.144 31.2219 349.062 31.3506C349.069 31.346 349.282 31.2135 349.416 31.2715C349.483 31.2698 349.554 31.3965 349.636 31.3945C349.8 31.3892 349.872 31.0727 350.072 31.3809C350.137 31.4424 350.083 31.6933 350.175 31.6289C350.297 31.499 350.256 31.1541 350.327 30.8994C350.386 30.7265 350.482 30.6713 350.585 30.6211C350.74 30.903 350.922 30.6772 351.135 30.4365C351.048 30.4389 350.923 30.281 350.963 30.1221C350.971 30.124 351.202 30.1842 351.22 30.3389C351.477 30.048 351.77 29.8159 352.097 30.4385C352.707 28.0894 353.504 30.5316 353.784 30.2139C353.9 30.5785 354.452 29.7564 355.106 28.9639C355.017 28.6401 355.366 28.3176 355.58 28.0879C355.804 27.8579 356.081 27.7182 356.347 27.7559C356.826 27.8318 357.112 28.6149 357.044 30.7891C360.046 33.6624 353.838 25.3243 362.247 29.3447C362.185 28.682 362.233 28.2963 362.328 28.0439C362.234 27.823 362.203 27.5085 362.377 27.4141C362.552 27.3198 362.697 27.5756 362.762 27.8281C364.177 28.179 367.631 34.31 366.046 29.666C362.185 25.2675 367.316 24.2113 367.845 29.7383C365.98 30.8376 368.401 30.9709 367.77 33.2412C366.524 34.121 368.739 33.4607 368.871 33.6504C371.638 33.2794 367.575 28.0337 371.277 29.4648C373.45 28.0829 375.098 34.6185 379.865 33.5947C381.241 21.9864 381.76 34.1737 384.198 32.1006C385.324 29.0743 384.681 30.5841 386.719 31.9814C387.04 29.1418 391.22 29.1936 390.208 31.21C391.851 34.688 392.69 25.6646 393.384 30.207C394.976 29.3289 399.89 21.8403 400.328 29.6406C400.005 30.5761 399.681 31.5118 399.358 32.4473C399.677 32.4486 399.996 32.4508 400.315 32.4521C400.314 32.8297 400.296 33.1767 400.261 33.6172C400.376 33.3333 423.837 32.5531 424.097 32.0801C424.087 21.387 424.077 10.6932 424.067 0H441V787ZM346.961 31.2197C346.266 30.9221 346.748 31.8876 346.659 32.1426C346.48 32.4932 345.737 32.0381 345.795 32.8887C346.312 32.8769 346.861 33.1124 347.289 33.6367C347.329 33.699 347.41 33.8289 347.489 33.9844C347.68 33.9792 347.878 33.9731 348.065 33.9678C348.254 33.4261 348.458 32.9773 348.747 32.5586C348.295 32.1617 347.737 32.0454 347.219 31.6807C347.063 31.5587 347.057 31.3413 346.999 31.2793C346.987 31.2796 346.975 31.28 346.963 31.2803C346.962 31.2603 346.961 31.2397 346.961 31.2197ZM367.071 32.5137C367.061 32.7628 366.213 32.698 366.132 32.918C366.134 32.9327 366.163 33.1681 366.131 33.168C366.103 33.1785 365.5 33.4162 365.403 33.3564C365.403 33.5446 365.532 33.613 365.581 33.7695C365.867 33.7703 366.157 33.7716 366.451 33.7725C366.46 33.7564 366.59 33.5151 366.673 33.4541C366.802 33.3913 367.281 33.2691 367.635 33.207C367.635 33.1667 367.635 33.1253 367.635 33.085C367.575 33.0848 367.516 33.0842 367.457 33.084C367.463 33.0617 367.469 33.0389 367.475 33.0166C367.477 33.0156 367.193 32.7042 367.155 32.7041C367.087 32.5777 367.158 32.3869 367.228 32.2295C367.164 32.1865 367.1 32.1435 367.037 32.1006C367.039 32.1159 367.071 32.4514 367.071 32.5137ZM256.17 32.2578C256.161 32.5056 255.33 32.4398 255.24 32.6572C255.242 32.6693 255.27 32.9055 255.238 32.9082C255.23 32.9131 255.012 33.0344 254.778 33.0947C254.778 33.1374 254.778 33.181 254.777 33.2236C254.776 33.4119 254.743 33.4786 254.677 33.541C254.942 33.5429 255.218 33.545 255.487 33.5469C255.494 33.5345 255.626 33.2907 255.709 33.2295C255.845 33.1673 256.283 33.0458 256.668 32.9854C256.668 32.9429 256.669 32.8999 256.669 32.8574C256.607 32.857 256.546 32.8559 256.484 32.8555C256.512 32.8243 256.54 32.7929 256.567 32.7617C256.544 32.7356 256.29 32.4534 256.254 32.4473C256.188 32.3208 256.255 32.1308 256.323 31.9736C256.262 31.9304 256.2 31.887 256.139 31.8438C256.14 31.8583 256.17 32.196 256.17 32.2578ZM301.525 32.8096C301.484 31.2008 302.661 32.4814 302.224 33.4844C301.803 33.5073 302.165 32.3476 301.525 32.8096ZM262.967 32.4277C263.168 30.9466 264.748 31.0577 264.647 32.9824C263.766 33.7017 263.706 32.4964 262.967 32.4277ZM250.684 31.2031C248.964 28.9821 253.122 30.1471 251.742 31.2109C251.376 35.6589 251.366 30.5837 250.771 32.8838C249.722 31.3307 250.894 31.7715 250.684 31.2031ZM166.267 32.8867C166.255 32.8924 166.132 32.9549 166.084 33.0146C166.211 33.0153 166.338 33.0159 166.466 33.0166C166.462 33.0093 166.431 32.9468 166.4 32.8877C166.356 32.8875 166.311 32.8869 166.267 32.8867ZM308.48 32.9277C308.369 31.8549 308.932 32.1798 308.868 32.873C308.832 32.8094 308.57 33.0232 308.48 32.9277ZM374.575 32.376C374.197 31.3014 374.04 32.3119 373.503 32.3105C373.729 33.0368 374.288 33.0371 374.575 32.376ZM318.636 32.6025C320.422 30.5874 316.953 29.5029 320.026 30.0801C320.229 31.4378 320.022 33.0802 318.636 32.6025ZM326.965 30.4912C327.808 31.5315 326.505 33.1412 326.056 32.5449C327.552 31.8494 325.797 30.8712 326.965 30.4912ZM284.052 32.6006C283.926 32.2839 284.182 32.0677 284.339 32.2578C284.329 32.2912 284.138 32.8421 284.052 32.6006ZM349.409 32.1875C349.447 32.3125 349.484 32.4426 349.453 32.5381C349.481 32.481 349.54 32.3599 349.563 32.3115C349.497 32.3133 349.428 32.2497 349.409 32.1875ZM377.961 27.876C379.086 29.459 379.365 32.8705 377.435 32.2637C379.585 31.0404 375.132 28.2134 377.961 27.876ZM279.92 32.2783C279.059 32.5547 279.116 31.2328 279.958 31.6816C280.228 31.7787 280.143 32.0281 279.92 32.2783ZM225.369 32.1787C225.238 31.8626 225.507 31.6448 225.656 31.835C225.753 32.1506 225.468 32.4308 225.369 32.1787ZM266.101 29.0771C265.525 27.1784 269.456 31.5278 267.37 31.7969C265.644 32.9512 268.388 30.452 266.101 29.0771ZM282.535 30.6006C282.787 30.7316 282.959 31.8348 282.674 31.9912C282.578 31.4222 282.312 30.9458 282.535 30.6006ZM383.305 31.0879C383.49 30.9625 383.945 31.2759 383.911 31.6855C383.84 32.2835 383.17 31.7489 383.305 31.0879ZM285.573 31.1035C285.929 31.2974 285.807 32.1746 285.468 31.8281C285.468 31.8281 285.474 31.2295 285.573 31.1035ZM235.66 31.2949C235.471 29.4979 236.795 32.3159 234.952 31.832C234.854 31.2949 235.524 31.231 235.66 31.2949ZM166.661 31.8457C166.55 30.7735 167.066 31.0923 167.013 31.7861C166.979 31.7239 166.744 31.9399 166.661 31.8457ZM221.694 30.1709C220.3 28.0157 225.495 30.8552 223.577 31.8223C220.609 31.8984 223.453 29.7085 221.694 30.1709ZM85.9307 31.6934C86.0928 30.9028 86.9585 30.1696 87.4639 30.8291C87.0326 31.2112 86.47 32.162 85.9307 31.6934ZM228.274 31.377C227.493 30.2356 229.718 30.9094 228.945 31.252C228.404 32.1953 226.962 31.7476 228.274 31.377ZM308.573 31.541C308.502 30.1539 309.713 31.4922 308.995 31.7979C308.988 31.7944 308.715 31.6677 308.573 31.541ZM272.233 31.2988C272.433 31.6469 272.617 31.7758 272.195 31.7725C272.197 31.6151 272.232 31.4562 272.233 31.2988ZM272.421 30.8936C272.608 30.7688 273.056 31.0851 273.02 31.4951C272.949 32.0924 272.284 31.5538 272.421 30.8936ZM176.033 29.0566C177.084 28.242 178.676 30.519 176.978 31.2363C174.929 32.8035 178.062 29.5099 176.033 29.0566ZM280.805 31.1543C280.869 31.3121 280.85 31.5273 280.734 31.6211C280.744 31.5811 280.834 31.1903 280.805 31.1543ZM240.862 30.6709C240.963 30.6715 240.946 30.6717 240.895 30.8604C242.152 30.4593 240.883 32.8435 240.862 30.6709ZM376.308 31.5625C376.057 29.8888 377.385 30.4947 377.128 31.2197C377.115 31.2251 376.442 31.5311 376.308 31.5625ZM138.16 31.4707C137.356 31.7551 137.401 30.435 138.19 30.874C138.464 30.9682 138.371 31.2177 138.16 31.4707ZM368.002 31.3174C367.972 30.4025 368.347 30.3993 368.595 31.0615C368.526 31.7236 368.246 31.4129 368.002 31.3174ZM317.913 30.832C318.137 30.8331 318.38 31.1461 318.311 31.4297C318.207 31.2401 317.981 31.1158 317.913 30.832ZM283.662 30.8008C283.67 30.8065 283.824 30.9301 283.823 31.1143C283.752 31.9017 283.253 30.924 283.662 30.8008ZM278.259 30.9424C278.193 31.2242 278.704 31.2598 278.67 31.291C278.356 31.4457 278.138 31.5382 278.259 30.9424ZM183.803 29.7891C184.732 29.5734 184.808 31.2492 183.862 31.4023C183.376 30.8946 184.367 31.3387 183.803 29.7891ZM363.512 30.0381C363.227 29.9112 363.41 30.3522 363.376 30.3838C363.308 30.5721 363.029 30.386 363.028 30.7012C363.208 30.7018 363.441 30.8276 363.592 31.0479C363.659 31.1116 363.728 31.4558 363.812 31.3945C363.949 31.0804 364.036 30.7981 364.208 30.6094C364.185 30.6093 364.162 30.6094 364.14 30.6094C363.894 30.6088 363.61 30.6046 363.538 30.3369C363.529 30.2806 363.521 30.2233 363.512 30.167C363.512 30.1243 363.512 30.0807 363.512 30.0381ZM124.427 27.4141C125.469 29.4611 127.562 31.0045 124.866 31.3955C126.632 29.5565 124.173 29.8458 124.427 27.4141ZM269.966 31.2197C269.94 30.3044 270.324 30.3099 270.566 30.9746C270.495 31.6314 270.215 31.3163 269.966 31.2197ZM300.594 30.3965C301.565 31.3876 300.8 27.7806 301.78 29.8799C302.993 29.2054 301.797 33.0333 300.594 30.3965ZM257.215 31.1074C257.372 30.972 257.568 30.2568 257.753 30.8115C257.746 30.9038 257.735 30.9787 257.72 31.0352C257.75 30.9334 257.862 30.8451 258.034 30.9092C258.033 31.0982 258.096 31.2543 257.898 31.2529C257.745 31.2516 257.692 31.1429 257.718 31.042C257.62 31.3868 257.373 31.1094 257.215 31.1074ZM295.253 31.21C294.419 31.5781 295.081 29.3124 295.326 30.5469C294.933 30.6998 295.681 30.8682 295.253 31.21ZM91.8311 30.3916C92.0155 30.2651 92.4693 30.5746 92.4395 30.9844C92.376 31.5826 91.7028 31.0544 91.8311 30.3916ZM155.173 30.7441C155.271 31.1538 154.888 31.3448 154.885 31.001C154.883 31.001 155.029 30.8067 155.173 30.7441ZM44.3857 31.1621C43.9654 31.0385 44.4788 30.0603 44.5527 30.8486C44.5487 30.8677 44.4834 31.1613 44.3857 31.1621ZM233.837 31.1611C233.74 30.6562 233.991 30.5935 234.089 31.0342C233.972 31.0339 233.904 31.1616 233.837 31.1611ZM140.724 29.7656C140.968 29.8921 141.146 30.996 140.888 31.1543C140.79 30.5868 140.529 30.1131 140.724 29.7656ZM265.719 30.2734C266.042 30.2131 266.376 30.5301 266.222 31.002C265.78 31.4709 265.901 30.6857 265.719 30.2734ZM130.529 30.7686C130.963 30.7354 130.7 31.1785 130.499 31.0869C130.499 31.076 130.498 31.0646 130.498 31.0537C130.497 30.8651 130.529 30.707 130.528 30.5186C130.529 30.6017 130.529 30.6854 130.529 30.7686ZM130.729 30.1719C130.912 30.0455 131.359 30.3556 131.328 30.7656C131.265 31.3641 130.601 30.8339 130.729 30.1719ZM218.94 31.001C218.622 30.9988 218.726 30.5282 219.077 30.6562C219.076 30.8454 219.142 31.0021 218.94 31.001ZM265.53 30.3936C265.427 30.5821 265.458 30.9325 265.458 30.9961C265.305 30.9942 265.462 30.4572 265.53 30.3936ZM271.785 29.8457C272.005 30.163 272.171 30.5772 272.201 30.9873C272.202 30.9873 271.678 30.5706 271.785 29.8457ZM77.3135 30.9629C76.9949 30.965 77.093 30.4926 77.4463 30.6162C77.4492 30.6312 77.5103 30.9614 77.3135 30.9629ZM76.5068 30.7861C76.4665 29.8711 76.8527 29.8638 77.1094 30.5244C77.0471 31.1867 76.7593 30.8792 76.5068 30.7861ZM286.971 30.833C286.833 29.8855 287.772 29.8932 287.569 30.5205C287.595 31.2128 287.173 30.7739 286.971 30.833ZM85.1699 30.8447C85.118 30.3421 85.8026 30.3376 85.6211 30.5908C85.6067 30.5982 85.3643 30.7209 85.1699 30.8447ZM139.034 30.3369C139.103 30.4946 139.087 30.7098 138.967 30.8047C138.973 30.7764 139.067 30.3692 139.034 30.3369ZM218.173 30.4004C218.276 29.9913 218.526 30.0561 218.741 30.5938C218.671 31.0954 218.372 30.5285 218.173 30.4004ZM305.886 28.0879C306.728 28.4846 310.048 30.5505 308.063 30.3945C308.242 31.7552 304.925 29.3027 305.886 28.0879ZM166.734 30.457C166.658 29.0709 167.774 30.3973 167.119 30.71C167.119 30.71 166.867 30.5839 166.734 30.457ZM116.22 30.707C115.909 30.7084 116.006 30.2369 116.35 30.3613C116.351 30.5505 116.416 30.706 116.22 30.707ZM115.431 30.4004C115.663 30.8066 115.82 29.3252 116.021 30.2686C116.025 30.8982 115.516 30.7462 115.431 30.4004ZM227.38 29.291C228.192 28.3823 228.971 29.454 228.952 30.1484C228.742 31.6291 228.185 29.5496 227.38 29.291ZM294.679 29.1162C294.94 29.8446 295.204 30.2612 294.558 30.6318C294.632 30.0016 294.388 29.6491 294.679 29.1162ZM128.217 30.4668C128.173 29.5516 128.57 29.5447 128.831 30.2061C128.767 30.8684 128.464 30.5607 128.217 30.4668ZM136.521 30.1533C136.463 30.4335 136.961 30.4666 136.931 30.498C136.624 30.6562 136.41 30.749 136.521 30.1533ZM349.328 30.5498C349.349 30.5635 349.589 30.7139 349.672 30.3496C349.671 30.3496 349.457 30.3524 349.318 30.2314C349.321 30.3373 349.325 30.444 349.328 30.5498ZM141.861 29.9541C141.874 29.9649 142.017 30.0857 142.018 30.2656C141.956 31.0539 141.468 30.0809 141.861 29.9541ZM280.174 30.2949C280.578 30.3297 279.61 29.4327 280.667 29.7578C280.53 30.1358 280.657 30.9929 280.174 30.2949ZM124.013 29.6309C124.335 29.5664 124.674 29.88 124.542 30.3535C124.105 30.8284 124.218 30.0404 124.013 29.6309ZM52.4678 29.043C53.4952 29.1931 51.8655 31.5705 51.8008 29.7725C51.1049 28.8005 52.1819 29.2024 52.4678 29.043ZM85.5986 27.4609C86.9997 26.5043 87.1534 29.4117 87.4111 30.3887C86.7954 30.5506 85.0245 29.1697 85.5986 27.4609ZM158.707 29.4678C159.765 29.757 158.993 27.7034 160.325 29.1309C160.508 29.5459 159.999 31.4916 158.707 29.4678ZM252.327 29.3584C252.312 29.7044 252.811 30.0535 253.026 30.1494C252.689 30.6193 252.154 30.2393 252.327 29.3584ZM153.345 30.2002C153.262 30.2002 153.462 30.3608 153.513 30.3301C153.513 30.3301 153.411 30.2005 153.345 30.2002ZM175.473 29.7178C175.692 29.7193 175.925 30.0318 175.856 30.3154C175.756 30.127 175.539 29.9996 175.473 29.7178ZM358.241 30.2197C358.211 30.22 358.18 30.2838 358.15 30.3154C358.195 30.3154 358.241 30.3137 358.241 30.2197ZM85.0117 29.8711C85.262 29.6801 85.5824 29.9262 85.6523 30.2725C85.4008 30.2111 85.1973 30.0275 85.0117 29.8711ZM130.069 29.1309C130.29 29.4457 130.46 29.8574 130.495 30.2676C130.482 30.2567 129.974 29.8463 130.069 29.1309ZM55.0996 28.96C55.8974 28.5766 56.0947 30.3378 55.1094 30.2207C55.5369 29.5879 55.3382 29.6183 55.0996 28.96ZM290.131 30.2021C290.099 29.9812 290.235 30.0112 290.335 30.0752C290.333 30.2638 290.233 30.2034 290.131 30.2021ZM235.751 30.1299C235.703 29.8163 235.853 30.0026 235.886 30.1914C235.879 30.1944 235.751 30.2524 235.751 30.1299ZM154.228 30.082C154.264 30.139 154.296 30.1775 154.322 30.1777C154.319 30.1737 154.273 30.1263 154.228 30.082ZM297.902 29.7607C297.871 29.8271 297.867 30.0729 297.866 30.167C297.656 30.2268 297.695 29.6969 297.902 29.7607ZM117.474 29.4541C117.516 29.7445 117.604 30.0693 117.528 30.165C117.157 30.0569 117.428 29.4928 117.46 29.2646C117.465 29.3276 117.469 29.3911 117.474 29.4541ZM253.161 29.8994C253.159 30.0249 253.092 30.1496 253.059 30.1494C253.059 30.1494 253.159 30.0249 253.161 29.8994ZM154.027 29.7021C154.079 29.8441 154.133 30.0114 154.152 30.0146C154.171 30.0267 154.199 30.0542 154.228 30.082C154.164 29.9837 154.089 29.8276 154.027 29.7021ZM153.783 29.8232C153.716 29.8859 153.598 29.9491 153.53 30.0117C153.525 30.0117 153.519 30.0117 153.514 30.0117C153.697 30.0756 153.899 30.1385 153.951 29.8242C153.895 29.8239 153.839 29.8235 153.783 29.8232ZM193.607 29.7832C194.027 29.4068 193.699 28.3989 194.314 28.8115C194.696 29.2559 194.004 30.5733 193.607 29.7832ZM217.676 29.6045C217.676 29.6358 217.675 29.6679 217.675 29.6992C217.724 29.8886 217.672 30.0799 217.64 29.9229C217.64 29.9176 217.658 29.7918 217.675 29.6992C217.674 29.6863 217.67 29.6322 217.642 29.6045C217.653 29.6046 217.664 29.6044 217.676 29.6045ZM273.957 29.9238C273.678 30.0476 273.764 29.545 273.959 29.6729C274.09 29.5809 274.053 30.1125 273.957 29.9238ZM196.76 29.957C196.774 29.9582 196.789 29.9501 196.803 29.9502C196.796 29.9454 196.79 29.9414 196.783 29.9365C196.776 29.9427 196.768 29.9509 196.76 29.957ZM94.1387 29.6445C94.1427 29.6524 94.2071 29.7793 94.2402 29.9014C94.0743 29.9336 94.0898 29.8023 94.1387 29.6445ZM154.607 28.6006C155.133 28.9196 154.586 29.9532 155.129 29.7354C154.754 30.2371 154.367 29.0101 154.607 28.6006ZM57.7812 29.6025C57.8818 29.6019 58.0655 29.6627 58.0674 29.8516C58.0481 29.8515 57.7188 29.8477 57.7812 29.6025ZM206.851 29.4189C206.868 29.4232 207.133 29.4883 207.133 29.6709C207.131 29.9224 206.783 29.6707 206.851 29.4189ZM138.377 29.4854C138.792 29.5147 137.786 28.6298 138.877 28.9424C138.74 29.3218 138.881 30.1758 138.377 29.4854ZM284.177 29.6064C284.245 29.6076 284.28 29.6671 284.33 29.7305C284.33 29.7305 284.195 29.7286 284.177 29.6064ZM152.478 28.8418C152.609 28.6846 153.15 29.7584 152.656 29.5674C152.39 30.1646 152.758 28.7484 152.478 28.8418ZM153.923 29.5127C153.948 29.5324 153.985 29.6153 154.027 29.7021C153.986 29.5907 153.945 29.499 153.923 29.5127ZM44.8447 29.4238C44.6522 28.573 45.515 29.1019 45.3662 29.4189C45.3559 29.4232 44.9159 29.6063 44.8447 29.4238ZM63.1943 29.4316C62.7732 28.681 63.6347 28.6078 63.7412 28.7627C63.6576 28.8925 63.3792 29.5855 63.1943 29.4316ZM102.596 29.3994C102.594 29.0551 102.76 29.0559 102.877 29.2754C102.867 29.2868 102.708 29.4595 102.596 29.3994ZM164.153 27.8564C165.444 27.9898 167.342 29.1645 165.247 29.3115C165.515 29.8161 163.95 27.8886 164.153 27.8564ZM154.996 29.1377C155.102 29.1382 155.277 29.2009 155.278 29.3896C155.278 29.3896 154.932 29.3873 154.996 29.1377ZM296.833 29.0146C296.848 29.0793 296.779 29.4601 296.635 29.3643C296.637 29.362 296.815 29.1712 296.833 29.0146ZM205.024 29.2793C204.372 29.0228 205.031 28.3649 205.449 28.5566C205.51 28.6558 205.043 29.2459 205.024 29.2793ZM155.956 29.0752C156.004 29.2328 155.838 29.36 155.822 29.2031C155.825 29.1981 155.891 29.0749 155.956 29.0752ZM382.146 27.5732C378.645 24.5287 384.081 24.1107 384.521 27.9014C383.526 28.8131 381.901 30.5709 382.146 27.5732ZM132.207 28.8994C132.516 29.0562 131.934 29.4974 132.078 28.9609C132.093 28.9652 132.285 29.0202 132.207 28.8994ZM50.7012 28.8398C50.7094 28.8518 50.9367 29.1815 50.8896 29.1846C50.7056 29.1861 50.6032 28.9983 50.7012 28.8398ZM231.167 28.7461C231.285 28.6838 231.351 28.964 231.333 29.1533C231.267 29.0276 231.2 28.9027 231.167 28.7461ZM267.084 27.6621C267.499 27.7915 267.493 28.641 267.671 29.1162C267.458 28.9865 266.786 27.883 267.084 27.6621ZM89.4805 28.4775C89.6787 28.3213 89.9969 28.9837 89.6992 29.0176C89.6946 29.0105 89.5317 28.757 89.4805 28.4775ZM33.7266 28C34.2017 27.3967 35.1825 27.2605 34.9121 28.7139C34.6318 29.3147 33.3042 28.9184 33.7266 28ZM10.9316 28.2012C11.6703 28.0689 11.2591 29.3328 10.6191 28.8672C10.3334 28.6173 10.7138 28.2664 10.9316 28.2012ZM325.229 28.8867C325.263 28.4763 325.674 28.0649 325.915 28.2227C325.846 28.6951 325.554 28.8235 325.229 28.8867ZM42.9238 28.7754C40.8352 29.0138 43.1878 26.5956 43.6846 27.5703C44.1113 28.5751 43.2572 28.5523 42.9238 28.7754ZM231.169 28.4883C231.17 28.4981 231.182 28.6547 231.133 28.7461C231.133 28.7145 231.102 28.4879 231.169 28.4883ZM40.2686 28.418C40.0137 27.6944 41.1797 27.9999 41.3154 28.2197C41.6663 28.7517 40.4066 28.8253 40.2686 28.418ZM222.926 28.5049C223.473 26.9616 224.231 29.142 222.992 28.5664C222.984 28.566 222.927 28.5608 222.926 28.5049ZM340.323 28.3682C339.22 28.1595 340.12 27.4911 340.479 27.7705C340.636 28.4314 340.689 29.0262 340.323 28.3682ZM49.9229 27.8643C50.6584 27.7323 50.2496 28.9966 49.6104 28.5303C49.3247 28.2801 49.7057 27.9293 49.9229 27.8643ZM282.959 28.4229C283.042 28.3946 283.055 28.6147 282.924 28.5518C282.924 28.5497 282.961 28.173 282.959 28.4229ZM81.3447 28.0947C81.5916 27.6211 81.9445 27.8997 82.1475 28.3398C81.8318 28.4684 81.033 28.7594 81.3447 28.0947ZM89.4463 28.4502C89.3956 28.3238 89.3919 27.6563 89.5762 27.9072C89.5728 27.924 89.4787 28.3867 89.4463 28.4502ZM125.349 27.0029C125.766 27.1276 125.77 27.9774 125.954 28.4502C125.738 28.3237 125.05 27.2256 125.349 27.0029ZM154.852 28.1309C154.829 28.2528 154.777 28.4812 154.676 28.4111C154.691 28.3061 154.811 28.2408 154.852 28.1309ZM299.051 28.0088C299.059 28.0201 299.221 28.2633 299.188 28.417C298.983 28.4134 298.841 28.2258 299.051 28.0088ZM379.164 27.0879C379.619 26.4271 380.257 28.075 379.766 28.3574C379.308 28.6064 378.711 27.7486 379.164 27.0879ZM215.643 27.7295C215.641 27.9503 215.673 28.3303 215.572 28.3936C215.372 28.203 215.524 27.9182 215.643 27.7295ZM36.1729 27.4434C36.3905 27.4424 36.5285 27.9156 36.3457 28.1064C35.5149 28.9017 35.6024 27.3219 36.1729 27.4434ZM352.535 27.9688C352.583 27.6528 352.862 28.0235 352.812 28.3086C352.811 28.3086 352.513 28.2529 352.535 27.9688ZM110.134 27.9033C110.103 28.2184 109.824 28.219 109.626 28.1572C109.79 28.0301 109.97 27.9043 110.134 27.9033ZM44.0918 28.1016C43.9899 27.9129 44.2735 27.5619 44.3779 27.9707C44.37 27.9748 44.1253 28.101 44.0918 28.1016ZM114.446 27.9805C114.372 27.9874 114.302 28.0017 114.245 28.0283C114.299 28.0008 114.365 27.9826 114.446 27.9805ZM75.1543 27.1309C75.3711 27.1303 75.5074 27.6033 75.3252 27.7939C74.4962 28.5881 74.5852 27.0089 75.1543 27.1309ZM355.084 27.6221C355.088 27.4567 355.076 27.323 355.218 27.4482C355.378 27.5742 355.267 28.0442 355.148 27.9834C355.091 27.9839 355.086 27.7873 355.084 27.6221ZM216.465 27.4229C216.631 27.5498 216.782 27.674 216.915 27.832C216.463 28.1746 216.347 27.7687 216.465 27.4229ZM59.7607 27.5342C59.8254 27.2186 60.1476 27.5925 60.084 27.877C60.0806 27.8764 59.7319 27.8151 59.7607 27.5342ZM182.688 27.6084C182.694 27.6105 182.856 27.6696 182.873 27.7314C182.756 27.7308 182.453 27.9219 182.688 27.6084ZM313.432 26.2617C313.994 25.8558 314.808 26.0151 315.339 27.0596C315.992 28.7341 313.815 27.0861 313.432 26.2617ZM70.7158 26.9746C70.8823 26.8157 71.456 27.3761 71.0742 27.7578C70.7084 27.9479 70.5664 26.9485 70.7158 26.9746ZM91.6201 26.7617C91.7385 26.7608 92.3264 26.6921 92.3271 26.8184C93.2101 28.4211 91.8628 27.5806 91.6201 26.7617ZM208.806 27.377C208.875 27.0632 209.19 27.4412 209.123 27.7246C208.989 27.7237 208.772 27.6591 208.806 27.377ZM141.158 27.584C141.239 27.5523 141.255 27.7746 141.126 27.7119C141.127 27.6971 141.158 27.3376 141.158 27.584ZM22.21 27.6934C20.8509 26.4433 22.855 25.57 23.0049 26.6699C25.2365 25.5456 23.4296 27.9666 22.21 27.6934ZM95.9385 27.5801C95.9711 27.3915 96.1533 27.2653 96.2217 27.5781C96.1897 27.798 96.0216 27.6112 95.9385 27.5801ZM15.5664 26.7695C16.015 26.7655 16.0228 27.619 15.5742 27.623C15.1275 27.6264 15.1197 26.7744 15.5664 26.7695ZM44.6748 27.2432C44.7015 27.2542 45.2759 27.498 45.0312 27.5928C44.8631 27.6571 44.5098 27.5913 44.6748 27.2432ZM372.157 25.0781C372.339 25.1726 373.77 24.9233 373.652 25.1436C375.533 29.0004 372.754 27.1945 372.157 25.0781ZM45.1104 27.1182C45.2284 27.1486 45.4125 27.0198 45.4648 27.1758C45.7857 27.2993 45.1667 27.6193 45.1104 27.1182ZM101.834 27.0059C101.983 27.0049 102.068 27.1979 102.185 27.2607C102.085 27.385 101.869 27.2569 101.834 27.0059ZM96.4971 26.8506C96.6454 26.8184 96.7299 27.0421 96.8467 27.2617C96.649 27.3254 96.3687 27.2597 96.4971 26.8506ZM354.322 27.21C354.125 26.8026 354.642 26 354.844 26.9443C354.935 27.3487 354.363 27.2722 354.322 27.21ZM329.333 26.3887C329.557 26.3886 329.833 26.7933 329.869 27.2344C329.646 27.0459 329.403 26.8289 329.333 26.3887ZM73.6152 27.2041C73.6039 27.1952 73.5924 27.1856 73.5811 27.1768C73.5922 27.1542 73.6041 27.1309 73.6152 27.1084C73.6155 27.1399 73.615 27.1727 73.6152 27.2041ZM361.996 26.5332C360.001 26.2453 361.16 24.4438 362.43 25.0771C362.635 26.435 362.678 28.1748 361.996 26.5332ZM387.634 26.3965C387.738 25.674 388.478 26.5925 388.341 27.1914C388.086 27.2534 387.53 26.9954 387.634 26.3965ZM61.9639 26.25C62.0809 26.2491 62.4136 25.9339 62.4521 26.5645C62.4403 27.2581 61.3677 26.728 61.9639 26.25ZM336.294 26.5488C336.373 26.0432 337.175 26.6982 336.627 26.7969C336.611 26.7889 336.395 26.6699 336.294 26.5488ZM41.042 25.4785C41.5559 25.3489 41.4637 26.1957 41.3672 26.6074C40.2242 27.2791 39.7144 25.7108 41.042 25.4785ZM394.89 26.5547C394.32 26.5523 394.193 24.6878 395.181 25.2285C395.699 25.547 395.359 26.6189 394.89 26.5547ZM355.133 25.2676C355.298 24.6026 356.171 25.8052 355.732 26.1855C355.595 26.2802 355.388 26.2788 355.23 26.1406C355.098 26.0021 355.071 25.725 355.133 25.2676ZM356.496 25.0664C356.675 25.0422 356.826 25.073 356.782 25.3564C356.683 26.0814 355.985 25.7058 355.869 25.1074C356.003 25.1693 356.267 25.0907 356.496 25.0664ZM29.9053 23.832C30.7096 23.4785 30.9397 24.5511 30.5547 24.9648C29.8188 25.8846 28.269 24.5722 29.9053 23.832ZM21.5879 23.2412C22.9161 22.7561 23.1061 25.282 21.7051 25.2314C20.7938 25.2384 20.9277 23.5008 21.5879 23.2412ZM18.5342 23.6807C19.4707 23.3257 19.6234 25.1211 18.5449 24.9414C17.8986 24.8201 18.1103 23.812 18.5342 23.6807ZM244.905 24.79C244.902 24.804 244.852 25.0007 244.805 24.8496C244.813 24.8399 244.86 24.7898 244.905 24.79ZM43.5107 22.8633C43.256 22.2668 43.958 22.0106 44.0781 22.2617C44.2636 22.6068 43.7967 22.9862 43.5107 22.8633ZM394.135 14.6758C395.485 11.6839 397.695 15.8278 395.989 16.7363C395.179 17.1428 394.229 16.2543 394.135 14.6758ZM370.624 14.5859C368.228 13.5996 370.908 9.95108 371.633 12.001C372.079 13.2652 371.582 14.9987 370.624 14.5859ZM378.271 11.3604C378.966 10.9531 380.52 12.0337 380.349 13.4209C380.111 15.4714 377.777 13.5999 378.271 11.3604ZM355.395 11.9121C356.692 6.44383 360.504 9.72624 356.604 11.3057C358.545 15.3746 354.799 13.8377 355.395 11.9121ZM379.477 6.85352C381.46 6.60895 379.771 11.0853 378.627 9.56641C378.033 8.77435 378.501 6.97629 379.477 6.85352ZM386.585 6.63086C386.97 6.63241 387.36 6.09474 387.748 6.22168C390.744 6.89688 386.594 12.0557 386.585 6.63086ZM397.639 7.40137C397.688 3.45514 400.245 9.30597 398.44 7.87891C398.422 7.92261 397.762 9.48479 397.639 7.40137ZM330.178 7.66211C330.178 7.85032 330.178 8.06935 330.077 8.25781C330.074 8.23305 330.012 7.72517 330.178 7.66211ZM333.329 6.38379C333.721 6.50842 333.437 7.39243 333.181 7.58301C332.494 7.58544 332.919 6.32369 333.329 6.38379ZM391.893 6.11035C392.279 6.23904 391.989 7.11908 391.735 7.30859C391.062 7.30522 391.488 6.04554 391.893 6.11035ZM379.026 5.90332C378.828 5.30338 379.314 4.70936 379.601 4.92969C379.849 5.94002 379.142 6.31301 379.026 5.90332ZM382.328 2.15625C381.756 3.60332 381.323 -0.619954 382.436 0.170898C382.434 0.708194 382.463 1.77827 382.328 2.15625ZM363.71 0C363.754 0.227963 363.814 0.457924 363.908 0.678711C362.964 0.771254 362.221 3.6362 362.481 0.132812C362.464 0.0883347 362.448 0.0435319 362.432 0H363.71ZM331.38 0.490234C331.384 1.87687 330.807 1.8478 330.736 0.682617C330.955 0.681852 331.16 0.554228 331.38 0.490234ZM389.333 0.388672C389.649 0.389805 390.002 0.0773528 390.354 0.141602C391.589 0.494476 389.158 2.40413 389.333 0.388672ZM101.335 0.743164C101.352 0.730406 101.713 0.458192 101.649 0.612305C101.821 1.5256 101.207 1.31123 101.335 0.743164ZM34.5615 0C34.6145 0.727455 34.3901 1.31612 33.7715 0.46582C33.4637 0.304999 33.219 1.40633 33.2178 0H34.5615ZM382.012 0C381.417 0.68601 380.786 1.04101 380.414 0.603516C380.419 0.603536 380.425 0.603495 380.431 0.603516C380.406 0.380869 380.396 0.180088 380.396 0H382.012ZM366.593 0C366.528 0.172887 366.443 0.329982 366.328 0.460938C366.231 0.220913 366.135 0.0782905 366.041 0H366.593ZM72.5791 0C72.6019 0.0597653 72.6236 0.129778 72.624 0.186523C72.3857 0.713247 72.2237 0.320568 72.2148 0H72.5791ZM328.539 0C328.342 0.236451 328.181 0.279029 328.094 0H328.539ZM410.205 0C409.892 0.214609 409.56 0.278952 409.468 0H410.205ZM364.996 0C364.888 0.250917 364.739 0.203117 364.564 0H364.996ZM391.253 0C391.216 0.0640302 391.174 0.114362 391.125 0.145508C391.052 0.188686 390.991 0.129556 390.939 0H391.253ZM378.096 0C377.986 0.162733 377.885 0.188521 377.802 0H378.096ZM397.854 0.105469C397.847 0.0915913 397.84 0.0542634 397.831 0H397.98C397.939 0.0366862 397.898 0.0737718 397.854 0.105469ZM365.575 0C365.424 0.0804831 365.302 0.16738 365.229 0H365.575Z" fill="var(--fill-0, #0F203B)"/>
</svg>
