<svg width="301" height="70" viewBox="0 0 301 70" fill="none" xmlns="http://www.w3.org/2000/svg">
<g clip-path="url(#clip0_296_3911)">
<path d="M0 25.0549V12.474H39.101V25.0549H0ZM29.7713 69.7118C23.1304 69.7118 17.9586 68.017 14.256 64.6272C10.5494 61.2374 8.70012 56.1884 8.70012 49.4802V0H25.0549V49.2703C25.0549 51.6463 25.6846 53.4798 26.9399 54.7747C28.1992 56.0696 29.9099 56.7151 32.076 56.7151C34.6619 56.7151 36.8636 56.0182 38.6813 54.6203L43.0848 66.1518C41.4058 67.3398 39.398 68.2308 37.0577 68.8248C34.7173 69.4188 32.2898 69.7158 29.7713 69.7158V69.7118Z" fill="#ED1B7A"/>
<path d="M39.4653 35.05H49.0961V0.0118713H61.3008V69.5891H49.0961V48.7476H39.4653V35.05Z" fill="#231F20"/>
<path d="M77.2394 0.0118713H65.0347V69.5851H77.2394V0.0118713Z" fill="#231F20"/>
<path d="M89.1118 59.9584H152.127V69.5891H89.1118V59.9584ZM151.296 45.2628C148.306 44.4312 145.482 43.3541 142.663 42.0235C139.839 40.7801 137.099 39.3664 134.442 37.8734C131.785 36.3805 129.294 34.8005 126.969 32.9749C124.562 31.3157 122.404 29.4901 120.578 27.6606C116.761 31.3949 112.111 34.8005 106.797 37.8734C101.317 41.0296 95.7567 43.4372 89.9434 45.2628V31.5652C92.1016 30.8999 94.5925 29.8228 97.4159 28.409C100.156 27.0824 102.73 25.5024 105.138 23.76C107.462 22.1008 109.537 20.2712 111.201 18.3625C112.777 16.537 113.608 14.7074 113.608 12.965V0.0118713H127.639V12.965C127.639 14.7074 128.47 16.537 130.129 18.3625C131.706 20.2712 133.701 22.0968 136.109 23.76C138.434 25.5024 141.008 27.0824 143.831 28.409C146.488 29.8188 148.979 30.8999 151.304 31.5652V45.2628H151.296Z" fill="#231F20"/>
<path d="M162.423 9.55943V0.0118713H201.362V9.55943H162.423ZM162.423 16.6201H201.362V26.1677H176.537V58.3823H202.107V67.9298H162.419V16.6201H162.423ZM211.737 0.0118713H225.851V69.5851H211.737V0.0118713Z" fill="#231F20"/>
<path d="M274.753 0.0118713V32.6423H237.145V0.0118713H250.759V7.40123H261.221V0.0118713H274.753ZM300.572 69.5891H237.141V49.496H286.458V46.4231H237.141V37.9566H300.572V58.0496H251.254V61.2057H300.572V69.593V69.5891ZM261.221 23.0116V16.9528H250.759V23.0116H261.221ZM277.742 11.1395H286.458V0.0118713H300.572V32.6423H286.458V20.7702H277.742V11.1395Z" fill="#231F20"/>
</g>
<defs>
<clipPath id="clip0_296_3911">
<rect width="300.572" height="69.7118" fill="white"/>
</clipPath>
</defs>
</svg>
