<svg width="13" height="15" viewBox="0 0 13 15" fill="none" xmlns="http://www.w3.org/2000/svg">
<path d="M6.5 15C5.59722 15 4.75162 14.8304 3.96319 14.4911C3.17477 14.1518 2.48866 13.6935 1.90486 13.1161C1.32106 12.5387 0.857639 11.8601 0.514583 11.0804C0.171528 10.3006 0 9.46429 0 8.57143H1.44444C1.44444 9.96429 1.93495 11.1458 2.91597 12.1161C3.89699 13.0863 5.09167 13.5714 6.5 13.5714C7.90833 13.5714 9.10301 13.0863 10.084 12.1161C11.065 11.1458 11.5556 9.96429 11.5556 8.57143C11.5556 7.17857 11.065 5.99702 10.084 5.02679C9.10301 4.05655 7.90833 3.57143 6.5 3.57143H6.39167L7.51111 4.67857L6.5 5.71429L3.61111 2.85714L6.5 0L7.51111 1.03571L6.39167 2.14286H6.5C7.40278 2.14286 8.24838 2.3125 9.03681 2.65179C9.82523 2.99107 10.5113 3.4494 11.0951 4.02679C11.6789 4.60417 12.1424 5.28274 12.4854 6.0625C12.8285 6.84226 13 7.67857 13 8.57143C13 9.46429 12.8285 10.3006 12.4854 11.0804C12.1424 11.8601 11.6789 12.5387 11.0951 13.1161C10.5113 13.6935 9.82523 14.1518 9.03681 14.4911C8.24838 14.8304 7.40278 15 6.5 15Z" fill="white"/>
</svg>
