<svg width="18" height="22" viewBox="0 0 18 22" fill="none" xmlns="http://www.w3.org/2000/svg">
<path d="M9 21.5C7.75 21.5 6.57917 21.2625 5.4875 20.7875C4.39583 20.3125 3.44583 19.6708 2.6375 18.8625C1.82917 18.0542 1.1875 17.1042 0.7125 16.0125C0.2375 14.9208 0 13.75 0 12.5H2C2 14.45 2.67917 16.1042 4.0375 17.4625C5.39583 18.8208 7.05 19.5 9 19.5C10.95 19.5 12.6042 18.8208 13.9625 17.4625C15.3208 16.1042 16 14.45 16 12.5C16 10.55 15.3208 8.89583 13.9625 7.5375C12.6042 6.17917 10.95 5.5 9 5.5H8.85L10.4 7.05L9 8.5L5 4.5L9 0.5L10.4 1.95L8.85 3.5H9C10.25 3.5 11.4208 3.7375 12.5125 4.2125C13.6042 4.6875 14.5542 5.32917 15.3625 6.1375C16.1708 6.94583 16.8125 7.89583 17.2875 8.9875C17.7625 10.0792 18 11.25 18 12.5C18 13.75 17.7625 14.9208 17.2875 16.0125C16.8125 17.1042 16.1708 18.0542 15.3625 18.8625C14.5542 19.6708 13.6042 20.3125 12.5125 20.7875C11.4208 21.2625 10.25 21.5 9 21.5Z" fill='currentColor'/>
</svg>
