<svg width="12" height="16" viewBox="0 0 12 16" fill="none" xmlns="http://www.w3.org/2000/svg">
<path d="M1.5 16C1.0875 16 0.734375 15.8508 0.440625 15.5524C0.146875 15.254 0 14.8952 0 14.4762V6.85714C0 6.4381 0.146875 6.07937 0.440625 5.78095C0.734375 5.48254 1.0875 5.33333 1.5 5.33333H3.75V6.85714H1.5V14.4762H10.5V6.85714H8.25V5.33333H10.5C10.9125 5.33333 11.2656 5.48254 11.5594 5.78095C11.8531 6.07937 12 6.4381 12 6.85714V14.4762C12 14.8952 11.8531 15.254 11.5594 15.5524C11.2656 15.8508 10.9125 16 10.5 16H1.5ZM5.25 11.4286V2.91429L4.05 4.13333L3 3.04762L6 0L9 3.04762L7.95 4.13333L6.75 2.91429V11.4286H5.25Z" fill="black"/>
</svg>
